<?xml version="1.0" standalone="no"?>
<!DOCTYPE svg PUBLIC "-//W3C//DTD SVG 20010904//EN"
 "http://www.w3.org/TR/2001/REC-SVG-20010904/DTD/svg10.dtd">
<svg version="1.0" xmlns="http://www.w3.org/2000/svg"
 width="292.000000pt" height="292.000000pt" viewBox="0 0 292.000000 292.000000"
 preserveAspectRatio="xMidYMid meet">
<metadata>
Created by potrace 1.14, written by Peter Selinger 2001-2017
</metadata>
<g transform="translate(0.000000,292.000000) scale(0.100000,-0.100000)"
fill="#000000" stroke="none">
<path d="M1309 2916 c-2 -2 -26 -6 -54 -10 -362 -44 -727 -256 -954 -556 -158
-208 -245 -415 -291 -695 -9 -55 -5 -370 5 -425 47 -252 141 -469 284 -655 55
-72 201 -220 256 -261 22 -16 42 -31 45 -34 19 -20 152 -97 240 -139 102 -49
270 -103 360 -117 25 -3 56 -8 70 -10 59 -10 262 -11 340 -3 537 55 1001 406
1205 912 31 76 61 177 71 237 3 14 7 31 9 38 25 70 25 454 0 524 -2 7 -6 24
-9 38 -7 41 -36 154 -45 175 -5 11 -17 40 -26 65 -29 80 -126 253 -183 330
-70 93 -206 231 -292 296 -179 136 -387 226 -635 275 -54 10 -387 23 -396 15z"/>
</g>
</svg>
