<?xml version="1.0" encoding="utf-8"?>
<!-- Generator: Adobe Illustrator 23.0.5, SVG Export Plug-In . SVG Version: 6.00 Build 0)  -->
<svg version="1.1" xmlns="http://www.w3.org/2000/svg" xmlns:xlink="http://www.w3.org/1999/xlink" x="0px" y="0px"
	 viewBox="0 0 500 500" style="enable-background:new 0 0 500 500;" xml:space="preserve">
<style type="text/css">
	.st0{display:none;}
	.st1{display:inline;fill:#FFFFFF;}
	.st2{fill:#B6B9D1;}
	.st3{fill:#61648A;}
	.st4{fill:#2A2B3D;}
	.st5{opacity:0.47;fill:#1B1D28;}
	.st6{fill:none;stroke:#3B3D4F;stroke-miterlimit:10;}
	.st7{fill:#F4B8AB;}
	.st8{fill:none;stroke:#E56A85;stroke-linecap:round;stroke-miterlimit:10;}
	.st9{opacity:0.36;fill:#383952;}
	.st10{fill:#FFFFFF;}
	.st11{fill:#DFE0E5;}
	.st12{fill:#7C81A5;}
	.st13{fill:#6D3744;}
	.st14{fill:#542633;}
	.st15{fill:#191918;}
	.st16{fill:#E56A85;}
	.st17{opacity:0.53;fill:#DD6595;}
	.st18{fill:#1F202D;}
	.st19{fill:#D35473;}
	.st20{fill:#FFC55A;}
	.st21{fill:#F49947;}
	.st22{fill:#E28437;}
	.st23{opacity:0.38;fill:#8E253E;}
	.st24{fill:#4D94CE;}
	.st25{fill:#58AEDD;}
	.st26{fill:#7DD0F4;}
	.st27{fill:#E57797;}
	.st28{fill:#C46C3B;}
	.st29{fill:#AA5327;}
	.st30{fill:#D0E6EF;}
	.st31{fill:#54D15F;}
	.st32{fill:none;stroke:#61648A;stroke-width:0.5;stroke-linecap:round;stroke-miterlimit:10;}
	.st33{fill:none;stroke:#FFFFFF;stroke-width:2;stroke-linecap:round;stroke-miterlimit:10;}
	.st34{fill:none;stroke:#54D15F;stroke-width:1.5;stroke-linecap:round;stroke-miterlimit:10;}
	.st35{fill:none;stroke:#2D292A;stroke-width:1.5;stroke-linecap:round;stroke-miterlimit:10;}
	.st36{fill:none;stroke:#D35473;stroke-width:1.5;stroke-linecap:round;stroke-miterlimit:10;}
	.st37{fill:none;stroke:#FFC55A;stroke-width:1.5;stroke-linecap:round;stroke-miterlimit:10;}
	.st38{opacity:0.21;fill:none;stroke:#383952;stroke-width:1.5;stroke-linecap:round;stroke-miterlimit:10;}
	.st39{font-family:'Lato-Black';}
	.st40{font-size:26.9941px;}
	.st41{letter-spacing:-2;}
	.st42{fill:#42A547;}
	.st43{fill:#5FD365;}
</style>
<g id="BACKGROUND" class="st0">
	<rect class="st1" width="500" height="500"/>
</g>
<g id="OBJECTS">
	<g>
		<path class="st2" d="M463.7,443.2H36.29c-2.98,0-5.4-2.42-5.4-5.4l0,0c0-2.98,2.42-5.4,5.4-5.4H463.7c2.98,0,5.4,2.42,5.4,5.4l0,0
			C469.11,440.78,466.69,443.2,463.7,443.2z"/>
		<g>
			<g>
				<path class="st3" d="M380.78,410.69c2.21,8.05,3.01,17.74,0.32,21.21c-2.69,3.47-29.05,5.26-32.85,1.34
					c-3.81-3.92,12.53-4.74,13.99-10.85c1.46-6.11,5.47-16.63,5.47-16.63L380.78,410.69z"/>
				<path class="st3" d="M336.25,410.69c2.21,8.05,3.01,17.74,0.32,21.21c-2.69,3.47-29.05,5.26-32.85,1.34
					c-3.81-3.92,12.53-4.74,13.99-10.85c1.46-6.11,5.47-16.63,5.47-16.63L336.25,410.69z"/>
				<path class="st4" d="M383.71,221.39c5.81,27.25,2.8,193.79,2.8,193.79h-24.22l-15.91-198.64L383.71,221.39z"/>
				<path class="st4" d="M325.09,221.39l-9.31,193.79h23.07c0,0,20.58-127.92,21.83-129.42c1.25-1.5-14.31-69.22-14.31-69.22
					L325.09,221.39z"/>
				<path class="st5" d="M350.14,271.21c-9.44,40.55-0.48,77.68-0.48,77.68l5.27-31.48L350.14,271.21z"/>
				<polyline class="st6" points="347.49,221.39 347.49,255.01 350.56,256.75 350.56,220.77 				"/>
				<path class="st5" d="M324.93,227.96c22.56,0.05,60.91,15.39,60.91,15.39s0.29-15.71-2.13-21.97c-2.42-6.26-58.62,0-58.62,0
					L324.93,227.96z"/>
				<g>
					<path class="st7" d="M277.39,162.81c-1.82-5.81-2.38-10.29-4.92-11.38c-2.23-0.96-0.02,4.56-0.02,4.56s-8.02-6.45-11.3-5.83
						c-3.28,0.62,2.2,2.68,2.2,2.68s-5.13-2.41-6.05-0.98c-0.51,0.78,4.05,3.43,4.05,3.43s-3.79-1.57-4.44-0.64
						c-0.65,0.93,3.76,4.66,3.76,4.66s-3.04-1.84-3.3-0.73c-0.25,1.1,16.29,10.81,16.29,10.81L277.39,162.81z"/>
					<path class="st8" d="M266.15,158.42c4.07,0.65,6.55,3.09,6.55,3.09"/>
				</g>
				<path class="st3" d="M389.89,177.36l-6.18,44.03h-58.63l-0.24-38.83c0,0-8.67,13.84-17.25,13.6
					c-5.63-0.16-19.58-10.43-28.55-17.51c-0.01-0.01-0.01-0.01-0.02-0.01c-0.01-0.01-0.01-0.01-0.01-0.01
					c-4.73-3.74-8.06-6.57-8.06-6.57l6.15-13.38l28.86,10.22c8.28-12.55,24.32-29.14,36.81-27.9l13.39-1.84L389.89,177.36z"/>
				<path class="st9" d="M369.58,159.96c7.42,20.96-9.07,20.18-17.46,25.36c-8.39,5.18-11.04,25.92-19.07,26.36
					c-8.03,0.44-8.12-14.62-8.12-14.62l0.15,24.32h58.62l6.18-44.03L369.58,159.96z"/>
				<g>
					<path class="st10" d="M352.68,207.17h-7.93c-0.89,0-1.63-0.68-1.71-1.57l-1.78-19.91h14.92l-1.78,19.91
						C354.31,206.49,353.57,207.17,352.68,207.17z"/>
					<path class="st11" d="M356.1,185.32c0,1.08-3.31,1.95-7.39,1.95c-4.08,0-7.39-0.87-7.39-1.95c0-1.08,3.31-1.95,7.39-1.95
						C352.79,183.37,356.1,184.24,356.1,185.32z"/>
					<g>
						<path class="st10" d="M358.19,204.83h-7.63V189.3h7.63c1.91,0,3.46,1.55,3.46,3.46v8.62
							C361.64,203.28,360.09,204.83,358.19,204.83z M352.48,202.91h5.71c0.85,0,1.53-0.69,1.53-1.53v-8.62
							c0-0.85-0.69-1.53-1.53-1.53h-5.71V202.91z"/>
					</g>
				</g>
				<path class="st7" d="M371.34,187.29c-2.47,0.19-5.83-0.62-7.71-1.42c-1.88-0.81-5.65,1.34-6.32,2.42
					c-0.67,1.08,3.49,1.34,3.49,1.34s-5.65,1.88-5.38,3.49s2.69,1.61,2.69,1.61s0.94,6.59,3.63,8.06c2.69,1.48,9.68-1.61,10.48-2.55
					c0.81-0.94,2.28-3.76,4.44-4.3C378.82,195.42,371.34,187.29,371.34,187.29z"/>
				<path class="st3" d="M356.16,139.15c8.66-2.05,28.75,0.38,38.13,13.42c9.37,13.04,24.93,34.74,22.08,40.04
					s-40.66,6.82-40.66,6.82l-4.97-13.85l10.4-7.74L356.16,139.15z"/>
				<path class="st12" d="M346.5,139.7c-7.19,1.49-4.55,13.59-4.55,13.59l9.87-5.78l10.95,1.89c0,0-0.66-9.04-6.61-10.24
					C350.21,137.95,346.5,139.7,346.5,139.7z"/>
				<path class="st13" d="M377.95,117.05c-2.41,13.42-21.1,18.22-21.1,18.22l-10.71-14.11l-7.97-10.5c0,0-7.22,1.85-9.26-1.66
					c-2.03-3.52,2.22-5.92,2.22-5.92s-9.07-4.82-6.85-11.29c2.18-6.36,13.46-2.02,13.87-1.86c-0.33-0.41-8.81-11.01-3.63-16.08
					c5.29-5.19,19.18,1.85,24.16,13.87c0,0,0.19-6.47,4.07-6.29c3.89,0.19,8.66,11.11,7.57,14.62
					C370.34,96.04,380.35,103.62,377.95,117.05z"/>
				<path class="st14" d="M377.95,117.05c-2.41,13.42-21.1,18.22-21.1,18.22l-10.71-14.11c0.7-4.12,0.6-11.68,5.75-15.43
					c5.87-4.26,12.56-0.72,18.45-9.7C370.34,96.04,380.35,103.62,377.95,117.05z"/>
				<g>
					<path class="st7" d="M335.13,112.28c-2.01,11.49,0.89,24.7,10.65,25.12l0.22,3.98c0.17,2.95,2.69,5.21,5.64,5.04l0,0
						c2.95-0.17,5.21-2.69,5.04-5.64l-0.22-3.98c0,0,7.58-3.74,8.86-8.68c1.28-4.94-0.04-0.78-0.04-0.78l-0.43-19.85l-26.57,1.5
						L335.13,112.28z"/>
					<path class="st7" d="M364.38,119.92c2.19-4.59,5.17-2.89,5.89-0.33c0.72,2.55-4.1,9.14-5.51,7
						C363.34,124.44,364.38,119.92,364.38,119.92z"/>
					<g>
						<path class="st15" d="M352.5,121.74c0.59-0.03,0.85-0.78,0.77-2.23c-0.08-1.45-0.42-2.16-1.01-2.13
							c-0.59,0.03-0.85,0.78-0.77,2.23C351.57,121.06,351.91,121.77,352.5,121.74z"/>
					</g>
					<g>
						<path class="st15" d="M342,122.33c0.59-0.03,0.85-0.78,0.77-2.23c-0.08-1.45-0.42-2.16-1.01-2.13
							c-0.59,0.03-0.85,0.78-0.77,2.23C341.07,121.65,341.41,122.36,342,122.33z"/>
					</g>
					<path class="st16" d="M346.26,129.17c5.03-0.17,8.73-4.01,8.73-4.01s1.15,6.08-2.62,7.11
						C348.61,133.29,346.26,129.17,346.26,129.17z"/>
					<path class="st17" d="M345.79,137.4c4.32,0.14,9.3-0.3,9.3-0.3l-9.08,4.28L345.79,137.4z"/>
					<path class="st17" d="M364.71,121.1c2.05-2.41,3.17-1.53,3.16,0.85c-0.01,2.38-2.78,4.25-3.74,3.62
						C363.16,124.94,364.71,121.1,364.71,121.1z"/>
				</g>
				<path class="st13" d="M367.18,110.7c-6.79,11.68-26.02,4.25-29.87-0.7c-3.84-4.95,4.15-12.12,12.9-11.15
					C358.96,99.82,369.34,106.98,367.18,110.7z"/>
				<path class="st9" d="M326.51,174.34l-1.67,8.22c0,0-8.67,13.84-17.25,13.6c-5.63-0.16-19.58-10.43-28.55-17.51
					c0.63,0.38,10.98,6.56,26.92,10.55C321.49,193.08,326.04,176.25,326.51,174.34z"/>
			</g>
			<g>
				<rect x="195.56" y="431.63" class="st18" width="35.69" height="4.88"/>
				<rect x="209.68" y="360.11" class="st4" width="7.43" height="72.5"/>
				<path class="st4" d="M236.89,360.11h-46.97c-5.44,0-9.85-4.41-9.85-9.85v-17.66h66.66v17.66
					C246.73,355.7,242.32,360.11,236.89,360.11z"/>
				<rect x="201.81" y="360.11" class="st18" width="23.18" height="4.88"/>
				<path class="st19" d="M297.09,409.64c1.1,8.27,4.15,17.51,7.97,19.66c3.83,2.15,28.8-6.47,30.78-11.57
					c1.98-5.09-13.39,0.52-17.11-4.54c-3.73-5.06-11.52-13.18-11.52-13.18L297.09,409.64z"/>
				<path class="st20" d="M313.52,408.51l-16.57,6.31c0,0-25.54-30.77-31.22-44.25c-5.67-13.48-54.27-75.35-54.27-75.35l30.55,3.6
					c7.43,4.96,15.9,9.74,23.72,14.76c9.7,6.22,18.38,12.79,22.7,20.45c5.97,10.57,17.46,48.43,22.55,65.73
					C312.55,405.12,313.52,408.51,313.52,408.51z"/>
				<path class="st21" d="M313.52,408.51l-16.57,6.31c0,0-25.54-30.77-31.22-44.25c-5.67-13.48-54.27-75.35-54.27-75.35l30.55,3.6
					c7.43,4.96,15.9,9.74,23.72,14.76c-2.21,8.79,17.17,22.61,18.6,43.43c1.37,19.86,0.53,40.24,26.65,42.75
					C312.55,405.12,313.52,408.51,313.52,408.51z"/>
				<path class="st22" d="M277.61,350.07c3.17,13.71-4.59,33.12-4.59,33.12l-5.94-8.99L277.61,350.07z"/>
				<path class="st19" d="M231.61,413.46c-2.32,8.02-5.18,20.16-2.54,23.66c2.64,3.51,20.79,5.66,24.65,1.79
					c3.86-3.87-2.43-5.64-5.66-11.04c-4.1-6.87-3.95-13.06-3.95-13.06L231.61,413.46z"/>
				<path class="st20" d="M277.63,351.08c-0.87,17.73-30.69,67.75-30.69,67.75l-17.74-4c1.78-36.99,12.82-58.08,12.82-58.08
					s-27-2.48-45.29-7.45c-18.29-4.97-37.75-26.25-29.61-48.26l44.34-5.8c0,0,6.94,3.94,16.31,9.89
					c18.34,11.6,46.03,30.84,49.5,43.17C277.55,349.26,277.68,350.19,277.63,351.08z"/>
				<path class="st21" d="M277.63,351.08c-0.87,17.73-30.69,67.75-30.69,67.75l-17.74-4c1.78-36.99,12.82-58.08,12.82-58.08
					s-27-2.48-45.29-7.45c-18.29-4.97-37.75-26.25-29.61-48.26l44.34-5.8c0,0,6.94,3.94,16.31,9.89l0.24,0.43
					c0,0-33.31,10.33-29.9,30.55c3.41,20.21,37.23,19.04,50.82,18.93c11.56-0.09,22.36-3.15,28.34-6.73
					C277.55,349.26,277.68,350.19,277.63,351.08z"/>
				<path class="st13" d="M220.16,235.74c-4.17,13.35-13.07,51.76-55.65,66.24c-37.05,12.58-53.87-10.42-56.89-32.01
					c-0.44-3.23-0.59-6.43-0.44-9.46c1.11-23.37,17.81-16.7,38.41-27.92c20.59-11.22,9.46-20.78,18.09-39.41
					c8.63-18.62,20.31-19.22,33.67-18.29c13.36,0.93,12.45,11.55,12.45,11.55s4.25,7,0,13.73l0.01,0.01
					C210.19,200.77,224.28,222.56,220.16,235.74z"/>
				<path class="st14" d="M220.16,235.74c-4.17,13.35-13.07,51.76-55.65,66.24c-37.05,12.58-53.87-10.42-56.89-32.01
					c8.49,8.31,29.77,6.25,33.9-11.37c4.93-21.05,15.37-25.07,23.68-33.78c8.32-8.7,0.11-20.89,6.2-28.74l6.33-7.23l32.07,11.33
					l0.01,0.01C210.19,200.77,224.28,222.56,220.16,235.74z"/>
				<path class="st19" d="M205.18,219.96c15.97,1.92,23.76,14.86,25.67,32.95c1.91,18.09,3.7,42.33,3.7,42.33l-68.8,5.89
					c0,0,0.63-57.97,0.95-59.24c0.31-1.27,18.92-20.86,18.92-20.86L205.18,219.96z"/>
				<path class="st23" d="M180.55,240.09c1.24,26.99,22.91,29.52,30.91,29.8c8.01,0.28,19.75-13.5,19.75-13.5l8.5,29.53l-6.47,4.5
					l-68.04,1.1c0,0-2.08-29.73-1.18-30.6C164.91,260.05,180.55,240.09,180.55,240.09z"/>
				<path class="st7" d="M199.68,278.23c8.25-4.17,19.84,0.9,18.39,10.32h-19.96L199.68,278.23z"/>
				<path class="st19" d="M185.62,221.03c-17.81-0.19-23.85,7.92-28.38,20.86c-4.53,12.93-9.56,37.35-4.03,45.65
					c5.54,8.31,48.4,1.76,48.4,1.76l0.62-14.27l-28.38-3.35l6.22-29.8L185.62,221.03z"/>
				<g>
					<path class="st24" d="M219.98,281.06l7.96-34.62c1.57-6.84,7.61-11.73,14.63-11.84l59.05-0.94c4.14-0.07,7.23,3.79,6.27,7.81
						l-10.99,42.85c-0.58,2.28-2.65,3.87-5.01,3.84l-67.01-0.86C221.63,287.27,219.25,284.23,219.98,281.06z"/>
					<path class="st25" d="M224.48,280.6l7.82-33.98c1.61-6.99,7.77-11.98,14.94-12.09l58.8-0.93c4.14-0.07,7.23,3.79,6.27,7.81
						l-10.92,42.6c-0.62,2.43-2.82,4.11-5.33,4.08l-66.36-0.85C226.24,287.2,223.71,283.97,224.48,280.6z"/>
					<path class="st24" d="M270.03,253.05l0.4-0.01c4-0.12,6.98,3.66,5.92,7.52l-2.12,7.7c-0.66,2.41-2.77,4.15-5.26,4.35l0,0
						c-3.99,0.32-7.15-3.32-6.28-7.23l1.72-7.69C265,255.05,267.31,253.14,270.03,253.05z"/>
					<path class="st24" d="M282.15,290.65l-80.21,1.27c-1.23,0.02-2.23-0.96-2.25-2.18l0,0c-0.02-1.23,0.96-2.23,2.18-2.25
						l80.21-1.27c1.23-0.02,2.23,0.96,2.25,2.18l0,0C284.35,289.63,283.37,290.64,282.15,290.65z"/>
					<path class="st26" d="M301.06,290.35l-80.21,1.27c-1.23,0.02-2.23-0.96-2.25-2.18l0,0c-0.02-1.23,0.96-2.23,2.18-2.25
						l80.21-1.27c1.23-0.02,2.23,0.96,2.25,2.18l0,0C303.26,289.33,302.28,290.33,301.06,290.35z"/>
				</g>
				<path class="st27" d="M205.18,219.96c4.65,3.87,2.53,6.55,2.53,6.55s1.4,5.44-2.38,6.28c-3.78,0.84-6.31-1.68-6.31-1.68
					s-1.63,4.76-5.58,4.06c-3.95-0.7-3.21-6.87-3.21-6.87s-1.19,1.96-4.61,0c-3.42-1.96,0.65-7.28,0.65-7.28L205.18,219.96z"/>
				<g>
					<path class="st7" d="M205.72,189.72c4.23,10.88,3.98,24.4-5.52,26.73l0.56,3.95c0.42,2.93-1.62,5.64-4.55,6.05l0,0
						c-2.93,0.42-5.64-1.62-6.05-4.55l-0.56-3.95c0,0-8.17-2.18-10.4-6.78c-2.23-4.6-0.11-0.77-0.11-0.77l-3.48-19.56l26.36-3.75
						L205.72,189.72z"/>
					<path class="st7" d="M178.53,202.96c-3.05-4.07-5.64-1.82-5.84,0.83c-0.21,2.65,5.81,8.16,6.78,5.78
						C180.44,207.19,178.53,202.96,178.53,202.96z"/>
					<g>
						<path class="st15" d="M190.54,202.41c-0.59,0.08-0.99-0.6-1.19-2.04c-0.2-1.43-0.01-2.2,0.58-2.29
							c0.59-0.08,0.99,0.6,1.19,2.04C191.32,201.56,191.12,202.33,190.54,202.41z"/>
					</g>
					<g>
						<path class="st15" d="M200.95,200.93c-0.59,0.08-0.99-0.6-1.19-2.04c-0.2-1.43-0.01-2.2,0.58-2.29
							c0.59-0.08,0.99,0.6,1.19,2.04C201.73,200.08,201.54,200.85,200.95,200.93z"/>
					</g>
					<path class="st8" d="M198.12,208.47c-4.97,0.82-9.35-2.22-9.35-2.22"/>
					<path class="st17" d="M200.2,216.45c-4.21,0.99-9.18,1.54-9.18,1.54l9.75,2.41L200.2,216.45z"/>
					<path class="st17" d="M178.44,204.18c-2.48-1.96-3.41-0.88-2.93,1.46c0.48,2.34,3.56,3.62,4.38,2.81
						C180.71,207.65,178.44,204.18,178.44,204.18z"/>
				</g>
				<path class="st13" d="M200.76,183.01c3.61,12.19-20.7,20.1-26.42,17.93c-5.73-2.17-6.11-10.58,1.87-15.98
					C184.2,179.57,199.55,178.91,200.76,183.01z"/>
			</g>
			<g>
				<g>
					<rect x="104.6" y="298.84" class="st28" width="9.63" height="136.27"/>
					<rect x="363.05" y="298.84" class="st28" width="9.63" height="136.27"/>
				</g>
				<g>
					<rect x="104.6" y="298.84" class="st29" width="9.63" height="18.21"/>
					<rect x="363.05" y="298.84" class="st29" width="9.63" height="18.21"/>
				</g>
				<rect x="89.64" y="291.63" class="st28" width="298.02" height="10.11"/>
			</g>
			<rect x="182.45" y="54.76" class="st30" width="114.84" height="79.06"/>
			<rect x="182.21" y="55.25" class="st3" width="28.92" height="78.09"/>
			<g>
				<rect x="184.65" y="58.6" class="st10" width="109.21" height="5.61"/>
				<circle class="st19" cx="187.96" cy="61.53" r="1.19"/>
				<circle class="st20" cx="192.42" cy="61.53" r="1.19"/>
				<circle class="st31" cx="196.88" cy="61.53" r="1.19"/>
				<line class="st32" x1="288.65" y1="60.17" x2="292.29" y2="60.17"/>
				<line class="st32" x1="288.65" y1="61.4" x2="292.29" y2="61.4"/>
				<line class="st32" x1="288.65" y1="62.64" x2="292.29" y2="62.64"/>
			</g>
			<line class="st33" x1="192" y1="76.07" x2="199.65" y2="76.07"/>
			<line class="st33" x1="192" y1="82.83" x2="199.65" y2="82.83"/>
			<line class="st33" x1="192" y1="89.59" x2="199.65" y2="89.59"/>
			<line class="st33" x1="196.06" y1="96.35" x2="203.72" y2="96.35"/>
			<line class="st33" x1="192" y1="103.12" x2="199.65" y2="103.12"/>
			<line class="st33" x1="196.06" y1="109.88" x2="203.72" y2="109.88"/>
			<line class="st33" x1="196.06" y1="116.64" x2="203.72" y2="116.64"/>
			<g>
				<g>
					<line class="st34" x1="238.2" y1="69.95" x2="245.31" y2="69.95"/>
					<line class="st35" x1="247.86" y1="69.95" x2="264.2" y2="69.95"/>
					<line class="st36" x1="266.41" y1="69.95" x2="271.93" y2="69.95"/>
					<line class="st37" x1="273.57" y1="69.95" x2="284.15" y2="69.95"/>
					<line class="st37" x1="231.81" y1="75.94" x2="241" y2="75.94"/>
					<line class="st35" x1="243.55" y1="75.94" x2="265.11" y2="75.94"/>
					<line class="st34" x1="267.32" y1="75.94" x2="275.35" y2="75.94"/>
					<line class="st36" x1="277.86" y1="75.94" x2="285.88" y2="75.94"/>
					<line class="st35" x1="233.49" y1="81.94" x2="244.34" y2="81.94"/>
					<line class="st36" x1="246.88" y1="81.94" x2="255.39" y2="81.94"/>
					<line class="st37" x1="257.6" y1="81.94" x2="273.01" y2="81.94"/>
					<line class="st35" x1="275.08" y1="81.94" x2="279.87" y2="81.94"/>
					<line class="st37" x1="228.37" y1="93.92" x2="236.92" y2="93.92"/>
					<line class="st35" x1="239.47" y1="93.92" x2="241.17" y2="93.92"/>
					<line class="st36" x1="243.38" y1="93.92" x2="257.6" y2="93.92"/>
					<line class="st34" x1="259.31" y1="93.92" x2="279.18" y2="93.92"/>
					<line class="st35" x1="265.69" y1="105.91" x2="281.44" y2="105.91"/>
					<line class="st34" x1="233.49" y1="99.92" x2="239.9" y2="99.92"/>
					<line class="st36" x1="242.44" y1="99.92" x2="258.2" y2="99.92"/>
					<line class="st37" x1="260.41" y1="99.92" x2="268.87" y2="99.92"/>
					<line class="st36" x1="271.62" y1="99.92" x2="281.19" y2="99.92"/>
					<line class="st37" x1="234.01" y1="105.91" x2="242.27" y2="105.91"/>
					<line class="st35" x1="244.82" y1="105.91" x2="252.98" y2="105.91"/>
					<line class="st34" x1="255.19" y1="105.91" x2="263.08" y2="105.91"/>
					<line class="st36" x1="246.88" y1="117.17" x2="251.71" y2="117.17"/>
					<line class="st35" x1="254.25" y1="117.17" x2="270.16" y2="117.17"/>
					<line class="st37" x1="272.37" y1="117.17" x2="283.63" y2="117.17"/>
					<line class="st36" x1="239.55" y1="123.16" x2="245.61" y2="123.16"/>
					<line class="st35" x1="248.16" y1="123.16" x2="253.23" y2="123.16"/>
					<line class="st37" x1="255.44" y1="123.16" x2="268.76" y2="123.16"/>
					<line class="st34" x1="271.27" y1="123.16" x2="284.83" y2="123.16"/>
				</g>
				<line class="st38" x1="230.45" y1="69.95" x2="233.17" y2="69.95"/>
				<line class="st38" x1="223.31" y1="75.94" x2="226.03" y2="75.94"/>
				<line class="st38" x1="226.61" y1="81.94" x2="229.33" y2="81.94"/>
				<line class="st38" x1="220.12" y1="87.93" x2="222.84" y2="87.93"/>
				<line class="st38" x1="220.12" y1="93.92" x2="222.84" y2="93.92"/>
				<line class="st38" x1="226.27" y1="99.92" x2="228.99" y2="99.92"/>
				<line class="st38" x1="227.01" y1="105.91" x2="229.74" y2="105.91"/>
				<line class="st38" x1="220.12" y1="111.9" x2="222.84" y2="111.9"/>
				<line class="st38" x1="237.55" y1="117.17" x2="240.28" y2="117.17"/>
				<line class="st38" x1="231.15" y1="123.16" x2="233.87" y2="123.16"/>
			</g>
			<g>
				<rect x="131.53" y="123.3" class="st31" width="53.94" height="37.37"/>
				<text transform="matrix(1 0 0 1 140.1077 151.2227)" class="st10 st39 st40 st41">&lt;/&gt;</text>
			</g>
			<g>
				<rect x="285.88" y="121.55" class="st19" width="39.88" height="23.58"/>
				<g>
					<path class="st10" d="M298.65,133.34c0,1.13-0.92,2.04-2.04,2.04c-1.13,0-2.04-0.91-2.04-2.04c0-1.13,0.92-2.04,2.04-2.04
						C297.74,131.29,298.65,132.21,298.65,133.34z"/>
					<path class="st10" d="M307.87,133.34c0,1.13-0.91,2.04-2.04,2.04c-1.13,0-2.04-0.91-2.04-2.04c0-1.13,0.92-2.04,2.04-2.04
						C306.95,131.29,307.87,132.21,307.87,133.34z"/>
					<path class="st10" d="M317.08,133.34c0,1.13-0.91,2.04-2.04,2.04c-1.13,0-2.04-0.91-2.04-2.04c0-1.13,0.91-2.04,2.04-2.04
						C316.16,131.29,317.08,132.21,317.08,133.34z"/>
				</g>
			</g>
			<path class="st42" d="M108.46,275.67c-7.97-12.07-14.13-22.86-10.54-35.71c0,0,2.57,6.68,7.45,11.56
				c4.88,4.88,12.2,13.14,10.86,22.24C114.89,282.87,108.46,275.67,108.46,275.67z"/>
			<path class="st31" d="M109.49,263.6c-6.82-15.25,0.51-37.89,4.63-41.95c0,0,5.14,12.34,5.91,20.97c0.77,8.64,3.85,20.46,0,28.68
				c-3.85,8.22-7.97,1.03-7.97,1.03L109.49,263.6z"/>
			<path class="st43" d="M117.71,275.25c-1.03-12.42,8.74-23.21,12.59-28.35c0,0,3.19,10.7-0.46,18.73
				c-3.64,8.04-9.82,10.04-9.82,10.04L117.71,275.25z"/>
			<g>
				<g>
					<path class="st20" d="M129.95,271.2c-0.02,7.54-1.57,14.36-2.55,17.94c-0.45,1.66-0.79,2.62-0.79,2.62h-20.31
						c0,0-5.39-10.54-4.36-18.77c3.11-0.77,6.4-1.27,9.59-1.58C121.22,270.46,129.95,271.2,129.95,271.2z"/>
				</g>
			</g>
			<path class="st21" d="M127.4,289.13c-0.45,1.66-0.79,2.62-0.79,2.62h-20.31c0,0-5.39-10.54-4.36-18.77
				c3.11-0.77,6.4-1.27,9.59-1.58C108.74,284.43,120.22,288.5,127.4,289.13z"/>
			<g>
				<g>
					<rect x="236.92" y="184.38" class="st20" width="39.88" height="32.08"/>
				</g>
				<polygon class="st21" points="236.92,200.25 251.75,208.62 267.12,194.45 276.79,200.94 276.79,216.45 236.92,216.45 				"/>
				<circle class="st10" cx="250.82" cy="196.43" r="3.82"/>
			</g>
		</g>
	</g>
</g>
</svg>
