<?xml version="1.0" encoding="utf-8"?>
<!-- Generator: Adobe Illustrator 23.0.5, SVG Export Plug-In . SVG Version: 6.00 Build 0)  -->
<svg version="1.1" id="Calque_1" xmlns="http://www.w3.org/2000/svg" xmlns:xlink="http://www.w3.org/1999/xlink" x="0px" y="0px"
	 viewBox="0 0 750 500" style="enable-background:new 0 0 750 500;" xml:space="preserve">
<style type="text/css">
	.st0{display:none;opacity:0.45;fill:#FFFFFF;stroke:#000000;stroke-miterlimit:10;}
	.st1{opacity:0.45;}
	.st2{opacity:0.14;}
	.st3{clip-path:url(#SVGID_2_);fill:url(#SVGID_3_);}
	.st4{opacity:0.5;clip-path:url(#SVGID_5_);fill:url(#SVGID_6_);enable-background:new    ;}
	.st5{display:none;}
	.st6{display:inline;}
	.st7{display:inline;opacity:0.5;clip-path:url(#SVGID_8_);fill:url(#SVGID_9_);enable-background:new    ;}
	.st8{display:inline;opacity:0.25;clip-path:url(#SVGID_11_);fill:url(#SVGID_12_);enable-background:new    ;}
	.st9{clip-path:url(#SVGID_14_);fill:url(#SVGID_15_);}
	.st10{opacity:0.5;clip-path:url(#SVGID_17_);}
	.st11{fill:none;stroke:#638DFF;stroke-width:2;stroke-miterlimit:10;}
	.st12{fill:none;stroke:#638DFF;stroke-width:1.796;stroke-miterlimit:10;}
	.st13{fill:none;stroke:#638DFF;stroke-width:1.592;stroke-miterlimit:10;}
	.st14{fill:none;stroke:#638DFF;stroke-width:1.388;stroke-miterlimit:10;}
	.st15{fill:none;stroke:#638DFF;stroke-width:1.184;stroke-miterlimit:10;}
	.st16{fill:none;stroke:#638DFF;stroke-width:0.9799;stroke-miterlimit:10;}
	.st17{fill:none;stroke:#638DFF;stroke-width:0.7759;stroke-miterlimit:10;}
	.st18{fill:none;stroke:#638DFF;stroke-width:0.5719;stroke-miterlimit:10;}
	.st19{fill:none;stroke:#638DFF;stroke-width:0.3679;stroke-miterlimit:10;}
	.st20{display:inline;opacity:0.5;clip-path:url(#SVGID_19_);}
	.st21{fill:none;stroke:#638DFF;stroke-width:2.6362;stroke-miterlimit:10;}
	.st22{fill:none;stroke:#638DFF;stroke-width:2.3673;stroke-miterlimit:10;}
	.st23{fill:none;stroke:#638DFF;stroke-width:2.0984;stroke-miterlimit:10;}
	.st24{fill:none;stroke:#638DFF;stroke-width:1.8295;stroke-miterlimit:10;}
	.st25{fill:none;stroke:#638DFF;stroke-width:1.5606;stroke-miterlimit:10;}
	.st26{fill:none;stroke:#638DFF;stroke-width:1.2917;stroke-miterlimit:10;}
	.st27{fill:none;stroke:#638DFF;stroke-width:1.0228;stroke-miterlimit:10;}
	.st28{fill:none;stroke:#638DFF;stroke-width:0.7539;stroke-miterlimit:10;}
	.st29{fill:none;stroke:#638DFF;stroke-width:0.485;stroke-miterlimit:10;}
	.st30{display:inline;opacity:0.5;clip-path:url(#SVGID_21_);}
	.st31{fill:none;stroke:#638DFF;stroke-width:1.5;stroke-miterlimit:10;}
	.st32{fill:none;stroke:#638DFF;stroke-width:1.3454;stroke-miterlimit:10;}
	.st33{fill:none;stroke:#638DFF;stroke-width:1.1907;stroke-miterlimit:10;}
	.st34{fill:none;stroke:#638DFF;stroke-width:1.036;stroke-miterlimit:10;}
	.st35{fill:none;stroke:#638DFF;stroke-width:0.8814;stroke-miterlimit:10;}
	.st36{fill:none;stroke:#638DFF;stroke-width:0.7268;stroke-miterlimit:10;}
	.st37{fill:none;stroke:#638DFF;stroke-width:0.5721;stroke-miterlimit:10;}
	.st38{fill:none;stroke:#638DFF;stroke-width:0.4175;stroke-miterlimit:10;}
	.st39{fill:none;stroke:#638DFF;stroke-width:0.2628;stroke-miterlimit:10;}
	.st40{opacity:0.5;clip-path:url(#SVGID_23_);}
	.st41{fill:none;stroke:#638DFF;stroke-width:0.1477;stroke-miterlimit:10;}
	.st42{fill:none;stroke:#638DFF;stroke-width:0.1997;stroke-miterlimit:10;}
	.st43{fill:none;stroke:#638DFF;stroke-width:0.2517;stroke-miterlimit:10;}
	.st44{fill:none;stroke:#638DFF;stroke-width:0.3037;stroke-miterlimit:10;}
	.st45{fill:none;stroke:#638DFF;stroke-width:0.3557;stroke-miterlimit:10;}
	.st46{fill:none;stroke:#638DFF;stroke-width:0.4077;stroke-miterlimit:10;}
	.st47{fill:none;stroke:#638DFF;stroke-width:0.4597;stroke-miterlimit:10;}
	.st48{fill:none;stroke:#638DFF;stroke-width:0.5117;stroke-miterlimit:10;}
	.st49{fill:none;stroke:#638DFF;stroke-width:0.5637;stroke-miterlimit:10;}
	.st50{fill:none;stroke:#638DFF;stroke-width:0.6157;stroke-miterlimit:10;}
	.st51{fill:none;stroke:#638DFF;stroke-width:0.6677;stroke-miterlimit:10;}
	.st52{fill:none;stroke:#638DFF;stroke-width:0.7197;stroke-miterlimit:10;}
	.st53{fill:none;stroke:#638DFF;stroke-width:0.7717;stroke-miterlimit:10;}
	.st54{fill:none;stroke:#638DFF;stroke-width:0.8237;stroke-miterlimit:10;}
	.st55{fill:none;stroke:#638DFF;stroke-width:0.8756;stroke-miterlimit:10;}
	.st56{fill:none;stroke:#638DFF;stroke-width:0.9276;stroke-miterlimit:10;}
	.st57{fill:none;stroke:#638DFF;stroke-width:0.9796;stroke-miterlimit:10;}
	.st58{fill:none;stroke:#638DFF;stroke-width:1.0316;stroke-miterlimit:10;}
	.st59{fill:none;stroke:#638DFF;stroke-width:1.0836;stroke-miterlimit:10;}
	.st60{fill:none;stroke:#638DFF;stroke-width:1.1356;stroke-miterlimit:10;}
	.st61{fill:none;stroke:#638DFF;stroke-width:1.1876;stroke-miterlimit:10;}
	.st62{fill:none;stroke:#638DFF;stroke-width:1.2396;stroke-miterlimit:10;}
	.st63{fill:none;stroke:#638DFF;stroke-width:1.2916;stroke-miterlimit:10;}
	.st64{fill:none;stroke:#638DFF;stroke-width:1.3436;stroke-miterlimit:10;}
	.st65{fill:none;stroke:#638DFF;stroke-width:1.3956;stroke-miterlimit:10;}
	.st66{fill:none;stroke:#638DFF;stroke-width:1.4476;stroke-miterlimit:10;}
	.st67{fill:none;stroke:#638DFF;stroke-width:1.4995;stroke-miterlimit:10;}
	.st68{fill:none;stroke:#638DFF;stroke-width:1.5516;stroke-miterlimit:10;}
	.st69{fill:none;stroke:#638DFF;stroke-width:1.6035;stroke-miterlimit:10;}
	.st70{fill:none;stroke:#638DFF;stroke-width:1.6555;stroke-miterlimit:10;}
	.st71{fill:none;stroke:#638DFF;stroke-width:1.7075;stroke-miterlimit:10;}
	.st72{fill:none;stroke:#638DFF;stroke-width:1.7595;stroke-miterlimit:10;}
	.st73{fill:none;stroke:#638DFF;stroke-width:1.8115;stroke-miterlimit:10;}
	.st74{fill:none;stroke:#638DFF;stroke-width:1.8635;stroke-miterlimit:10;}
	.st75{fill:none;stroke:#638DFF;stroke-width:1.9155;stroke-miterlimit:10;}
	.st76{fill:none;stroke:#638DFF;stroke-width:1.9675;stroke-miterlimit:10;}
	.st77{fill:none;stroke:#638DFF;stroke-width:2.0195;stroke-miterlimit:10;}
	.st78{fill:none;stroke:#638DFF;stroke-width:2.0715;stroke-miterlimit:10;}
	.st79{fill:none;stroke:#638DFF;stroke-width:2.1235;stroke-miterlimit:10;}
	.st80{fill:none;stroke:#638DFF;stroke-width:2.1755;stroke-miterlimit:10;}
	.st81{fill:none;stroke:#638DFF;stroke-width:2.2274;stroke-miterlimit:10;}
	.st82{fill:none;stroke:#638DFF;stroke-width:2.2794;stroke-miterlimit:10;}
	.st83{fill:none;stroke:#638DFF;stroke-width:2.3314;stroke-miterlimit:10;}
	.st84{fill:none;stroke:#638DFF;stroke-width:2.3834;stroke-miterlimit:10;}
	.st85{fill:none;stroke:#638DFF;stroke-width:2.4354;stroke-miterlimit:10;}
	.st86{fill:none;stroke:#638DFF;stroke-width:2.4874;stroke-miterlimit:10;}
	.st87{fill:none;stroke:#638DFF;stroke-width:2.5394;stroke-miterlimit:10;}
	.st88{fill:none;stroke:#638DFF;stroke-width:2.5914;stroke-miterlimit:10;}
	.st89{fill:none;stroke:#638DFF;stroke-width:2.6434;stroke-miterlimit:10;}
	.st90{fill:none;stroke:#638DFF;stroke-width:2.6954;stroke-miterlimit:10;}
	.st91{fill:none;stroke:#638DFF;stroke-width:2.7474;stroke-miterlimit:10;}
	.st92{fill:none;stroke:#638DFF;stroke-width:2.7994;stroke-miterlimit:10;}
	.st93{opacity:0.5;clip-path:url(#SVGID_25_);}
	.st94{clip-path:url(#SVGID_27_);fill:url(#SVGID_28_);}
	.st95{clip-path:url(#SVGID_30_);fill:url(#SVGID_31_);}
	.st96{clip-path:url(#SVGID_33_);fill:url(#SVGID_34_);}
	.st97{clip-path:url(#SVGID_36_);fill:url(#SVGID_37_);}
	.st98{clip-path:url(#SVGID_39_);fill:url(#SVGID_40_);}
	.st99{clip-path:url(#SVGID_42_);fill:url(#SVGID_43_);}
	.st100{clip-path:url(#SVGID_45_);fill:url(#SVGID_46_);}
	.st101{clip-path:url(#SVGID_48_);fill:url(#SVGID_49_);}
	.st102{clip-path:url(#SVGID_51_);fill:url(#SVGID_52_);}
	.st103{display:inline;clip-path:url(#SVGID_54_);fill:url(#SVGID_55_);}
	.st104{clip-path:url(#SVGID_57_);fill:none;stroke:#638DFF;stroke-width:3;stroke-miterlimit:10;}
	.st105{clip-path:url(#SVGID_59_);fill:none;stroke:#638DFF;stroke-width:2;stroke-miterlimit:10;}
	.st106{clip-path:url(#SVGID_61_);fill:none;stroke:#638DFF;stroke-width:2.9568;stroke-miterlimit:10;}
	.st107{clip-path:url(#SVGID_63_);}
	.st108{fill:url(#SVGID_64_);}
	.st109{clip-path:url(#SVGID_66_);}
	.st110{fill:url(#SVGID_67_);}
	.st111{opacity:0.5;clip-path:url(#SVGID_69_);}
</style>
<rect class="st0" width="750" height="500"/>
<g id="OBJECTS" class="st1">
	<g>
		<g class="st2">
			<defs>
				<rect id="SVGID_1_" y="0" class="st2" width="750" height="500"/>
			</defs>
			<clipPath id="SVGID_2_">
				<use xlink:href="#SVGID_1_"  style="overflow:visible;"/>
			</clipPath>
			
				<linearGradient id="SVGID_3_" gradientUnits="userSpaceOnUse" x1="-56.9993" y1="-243.0273" x2="140.2927" y2="-45.7353" gradientTransform="matrix(1 0 0 -1 603.1543 -94.1142)">
				<stop  offset="0" style="stop-color:#638DFF;stop-opacity:0"/>
				<stop  offset="1" style="stop-color:#001659"/>
			</linearGradient>
			<path class="st3" d="M619-83.4c-1,0-1.9-0.8-1.9-1.9c0-1,0.8-1.9,1.9-1.9c1,0,1.9,0.8,1.9,1.9C620.9-84.2,620.1-83.4,619-83.4z
				 M639.6-85.3c0-1-0.8-1.9-1.9-1.9c-1,0-1.9,0.8-1.9,1.9c0,1,0.8,1.9,1.9,1.9C638.8-83.4,639.6-84.2,639.6-85.3z M658.3-85.3
				c0-1-0.8-1.9-1.9-1.9c-1,0-1.9,0.8-1.9,1.9c0,1,0.8,1.9,1.9,1.9C657.5-83.4,658.3-84.2,658.3-85.3z M677.1-85.3
				c0-1-0.8-1.9-1.9-1.9c-1,0-1.9,0.8-1.9,1.9c0,1,0.8,1.9,1.9,1.9C676.3-83.4,677.1-84.2,677.1-85.3z M592.8-73.4
				c0-1-0.8-1.9-1.9-1.9c-1,0-1.9,0.8-1.9,1.9c0,1,0.8,1.9,1.9,1.9C592-71.5,592.8-72.3,592.8-73.4z M611.5-73.4
				c0-1-0.8-1.9-1.9-1.9c-1,0-1.9,0.8-1.9,1.9c0,1,0.8,1.9,1.9,1.9C610.7-71.5,611.5-72.3,611.5-73.4z M630.3-73.4
				c0-1-0.8-1.9-1.9-1.9c-1,0-1.9,0.8-1.9,1.9c0,1,0.8,1.9,1.9,1.9C629.4-71.5,630.3-72.3,630.3-73.4z M649-73.4
				c0-1-0.8-1.9-1.9-1.9c-1,0-1.9,0.8-1.9,1.9c0,1,0.8,1.9,1.9,1.9C648.2-71.5,649-72.3,649-73.4z M667.7-73.4c0-1-0.8-1.9-1.9-1.9
				c-1,0-1.9,0.8-1.9,1.9c0,1,0.8,1.9,1.9,1.9C666.9-71.5,667.7-72.3,667.7-73.4z M686.5-73.4c0-1-0.8-1.9-1.9-1.9
				c-1,0-1.9,0.8-1.9,1.9c0,1,0.8,1.9,1.9,1.9C685.6-71.5,686.5-72.3,686.5-73.4z M705.2-73.4c0-1-0.8-1.9-1.9-1.9
				c-1,0-1.9,0.8-1.9,1.9c0,1,0.8,1.9,1.9,1.9C704.3-71.5,705.2-72.3,705.2-73.4z M564.7-61.5c0-1-0.8-1.9-1.9-1.9
				c-1,0-1.9,0.8-1.9,1.9s0.8,1.9,1.9,1.9C563.9-59.6,564.7-60.5,564.7-61.5z M583.4-61.5c0-1-0.8-1.9-1.9-1.9c-1,0-1.9,0.8-1.9,1.9
				s0.8,1.9,1.9,1.9C582.6-59.6,583.4-60.5,583.4-61.5z M602.2-61.5c0-1-0.8-1.9-1.9-1.9c-1,0-1.9,0.8-1.9,1.9s0.8,1.9,1.9,1.9
				C601.3-59.6,602.2-60.5,602.2-61.5z M620.9-61.5c0-1-0.8-1.9-1.9-1.9c-1,0-1.9,0.8-1.9,1.9s0.8,1.9,1.9,1.9
				C620.1-59.6,620.9-60.5,620.9-61.5z M639.6-61.5c0-1-0.8-1.9-1.9-1.9c-1,0-1.9,0.8-1.9,1.9s0.8,1.9,1.9,1.9
				C638.8-59.6,639.6-60.5,639.6-61.5z M658.3-61.5c0-1-0.8-1.9-1.9-1.9c-1,0-1.9,0.8-1.9,1.9s0.8,1.9,1.9,1.9
				C657.5-59.6,658.3-60.5,658.3-61.5z M677.1-61.5c0-1-0.8-1.9-1.9-1.9c-1,0-1.9,0.8-1.9,1.9s0.8,1.9,1.9,1.9
				C676.3-59.6,677.1-60.5,677.1-61.5z M695.8-61.5c0-1-0.8-1.9-1.9-1.9c-1,0-1.9,0.8-1.9,1.9s0.8,1.9,1.9,1.9
				C695-59.6,695.8-60.5,695.8-61.5z M714.5-61.5c0-1-0.8-1.9-1.9-1.9c-1,0-1.9,0.8-1.9,1.9s0.8,1.9,1.9,1.9
				C713.7-59.6,714.5-60.5,714.5-61.5z M733.3-61.5c0-1-0.8-1.9-1.9-1.9c-1,0-1.9,0.8-1.9,1.9s0.8,1.9,1.9,1.9
				C732.4-59.6,733.3-60.5,733.3-61.5z M555.3-49.6c0-1-0.8-1.9-1.9-1.9c-1,0-1.9,0.8-1.9,1.9s0.8,1.9,1.9,1.9
				S555.3-48.6,555.3-49.6z M574.1-49.6c0-1-0.8-1.9-1.9-1.9c-1,0-1.9,0.8-1.9,1.9s0.8,1.9,1.9,1.9S574.1-48.6,574.1-49.6z
				 M592.8-49.6c0-1-0.8-1.9-1.9-1.9c-1,0-1.9,0.8-1.9,1.9s0.8,1.9,1.9,1.9C592-47.8,592.8-48.6,592.8-49.6z M611.5-49.6
				c0-1-0.8-1.9-1.9-1.9c-1,0-1.9,0.8-1.9,1.9s0.8,1.9,1.9,1.9C610.7-47.8,611.5-48.6,611.5-49.6z M630.3-49.6c0-1-0.8-1.9-1.9-1.9
				c-1,0-1.9,0.8-1.9,1.9s0.8,1.9,1.9,1.9S630.3-48.6,630.3-49.6z M649-49.6c0-1-0.8-1.9-1.9-1.9c-1,0-1.9,0.8-1.9,1.9
				s0.8,1.9,1.9,1.9C648.2-47.8,649-48.6,649-49.6z M667.7-49.6c0-1-0.8-1.9-1.9-1.9c-1,0-1.9,0.8-1.9,1.9s0.8,1.9,1.9,1.9
				C666.9-47.8,667.7-48.6,667.7-49.6z M686.5-49.6c0-1-0.8-1.9-1.9-1.9c-1,0-1.9,0.8-1.9,1.9s0.8,1.9,1.9,1.9
				S686.5-48.6,686.5-49.6z M705.2-49.6c0-1-0.8-1.9-1.9-1.9c-1,0-1.9,0.8-1.9,1.9s0.8,1.9,1.9,1.9
				C704.3-47.8,705.2-48.6,705.2-49.6z M723.9-49.6c0-1-0.8-1.9-1.9-1.9c-1,0-1.9,0.8-1.9,1.9s0.8,1.9,1.9,1.9
				C723.1-47.8,723.9-48.6,723.9-49.6z M742.6-49.6c0-1-0.8-1.9-1.9-1.9c-1,0-1.9,0.8-1.9,1.9s0.8,1.9,1.9,1.9
				C741.8-47.8,742.6-48.6,742.6-49.6z M546-37.7c0-1-0.8-1.9-1.9-1.9c-1,0-1.9,0.8-1.9,1.9c0,1,0.8,1.9,1.9,1.9
				C545.1-35.9,546-36.7,546-37.7z M564.7-37.7c0-1-0.8-1.9-1.9-1.9c-1,0-1.9,0.8-1.9,1.9c0,1,0.8,1.9,1.9,1.9
				C563.9-35.9,564.7-36.7,564.7-37.7z M583.4-37.7c0-1-0.8-1.9-1.9-1.9c-1,0-1.9,0.8-1.9,1.9c0,1,0.8,1.9,1.9,1.9
				C582.6-35.9,583.4-36.7,583.4-37.7z M602.2-37.7c0-1-0.8-1.9-1.9-1.9c-1,0-1.9,0.8-1.9,1.9c0,1,0.8,1.9,1.9,1.9
				C601.3-35.9,602.2-36.7,602.2-37.7z M620.9-37.7c0-1-0.8-1.9-1.9-1.9c-1,0-1.9,0.8-1.9,1.9c0,1,0.8,1.9,1.9,1.9
				S620.9-36.7,620.9-37.7z M639.6-37.7c0-1-0.8-1.9-1.9-1.9c-1,0-1.9,0.8-1.9,1.9c0,1,0.8,1.9,1.9,1.9
				C638.8-35.9,639.6-36.7,639.6-37.7z M658.3-37.7c0-1-0.8-1.9-1.9-1.9c-1,0-1.9,0.8-1.9,1.9c0,1,0.8,1.9,1.9,1.9
				C657.5-35.9,658.3-36.7,658.3-37.7z M677.1-37.7c0-1-0.8-1.9-1.9-1.9c-1,0-1.9,0.8-1.9,1.9c0,1,0.8,1.9,1.9,1.9
				C676.3-35.9,677.1-36.7,677.1-37.7z M695.8-37.7c0-1-0.8-1.9-1.9-1.9c-1,0-1.9,0.8-1.9,1.9c0,1,0.8,1.9,1.9,1.9
				C695-35.9,695.8-36.7,695.8-37.7z M714.5-37.7c0-1-0.8-1.9-1.9-1.9c-1,0-1.9,0.8-1.9,1.9c0,1,0.8,1.9,1.9,1.9
				C713.7-35.9,714.5-36.7,714.5-37.7z M733.3-37.7c0-1-0.8-1.9-1.9-1.9c-1,0-1.9,0.8-1.9,1.9c0,1,0.8,1.9,1.9,1.9
				C732.4-35.9,733.3-36.7,733.3-37.7z M752-37.7c0-1-0.8-1.9-1.9-1.9c-1,0-1.9,0.8-1.9,1.9c0,1,0.8,1.9,1.9,1.9
				C751.2-35.9,752-36.7,752-37.7z M536.6-25.9c0-1-0.8-1.9-1.9-1.9c-1,0-1.9,0.8-1.9,1.9c0,1,0.8,1.9,1.9,1.9
				C535.8-24,536.6-24.8,536.6-25.9z M555.3-25.9c0-1-0.8-1.9-1.9-1.9c-1,0-1.9,0.8-1.9,1.9c0,1,0.8,1.9,1.9,1.9
				S555.3-24.8,555.3-25.9z M574.1-25.9c0-1-0.8-1.9-1.9-1.9c-1,0-1.9,0.8-1.9,1.9c0,1,0.8,1.9,1.9,1.9S574.1-24.8,574.1-25.9z
				 M592.8-25.9c0-1-0.8-1.9-1.9-1.9c-1,0-1.9,0.8-1.9,1.9c0,1,0.8,1.9,1.9,1.9C592-24,592.8-24.8,592.8-25.9z M611.5-25.9
				c0-1-0.8-1.9-1.9-1.9c-1,0-1.9,0.8-1.9,1.9c0,1,0.8,1.9,1.9,1.9C610.7-24,611.5-24.8,611.5-25.9z M630.3-25.9
				c0-1-0.8-1.9-1.9-1.9c-1,0-1.9,0.8-1.9,1.9c0,1,0.8,1.9,1.9,1.9S630.3-24.8,630.3-25.9z M649-25.9c0-1-0.8-1.9-1.9-1.9
				c-1,0-1.9,0.8-1.9,1.9c0,1,0.8,1.9,1.9,1.9C648.2-24,649-24.8,649-25.9z M667.7-25.9c0-1-0.8-1.9-1.9-1.9c-1,0-1.9,0.8-1.9,1.9
				c0,1,0.8,1.9,1.9,1.9C666.9-24,667.7-24.8,667.7-25.9z M686.5-25.9c0-1-0.8-1.9-1.9-1.9c-1,0-1.9,0.8-1.9,1.9
				c0,1,0.8,1.9,1.9,1.9S686.5-24.8,686.5-25.9z M705.2-25.9c0-1-0.8-1.9-1.9-1.9c-1,0-1.9,0.8-1.9,1.9c0,1,0.8,1.9,1.9,1.9
				C704.3-24,705.2-24.8,705.2-25.9z M723.9-25.9c0-1-0.8-1.9-1.9-1.9c-1,0-1.9,0.8-1.9,1.9c0,1,0.8,1.9,1.9,1.9
				C723.1-24,723.9-24.8,723.9-25.9z M742.6-25.9c0-1-0.8-1.9-1.9-1.9c-1,0-1.9,0.8-1.9,1.9c0,1,0.8,1.9,1.9,1.9
				C741.8-24,742.6-24.8,742.6-25.9z M761.4-25.9c0-1-0.8-1.9-1.9-1.9c-1,0-1.9,0.8-1.9,1.9c0,1,0.8,1.9,1.9,1.9
				C760.5-24,761.4-24.8,761.4-25.9z M527.3-14c0-1-0.8-1.9-1.9-1.9c-1,0-1.9,0.8-1.9,1.9s0.8,1.9,1.9,1.9S527.3-12.9,527.3-14z
				 M546-14c0-1-0.8-1.9-1.9-1.9c-1,0-1.9,0.8-1.9,1.9s0.8,1.9,1.9,1.9C545.1-12.1,546-12.9,546-14z M564.7-14c0-1-0.8-1.9-1.9-1.9
				c-1,0-1.9,0.8-1.9,1.9s0.8,1.9,1.9,1.9C563.9-12.1,564.7-12.9,564.7-14z M583.4-14c0-1-0.8-1.9-1.9-1.9c-1,0-1.9,0.8-1.9,1.9
				s0.8,1.9,1.9,1.9C582.6-12.1,583.4-12.9,583.4-14z M602.2-14c0-1-0.8-1.9-1.9-1.9c-1,0-1.9,0.8-1.9,1.9s0.8,1.9,1.9,1.9
				C601.3-12.1,602.2-12.9,602.2-14z M620.9-14c0-1-0.8-1.9-1.9-1.9c-1,0-1.9,0.8-1.9,1.9s0.8,1.9,1.9,1.9S620.9-12.9,620.9-14z
				 M639.6-14c0-1-0.8-1.9-1.9-1.9c-1,0-1.9,0.8-1.9,1.9s0.8,1.9,1.9,1.9C638.8-12.1,639.6-12.9,639.6-14z M658.3-14
				c0-1-0.8-1.9-1.9-1.9c-1,0-1.9,0.8-1.9,1.9s0.8,1.9,1.9,1.9C657.5-12.1,658.3-12.9,658.3-14z M677.1-14c0-1-0.8-1.9-1.9-1.9
				c-1,0-1.9,0.8-1.9,1.9s0.8,1.9,1.9,1.9C676.3-12.1,677.1-12.9,677.1-14z M695.8-14c0-1-0.8-1.9-1.9-1.9c-1,0-1.9,0.8-1.9,1.9
				s0.8,1.9,1.9,1.9C695-12.1,695.8-12.9,695.8-14z M714.5-14c0-1-0.8-1.9-1.9-1.9c-1,0-1.9,0.8-1.9,1.9s0.8,1.9,1.9,1.9
				C713.7-12.1,714.5-12.9,714.5-14z M733.3-14c0-1-0.8-1.9-1.9-1.9c-1,0-1.9,0.8-1.9,1.9s0.8,1.9,1.9,1.9
				C732.4-12.1,733.3-12.9,733.3-14z M752-14c0-1-0.8-1.9-1.9-1.9c-1,0-1.9,0.8-1.9,1.9s0.8,1.9,1.9,1.9C751.2-12.1,752-12.9,752-14
				z M770.7-14c0-1-0.8-1.9-1.9-1.9c-1,0-1.9,0.8-1.9,1.9s0.8,1.9,1.9,1.9C769.9-12.1,770.7-12.9,770.7-14z M517.9-2.1
				c0-1-0.8-1.9-1.9-1.9c-1,0-1.9,0.8-1.9,1.9s0.8,1.9,1.9,1.9C517-0.2,517.9-1.1,517.9-2.1z M536.6-2.1c0-1-0.8-1.9-1.9-1.9
				c-1,0-1.9,0.8-1.9,1.9s0.8,1.9,1.9,1.9C535.8-0.2,536.6-1.1,536.6-2.1z M555.3-2.1c0-1-0.8-1.9-1.9-1.9c-1,0-1.9,0.8-1.9,1.9
				s0.8,1.9,1.9,1.9C554.5-0.2,555.3-1.1,555.3-2.1z M574.1-2.1c0-1-0.8-1.9-1.9-1.9c-1,0-1.9,0.8-1.9,1.9s0.8,1.9,1.9,1.9
				C573.2-0.2,574.1-1.1,574.1-2.1z M592.8-2.1c0-1-0.8-1.9-1.9-1.9c-1,0-1.9,0.8-1.9,1.9s0.8,1.9,1.9,1.9
				C592-0.2,592.8-1.1,592.8-2.1z M611.5-2.1c0-1-0.8-1.9-1.9-1.9c-1,0-1.9,0.8-1.9,1.9s0.8,1.9,1.9,1.9
				C610.7-0.2,611.5-1.1,611.5-2.1z M630.3-2.1c0-1-0.8-1.9-1.9-1.9c-1,0-1.9,0.8-1.9,1.9s0.8,1.9,1.9,1.9
				C629.4-0.2,630.3-1.1,630.3-2.1z M649-2.1c0-1-0.8-1.9-1.9-1.9c-1,0-1.9,0.8-1.9,1.9s0.8,1.9,1.9,1.9C648.2-0.2,649-1.1,649-2.1z
				 M667.7-2.1c0-1-0.8-1.9-1.9-1.9c-1,0-1.9,0.8-1.9,1.9s0.8,1.9,1.9,1.9C666.9-0.2,667.7-1.1,667.7-2.1z M686.5-2.1
				c0-1-0.8-1.9-1.9-1.9c-1,0-1.9,0.8-1.9,1.9s0.8,1.9,1.9,1.9C685.6-0.2,686.5-1.1,686.5-2.1z M705.2-2.1c0-1-0.8-1.9-1.9-1.9
				c-1,0-1.9,0.8-1.9,1.9s0.8,1.9,1.9,1.9C704.3-0.2,705.2-1.1,705.2-2.1z M723.9-2.1c0-1-0.8-1.9-1.9-1.9c-1,0-1.9,0.8-1.9,1.9
				s0.8,1.9,1.9,1.9C723.1-0.2,723.9-1.1,723.9-2.1z M742.6-2.1c0-1-0.8-1.9-1.9-1.9c-1,0-1.9,0.8-1.9,1.9s0.8,1.9,1.9,1.9
				C741.8-0.2,742.6-1.1,742.6-2.1z M761.4-2.1c0-1-0.8-1.9-1.9-1.9c-1,0-1.9,0.8-1.9,1.9s0.8,1.9,1.9,1.9
				C760.5-0.2,761.4-1.1,761.4-2.1z M780.1-2.1c0-1-0.8-1.9-1.9-1.9c-1,0-1.9,0.8-1.9,1.9s0.8,1.9,1.9,1.9
				C779.3-0.2,780.1-1.1,780.1-2.1z M527.3,9.8c0-1-0.8-1.9-1.9-1.9c-1,0-1.9,0.8-1.9,1.9s0.8,1.9,1.9,1.9S527.3,10.8,527.3,9.8z
				 M546,9.8c0-1-0.8-1.9-1.9-1.9c-1,0-1.9,0.8-1.9,1.9s0.8,1.9,1.9,1.9C545.1,11.7,546,10.8,546,9.8z M564.7,9.8
				c0-1-0.8-1.9-1.9-1.9c-1,0-1.9,0.8-1.9,1.9s0.8,1.9,1.9,1.9C563.9,11.7,564.7,10.8,564.7,9.8z M583.4,9.8c0-1-0.8-1.9-1.9-1.9
				c-1,0-1.9,0.8-1.9,1.9s0.8,1.9,1.9,1.9C582.6,11.7,583.4,10.8,583.4,9.8z M602.2,9.8c0-1-0.8-1.9-1.9-1.9c-1,0-1.9,0.8-1.9,1.9
				s0.8,1.9,1.9,1.9C601.3,11.7,602.2,10.8,602.2,9.8z M620.9,9.8c0-1-0.8-1.9-1.9-1.9c-1,0-1.9,0.8-1.9,1.9s0.8,1.9,1.9,1.9
				S620.9,10.8,620.9,9.8z M639.6,9.8c0-1-0.8-1.9-1.9-1.9c-1,0-1.9,0.8-1.9,1.9s0.8,1.9,1.9,1.9C638.8,11.7,639.6,10.8,639.6,9.8z
				 M658.3,9.8c0-1-0.8-1.9-1.9-1.9c-1,0-1.9,0.8-1.9,1.9s0.8,1.9,1.9,1.9C657.5,11.7,658.3,10.8,658.3,9.8z M677.1,9.8
				c0-1-0.8-1.9-1.9-1.9c-1,0-1.9,0.8-1.9,1.9s0.8,1.9,1.9,1.9C676.3,11.7,677.1,10.8,677.1,9.8z M695.8,9.8c0-1-0.8-1.9-1.9-1.9
				c-1,0-1.9,0.8-1.9,1.9s0.8,1.9,1.9,1.9C695,11.7,695.8,10.8,695.8,9.8z M714.5,9.8c0-1-0.8-1.9-1.9-1.9c-1,0-1.9,0.8-1.9,1.9
				s0.8,1.9,1.9,1.9C713.7,11.7,714.5,10.8,714.5,9.8z M733.3,9.8c0-1-0.8-1.9-1.9-1.9c-1,0-1.9,0.8-1.9,1.9s0.8,1.9,1.9,1.9
				C732.4,11.7,733.3,10.8,733.3,9.8z M752,9.8c0-1-0.8-1.9-1.9-1.9c-1,0-1.9,0.8-1.9,1.9s0.8,1.9,1.9,1.9
				C751.2,11.7,752,10.8,752,9.8z M770.7,9.8c0-1-0.8-1.9-1.9-1.9c-1,0-1.9,0.8-1.9,1.9s0.8,1.9,1.9,1.9
				C769.9,11.7,770.7,10.8,770.7,9.8z M517.9,21.7c0-1-0.8-1.9-1.9-1.9c-1,0-1.9,0.8-1.9,1.9s0.8,1.9,1.9,1.9
				C517,23.5,517.9,22.7,517.9,21.7z M536.6,21.7c0-1-0.8-1.9-1.9-1.9c-1,0-1.9,0.8-1.9,1.9s0.8,1.9,1.9,1.9
				C535.8,23.5,536.6,22.7,536.6,21.7z M555.3,21.7c0-1-0.8-1.9-1.9-1.9c-1,0-1.9,0.8-1.9,1.9s0.8,1.9,1.9,1.9
				S555.3,22.7,555.3,21.7z M574.1,21.7c0-1-0.8-1.9-1.9-1.9c-1,0-1.9,0.8-1.9,1.9s0.8,1.9,1.9,1.9S574.1,22.7,574.1,21.7z
				 M592.8,21.7c0-1-0.8-1.9-1.9-1.9c-1,0-1.9,0.8-1.9,1.9s0.8,1.9,1.9,1.9C592,23.5,592.8,22.7,592.8,21.7z M611.5,21.7
				c0-1-0.8-1.9-1.9-1.9c-1,0-1.9,0.8-1.9,1.9s0.8,1.9,1.9,1.9C610.7,23.5,611.5,22.7,611.5,21.7z M630.3,21.7c0-1-0.8-1.9-1.9-1.9
				c-1,0-1.9,0.8-1.9,1.9s0.8,1.9,1.9,1.9S630.3,22.7,630.3,21.7z M649,21.7c0-1-0.8-1.9-1.9-1.9c-1,0-1.9,0.8-1.9,1.9
				s0.8,1.9,1.9,1.9C648.2,23.5,649,22.7,649,21.7z M667.7,21.7c0-1-0.8-1.9-1.9-1.9c-1,0-1.9,0.8-1.9,1.9s0.8,1.9,1.9,1.9
				C666.9,23.5,667.7,22.7,667.7,21.7z M686.5,21.7c0-1-0.8-1.9-1.9-1.9c-1,0-1.9,0.8-1.9,1.9s0.8,1.9,1.9,1.9
				S686.5,22.7,686.5,21.7z M705.2,21.7c0-1-0.8-1.9-1.9-1.9c-1,0-1.9,0.8-1.9,1.9s0.8,1.9,1.9,1.9
				C704.3,23.5,705.2,22.7,705.2,21.7z M723.9,21.7c0-1-0.8-1.9-1.9-1.9c-1,0-1.9,0.8-1.9,1.9s0.8,1.9,1.9,1.9
				C723.1,23.5,723.9,22.7,723.9,21.7z M742.6,21.7c0-1-0.8-1.9-1.9-1.9c-1,0-1.9,0.8-1.9,1.9s0.8,1.9,1.9,1.9
				C741.8,23.5,742.6,22.7,742.6,21.7z M761.4,21.7c0-1-0.8-1.9-1.9-1.9c-1,0-1.9,0.8-1.9,1.9s0.8,1.9,1.9,1.9
				C760.5,23.5,761.4,22.7,761.4,21.7z M780.1,21.7c0-1-0.8-1.9-1.9-1.9c-1,0-1.9,0.8-1.9,1.9s0.8,1.9,1.9,1.9
				C779.3,23.5,780.1,22.7,780.1,21.7z M508.5,33.5c0-1-0.8-1.9-1.9-1.9s-1.9,0.8-1.9,1.9c0,1,0.8,1.9,1.9,1.9
				C507.7,35.4,508.5,34.6,508.5,33.5z M527.3,33.5c0-1-0.8-1.9-1.9-1.9c-1,0-1.9,0.8-1.9,1.9c0,1,0.8,1.9,1.9,1.9
				S527.3,34.6,527.3,33.5z M546,33.5c0-1-0.8-1.9-1.9-1.9c-1,0-1.9,0.8-1.9,1.9c0,1,0.8,1.9,1.9,1.9C545.1,35.4,546,34.6,546,33.5z
				 M564.7,33.5c0-1-0.8-1.9-1.9-1.9c-1,0-1.9,0.8-1.9,1.9c0,1,0.8,1.9,1.9,1.9C563.9,35.4,564.7,34.6,564.7,33.5z M583.4,33.5
				c0-1-0.8-1.9-1.9-1.9c-1,0-1.9,0.8-1.9,1.9c0,1,0.8,1.9,1.9,1.9C582.6,35.4,583.4,34.6,583.4,33.5z M602.2,33.5
				c0-1-0.8-1.9-1.9-1.9c-1,0-1.9,0.8-1.9,1.9c0,1,0.8,1.9,1.9,1.9C601.3,35.4,602.2,34.6,602.2,33.5z M620.9,33.5
				c0-1-0.8-1.9-1.9-1.9c-1,0-1.9,0.8-1.9,1.9c0,1,0.8,1.9,1.9,1.9S620.9,34.6,620.9,33.5z M639.6,33.5c0-1-0.8-1.9-1.9-1.9
				c-1,0-1.9,0.8-1.9,1.9c0,1,0.8,1.9,1.9,1.9C638.8,35.4,639.6,34.6,639.6,33.5z M658.3,33.5c0-1-0.8-1.9-1.9-1.9
				c-1,0-1.9,0.8-1.9,1.9c0,1,0.8,1.9,1.9,1.9C657.5,35.4,658.3,34.6,658.3,33.5z M677.1,33.5c0-1-0.8-1.9-1.9-1.9
				c-1,0-1.9,0.8-1.9,1.9c0,1,0.8,1.9,1.9,1.9C676.3,35.4,677.1,34.6,677.1,33.5z M695.8,33.5c0-1-0.8-1.9-1.9-1.9
				c-1,0-1.9,0.8-1.9,1.9c0,1,0.8,1.9,1.9,1.9C695,35.4,695.8,34.6,695.8,33.5z M714.5,33.5c0-1-0.8-1.9-1.9-1.9
				c-1,0-1.9,0.8-1.9,1.9c0,1,0.8,1.9,1.9,1.9C713.7,35.4,714.5,34.6,714.5,33.5z M733.3,33.5c0-1-0.8-1.9-1.9-1.9
				c-1,0-1.9,0.8-1.9,1.9c0,1,0.8,1.9,1.9,1.9C732.4,35.4,733.3,34.6,733.3,33.5z M752,33.5c0-1-0.8-1.9-1.9-1.9
				c-1,0-1.9,0.8-1.9,1.9c0,1,0.8,1.9,1.9,1.9C751.2,35.4,752,34.6,752,33.5z M770.7,33.5c0-1-0.8-1.9-1.9-1.9c-1,0-1.9,0.8-1.9,1.9
				c0,1,0.8,1.9,1.9,1.9C769.9,35.4,770.7,34.6,770.7,33.5z M789.5,33.5c0-1-0.8-1.9-1.9-1.9c-1,0-1.9,0.8-1.9,1.9
				c0,1,0.8,1.9,1.9,1.9S789.5,34.6,789.5,33.5z M517.9,45.4c0-1-0.8-1.9-1.9-1.9c-1,0-1.9,0.8-1.9,1.9s0.8,1.9,1.9,1.9
				C517,47.3,517.9,46.5,517.9,45.4z M536.6,45.4c0-1-0.8-1.9-1.9-1.9c-1,0-1.9,0.8-1.9,1.9s0.8,1.9,1.9,1.9
				C535.8,47.3,536.6,46.5,536.6,45.4z M555.3,45.4c0-1-0.8-1.9-1.9-1.9c-1,0-1.9,0.8-1.9,1.9s0.8,1.9,1.9,1.9
				S555.3,46.5,555.3,45.4z M574.1,45.4c0-1-0.8-1.9-1.9-1.9c-1,0-1.9,0.8-1.9,1.9s0.8,1.9,1.9,1.9S574.1,46.5,574.1,45.4z
				 M592.8,45.4c0-1-0.8-1.9-1.9-1.9c-1,0-1.9,0.8-1.9,1.9s0.8,1.9,1.9,1.9C592,47.3,592.8,46.5,592.8,45.4z M611.5,45.4
				c0-1-0.8-1.9-1.9-1.9c-1,0-1.9,0.8-1.9,1.9s0.8,1.9,1.9,1.9C610.7,47.3,611.5,46.5,611.5,45.4z M630.3,45.4c0-1-0.8-1.9-1.9-1.9
				c-1,0-1.9,0.8-1.9,1.9s0.8,1.9,1.9,1.9S630.3,46.5,630.3,45.4z M649,45.4c0-1-0.8-1.9-1.9-1.9c-1,0-1.9,0.8-1.9,1.9
				s0.8,1.9,1.9,1.9C648.2,47.3,649,46.5,649,45.4z M667.7,45.4c0-1-0.8-1.9-1.9-1.9c-1,0-1.9,0.8-1.9,1.9s0.8,1.9,1.9,1.9
				C666.9,47.3,667.7,46.5,667.7,45.4z M686.5,45.4c0-1-0.8-1.9-1.9-1.9c-1,0-1.9,0.8-1.9,1.9s0.8,1.9,1.9,1.9
				S686.5,46.5,686.5,45.4z M705.2,45.4c0-1-0.8-1.9-1.9-1.9c-1,0-1.9,0.8-1.9,1.9s0.8,1.9,1.9,1.9
				C704.3,47.3,705.2,46.5,705.2,45.4z M723.9,45.4c0-1-0.8-1.9-1.9-1.9c-1,0-1.9,0.8-1.9,1.9s0.8,1.9,1.9,1.9
				C723.1,47.3,723.9,46.5,723.9,45.4z M742.6,45.4c0-1-0.8-1.9-1.9-1.9c-1,0-1.9,0.8-1.9,1.9s0.8,1.9,1.9,1.9
				C741.8,47.3,742.6,46.5,742.6,45.4z M761.4,45.4c0-1-0.8-1.9-1.9-1.9c-1,0-1.9,0.8-1.9,1.9s0.8,1.9,1.9,1.9
				C760.5,47.3,761.4,46.5,761.4,45.4z M780.1,45.4c0-1-0.8-1.9-1.9-1.9c-1,0-1.9,0.8-1.9,1.9s0.8,1.9,1.9,1.9
				C779.3,47.3,780.1,46.5,780.1,45.4z M508.5,57.3c0-1-0.8-1.9-1.9-1.9s-1.9,0.8-1.9,1.9s0.8,1.9,1.9,1.9
				C507.7,59.2,508.5,58.3,508.5,57.3z M527.3,57.3c0-1-0.8-1.9-1.9-1.9c-1,0-1.9,0.8-1.9,1.9s0.8,1.9,1.9,1.9
				S527.3,58.3,527.3,57.3z M546,57.3c0-1-0.8-1.9-1.9-1.9c-1,0-1.9,0.8-1.9,1.9s0.8,1.9,1.9,1.9C545.1,59.2,546,58.3,546,57.3z
				 M564.7,57.3c0-1-0.8-1.9-1.9-1.9c-1,0-1.9,0.8-1.9,1.9s0.8,1.9,1.9,1.9C563.9,59.2,564.7,58.3,564.7,57.3z M583.4,57.3
				c0-1-0.8-1.9-1.9-1.9c-1,0-1.9,0.8-1.9,1.9s0.8,1.9,1.9,1.9C582.6,59.2,583.4,58.3,583.4,57.3z M602.2,57.3c0-1-0.8-1.9-1.9-1.9
				c-1,0-1.9,0.8-1.9,1.9s0.8,1.9,1.9,1.9C601.3,59.2,602.2,58.3,602.2,57.3z M620.9,57.3c0-1-0.8-1.9-1.9-1.9c-1,0-1.9,0.8-1.9,1.9
				s0.8,1.9,1.9,1.9S620.9,58.3,620.9,57.3z M639.6,57.3c0-1-0.8-1.9-1.9-1.9c-1,0-1.9,0.8-1.9,1.9s0.8,1.9,1.9,1.9
				C638.8,59.2,639.6,58.3,639.6,57.3z M658.3,57.3c0-1-0.8-1.9-1.9-1.9c-1,0-1.9,0.8-1.9,1.9s0.8,1.9,1.9,1.9
				C657.5,59.2,658.3,58.3,658.3,57.3z M677.1,57.3c0-1-0.8-1.9-1.9-1.9c-1,0-1.9,0.8-1.9,1.9s0.8,1.9,1.9,1.9
				C676.3,59.2,677.1,58.3,677.1,57.3z M695.8,57.3c0-1-0.8-1.9-1.9-1.9c-1,0-1.9,0.8-1.9,1.9s0.8,1.9,1.9,1.9
				C695,59.2,695.8,58.3,695.8,57.3z M714.5,57.3c0-1-0.8-1.9-1.9-1.9c-1,0-1.9,0.8-1.9,1.9s0.8,1.9,1.9,1.9
				C713.7,59.2,714.5,58.3,714.5,57.3z M733.3,57.3c0-1-0.8-1.9-1.9-1.9c-1,0-1.9,0.8-1.9,1.9s0.8,1.9,1.9,1.9
				C732.4,59.2,733.3,58.3,733.3,57.3z M752,57.3c0-1-0.8-1.9-1.9-1.9c-1,0-1.9,0.8-1.9,1.9s0.8,1.9,1.9,1.9
				C751.2,59.2,752,58.3,752,57.3z M770.7,57.3c0-1-0.8-1.9-1.9-1.9c-1,0-1.9,0.8-1.9,1.9s0.8,1.9,1.9,1.9
				C769.9,59.2,770.7,58.3,770.7,57.3z M789.5,57.3c0-1-0.8-1.9-1.9-1.9c-1,0-1.9,0.8-1.9,1.9s0.8,1.9,1.9,1.9
				S789.5,58.3,789.5,57.3z M517.9,69.2c0-1-0.8-1.9-1.9-1.9c-1,0-1.9,0.8-1.9,1.9s0.8,1.9,1.9,1.9C517,71.1,517.9,70.2,517.9,69.2z
				 M536.6,69.2c0-1-0.8-1.9-1.9-1.9c-1,0-1.9,0.8-1.9,1.9s0.8,1.9,1.9,1.9C535.8,71.1,536.6,70.2,536.6,69.2z M555.3,69.2
				c0-1-0.8-1.9-1.9-1.9c-1,0-1.9,0.8-1.9,1.9s0.8,1.9,1.9,1.9C554.5,71.1,555.3,70.2,555.3,69.2z M574.1,69.2c0-1-0.8-1.9-1.9-1.9
				c-1,0-1.9,0.8-1.9,1.9s0.8,1.9,1.9,1.9C573.2,71.1,574.1,70.2,574.1,69.2z M592.8,69.2c0-1-0.8-1.9-1.9-1.9c-1,0-1.9,0.8-1.9,1.9
				s0.8,1.9,1.9,1.9C592,71.1,592.8,70.2,592.8,69.2z M611.5,69.2c0-1-0.8-1.9-1.9-1.9c-1,0-1.9,0.8-1.9,1.9s0.8,1.9,1.9,1.9
				C610.7,71.1,611.5,70.2,611.5,69.2z M630.3,69.2c0-1-0.8-1.9-1.9-1.9c-1,0-1.9,0.8-1.9,1.9s0.8,1.9,1.9,1.9
				C629.4,71.1,630.3,70.2,630.3,69.2z M649,69.2c0-1-0.8-1.9-1.9-1.9c-1,0-1.9,0.8-1.9,1.9s0.8,1.9,1.9,1.9
				C648.2,71.1,649,70.2,649,69.2z M667.7,69.2c0-1-0.8-1.9-1.9-1.9c-1,0-1.9,0.8-1.9,1.9s0.8,1.9,1.9,1.9
				C666.9,71.1,667.7,70.2,667.7,69.2z M686.5,69.2c0-1-0.8-1.9-1.9-1.9c-1,0-1.9,0.8-1.9,1.9s0.8,1.9,1.9,1.9
				C685.6,71.1,686.5,70.2,686.5,69.2z M705.2,69.2c0-1-0.8-1.9-1.9-1.9c-1,0-1.9,0.8-1.9,1.9s0.8,1.9,1.9,1.9
				C704.3,71.1,705.2,70.2,705.2,69.2z M723.9,69.2c0-1-0.8-1.9-1.9-1.9c-1,0-1.9,0.8-1.9,1.9s0.8,1.9,1.9,1.9
				C723.1,71.1,723.9,70.2,723.9,69.2z M742.6,69.2c0-1-0.8-1.9-1.9-1.9c-1,0-1.9,0.8-1.9,1.9s0.8,1.9,1.9,1.9
				C741.8,71.1,742.6,70.2,742.6,69.2z M761.4,69.2c0-1-0.8-1.9-1.9-1.9c-1,0-1.9,0.8-1.9,1.9s0.8,1.9,1.9,1.9
				C760.5,71.1,761.4,70.2,761.4,69.2z M780.1,69.2c0-1-0.8-1.9-1.9-1.9c-1,0-1.9,0.8-1.9,1.9s0.8,1.9,1.9,1.9
				C779.3,71.1,780.1,70.2,780.1,69.2z M527.3,81.1c0-1-0.8-1.9-1.9-1.9c-1,0-1.9,0.8-1.9,1.9c0,1,0.8,1.9,1.9,1.9
				S527.3,82.1,527.3,81.1z M546,81.1c0-1-0.8-1.9-1.9-1.9c-1,0-1.9,0.8-1.9,1.9c0,1,0.8,1.9,1.9,1.9C545.1,82.9,546,82.1,546,81.1z
				 M564.7,81.1c0-1-0.8-1.9-1.9-1.9c-1,0-1.9,0.8-1.9,1.9c0,1,0.8,1.9,1.9,1.9C563.9,82.9,564.7,82.1,564.7,81.1z M583.4,81.1
				c0-1-0.8-1.9-1.9-1.9c-1,0-1.9,0.8-1.9,1.9c0,1,0.8,1.9,1.9,1.9C582.6,82.9,583.4,82.1,583.4,81.1z M602.2,81.1
				c0-1-0.8-1.9-1.9-1.9c-1,0-1.9,0.8-1.9,1.9c0,1,0.8,1.9,1.9,1.9C601.3,82.9,602.2,82.1,602.2,81.1z M620.9,81.1
				c0-1-0.8-1.9-1.9-1.9c-1,0-1.9,0.8-1.9,1.9c0,1,0.8,1.9,1.9,1.9S620.9,82.1,620.9,81.1z M639.6,81.1c0-1-0.8-1.9-1.9-1.9
				c-1,0-1.9,0.8-1.9,1.9c0,1,0.8,1.9,1.9,1.9C638.8,82.9,639.6,82.1,639.6,81.1z M658.3,81.1c0-1-0.8-1.9-1.9-1.9
				c-1,0-1.9,0.8-1.9,1.9c0,1,0.8,1.9,1.9,1.9C657.5,82.9,658.3,82.1,658.3,81.1z M677.1,81.1c0-1-0.8-1.9-1.9-1.9
				c-1,0-1.9,0.8-1.9,1.9c0,1,0.8,1.9,1.9,1.9C676.3,82.9,677.1,82.1,677.1,81.1z M695.8,81.1c0-1-0.8-1.9-1.9-1.9
				c-1,0-1.9,0.8-1.9,1.9c0,1,0.8,1.9,1.9,1.9C695,82.9,695.8,82.1,695.8,81.1z M714.5,81.1c0-1-0.8-1.9-1.9-1.9
				c-1,0-1.9,0.8-1.9,1.9c0,1,0.8,1.9,1.9,1.9C713.7,82.9,714.5,82.1,714.5,81.1z M733.3,81.1c0-1-0.8-1.9-1.9-1.9
				c-1,0-1.9,0.8-1.9,1.9c0,1,0.8,1.9,1.9,1.9C732.4,82.9,733.3,82.1,733.3,81.1z M752,81.1c0-1-0.8-1.9-1.9-1.9
				c-1,0-1.9,0.8-1.9,1.9c0,1,0.8,1.9,1.9,1.9C751.2,82.9,752,82.1,752,81.1z M770.7,81.1c0-1-0.8-1.9-1.9-1.9c-1,0-1.9,0.8-1.9,1.9
				c0,1,0.8,1.9,1.9,1.9C769.9,82.9,770.7,82.1,770.7,81.1z M517.9,92.9c0-1-0.8-1.9-1.9-1.9c-1,0-1.9,0.8-1.9,1.9s0.8,1.9,1.9,1.9
				C517,94.8,517.9,94,517.9,92.9z M536.6,92.9c0-1-0.8-1.9-1.9-1.9c-1,0-1.9,0.8-1.9,1.9s0.8,1.9,1.9,1.9
				C535.8,94.8,536.6,94,536.6,92.9z M555.3,92.9c0-1-0.8-1.9-1.9-1.9c-1,0-1.9,0.8-1.9,1.9s0.8,1.9,1.9,1.9S555.3,94,555.3,92.9z
				 M574.1,92.9c0-1-0.8-1.9-1.9-1.9c-1,0-1.9,0.8-1.9,1.9s0.8,1.9,1.9,1.9S574.1,94,574.1,92.9z M592.8,92.9c0-1-0.8-1.9-1.9-1.9
				c-1,0-1.9,0.8-1.9,1.9s0.8,1.9,1.9,1.9C592,94.8,592.8,94,592.8,92.9z M611.5,92.9c0-1-0.8-1.9-1.9-1.9c-1,0-1.9,0.8-1.9,1.9
				s0.8,1.9,1.9,1.9C610.7,94.8,611.5,94,611.5,92.9z M630.3,92.9c0-1-0.8-1.9-1.9-1.9c-1,0-1.9,0.8-1.9,1.9s0.8,1.9,1.9,1.9
				S630.3,94,630.3,92.9z M649,92.9c0-1-0.8-1.9-1.9-1.9c-1,0-1.9,0.8-1.9,1.9s0.8,1.9,1.9,1.9C648.2,94.8,649,94,649,92.9z
				 M667.7,92.9c0-1-0.8-1.9-1.9-1.9c-1,0-1.9,0.8-1.9,1.9s0.8,1.9,1.9,1.9C666.9,94.8,667.7,94,667.7,92.9z M686.5,92.9
				c0-1-0.8-1.9-1.9-1.9c-1,0-1.9,0.8-1.9,1.9s0.8,1.9,1.9,1.9S686.5,94,686.5,92.9z M705.2,92.9c0-1-0.8-1.9-1.9-1.9
				c-1,0-1.9,0.8-1.9,1.9s0.8,1.9,1.9,1.9C704.3,94.8,705.2,94,705.2,92.9z M723.9,92.9c0-1-0.8-1.9-1.9-1.9c-1,0-1.9,0.8-1.9,1.9
				s0.8,1.9,1.9,1.9C723.1,94.8,723.9,94,723.9,92.9z M742.6,92.9c0-1-0.8-1.9-1.9-1.9c-1,0-1.9,0.8-1.9,1.9s0.8,1.9,1.9,1.9
				C741.8,94.8,742.6,94,742.6,92.9z M761.4,92.9c0-1-0.8-1.9-1.9-1.9c-1,0-1.9,0.8-1.9,1.9s0.8,1.9,1.9,1.9
				C760.5,94.8,761.4,94,761.4,92.9z M780.1,92.9c0-1-0.8-1.9-1.9-1.9c-1,0-1.9,0.8-1.9,1.9s0.8,1.9,1.9,1.9
				C779.3,94.8,780.1,94,780.1,92.9z M527.3,104.8c0-1-0.8-1.9-1.9-1.9c-1,0-1.9,0.8-1.9,1.9c0,1,0.8,1.9,1.9,1.9
				C526.4,106.7,527.3,105.9,527.3,104.8z M546,104.8c0-1-0.8-1.9-1.9-1.9c-1,0-1.9,0.8-1.9,1.9c0,1,0.8,1.9,1.9,1.9
				C545.1,106.7,546,105.9,546,104.8z M564.7,104.8c0-1-0.8-1.9-1.9-1.9c-1,0-1.9,0.8-1.9,1.9c0,1,0.8,1.9,1.9,1.9
				C563.9,106.7,564.7,105.9,564.7,104.8z M583.4,104.8c0-1-0.8-1.9-1.9-1.9c-1,0-1.9,0.8-1.9,1.9c0,1,0.8,1.9,1.9,1.9
				C582.6,106.7,583.4,105.9,583.4,104.8z M602.2,104.8c0-1-0.8-1.9-1.9-1.9c-1,0-1.9,0.8-1.9,1.9c0,1,0.8,1.9,1.9,1.9
				C601.3,106.7,602.2,105.9,602.2,104.8z M620.9,104.8c0-1-0.8-1.9-1.9-1.9c-1,0-1.9,0.8-1.9,1.9c0,1,0.8,1.9,1.9,1.9
				C620.1,106.7,620.9,105.9,620.9,104.8z M639.6,104.8c0-1-0.8-1.9-1.9-1.9c-1,0-1.9,0.8-1.9,1.9c0,1,0.8,1.9,1.9,1.9
				C638.8,106.7,639.6,105.9,639.6,104.8z M658.3,104.8c0-1-0.8-1.9-1.9-1.9c-1,0-1.9,0.8-1.9,1.9c0,1,0.8,1.9,1.9,1.9
				C657.5,106.7,658.3,105.9,658.3,104.8z M677.1,104.8c0-1-0.8-1.9-1.9-1.9c-1,0-1.9,0.8-1.9,1.9c0,1,0.8,1.9,1.9,1.9
				C676.3,106.7,677.1,105.9,677.1,104.8z M695.8,104.8c0-1-0.8-1.9-1.9-1.9c-1,0-1.9,0.8-1.9,1.9c0,1,0.8,1.9,1.9,1.9
				C695,106.7,695.8,105.9,695.8,104.8z M714.5,104.8c0-1-0.8-1.9-1.9-1.9c-1,0-1.9,0.8-1.9,1.9c0,1,0.8,1.9,1.9,1.9
				C713.7,106.7,714.5,105.9,714.5,104.8z M733.3,104.8c0-1-0.8-1.9-1.9-1.9c-1,0-1.9,0.8-1.9,1.9c0,1,0.8,1.9,1.9,1.9
				C732.4,106.7,733.3,105.9,733.3,104.8z M752,104.8c0-1-0.8-1.9-1.9-1.9c-1,0-1.9,0.8-1.9,1.9c0,1,0.8,1.9,1.9,1.9
				C751.2,106.7,752,105.9,752,104.8z M770.7,104.8c0-1-0.8-1.9-1.9-1.9c-1,0-1.9,0.8-1.9,1.9c0,1,0.8,1.9,1.9,1.9
				C769.9,106.7,770.7,105.9,770.7,104.8z M536.6,116.7c0-1-0.8-1.9-1.9-1.9c-1,0-1.9,0.8-1.9,1.9s0.8,1.9,1.9,1.9
				C535.8,118.6,536.6,117.7,536.6,116.7z M555.3,116.7c0-1-0.8-1.9-1.9-1.9c-1,0-1.9,0.8-1.9,1.9s0.8,1.9,1.9,1.9
				S555.3,117.7,555.3,116.7z M574.1,116.7c0-1-0.8-1.9-1.9-1.9c-1,0-1.9,0.8-1.9,1.9s0.8,1.9,1.9,1.9S574.1,117.7,574.1,116.7z
				 M592.8,116.7c0-1-0.8-1.9-1.9-1.9c-1,0-1.9,0.8-1.9,1.9s0.8,1.9,1.9,1.9C592,118.6,592.8,117.7,592.8,116.7z M611.5,116.7
				c0-1-0.8-1.9-1.9-1.9c-1,0-1.9,0.8-1.9,1.9s0.8,1.9,1.9,1.9C610.7,118.6,611.5,117.7,611.5,116.7z M630.3,116.7
				c0-1-0.8-1.9-1.9-1.9c-1,0-1.9,0.8-1.9,1.9s0.8,1.9,1.9,1.9S630.3,117.7,630.3,116.7z M649,116.7c0-1-0.8-1.9-1.9-1.9
				c-1,0-1.9,0.8-1.9,1.9s0.8,1.9,1.9,1.9C648.2,118.6,649,117.7,649,116.7z M667.7,116.7c0-1-0.8-1.9-1.9-1.9c-1,0-1.9,0.8-1.9,1.9
				s0.8,1.9,1.9,1.9C666.9,118.6,667.7,117.7,667.7,116.7z M686.5,116.7c0-1-0.8-1.9-1.9-1.9c-1,0-1.9,0.8-1.9,1.9s0.8,1.9,1.9,1.9
				S686.5,117.7,686.5,116.7z M705.2,116.7c0-1-0.8-1.9-1.9-1.9c-1,0-1.9,0.8-1.9,1.9s0.8,1.9,1.9,1.9
				C704.3,118.6,705.2,117.7,705.2,116.7z M723.9,116.7c0-1-0.8-1.9-1.9-1.9c-1,0-1.9,0.8-1.9,1.9s0.8,1.9,1.9,1.9
				C723.1,118.6,723.9,117.7,723.9,116.7z M742.6,116.7c0-1-0.8-1.9-1.9-1.9c-1,0-1.9,0.8-1.9,1.9s0.8,1.9,1.9,1.9
				C741.8,118.6,742.6,117.7,742.6,116.7z M761.4,116.7c0-1-0.8-1.9-1.9-1.9c-1,0-1.9,0.8-1.9,1.9s0.8,1.9,1.9,1.9
				C760.5,118.6,761.4,117.7,761.4,116.7z M546,128.6c0-1-0.8-1.9-1.9-1.9c-1,0-1.9,0.8-1.9,1.9c0,1,0.8,1.9,1.9,1.9
				C545.1,130.5,546,129.6,546,128.6z M564.7,128.6c0-1-0.8-1.9-1.9-1.9c-1,0-1.9,0.8-1.9,1.9c0,1,0.8,1.9,1.9,1.9
				C563.9,130.5,564.7,129.6,564.7,128.6z M583.4,128.6c0-1-0.8-1.9-1.9-1.9c-1,0-1.9,0.8-1.9,1.9c0,1,0.8,1.9,1.9,1.9
				C582.6,130.5,583.4,129.6,583.4,128.6z M602.2,128.6c0-1-0.8-1.9-1.9-1.9c-1,0-1.9,0.8-1.9,1.9c0,1,0.8,1.9,1.9,1.9
				C601.3,130.5,602.2,129.6,602.2,128.6z M620.9,128.6c0-1-0.8-1.9-1.9-1.9c-1,0-1.9,0.8-1.9,1.9c0,1,0.8,1.9,1.9,1.9
				C620.1,130.5,620.9,129.6,620.9,128.6z M639.6,128.6c0-1-0.8-1.9-1.9-1.9c-1,0-1.9,0.8-1.9,1.9c0,1,0.8,1.9,1.9,1.9
				C638.8,130.5,639.6,129.6,639.6,128.6z M658.3,128.6c0-1-0.8-1.9-1.9-1.9c-1,0-1.9,0.8-1.9,1.9c0,1,0.8,1.9,1.9,1.9
				C657.5,130.5,658.3,129.6,658.3,128.6z M677.1,128.6c0-1-0.8-1.9-1.9-1.9c-1,0-1.9,0.8-1.9,1.9c0,1,0.8,1.9,1.9,1.9
				C676.3,130.5,677.1,129.6,677.1,128.6z M695.8,128.6c0-1-0.8-1.9-1.9-1.9c-1,0-1.9,0.8-1.9,1.9c0,1,0.8,1.9,1.9,1.9
				C695,130.5,695.8,129.6,695.8,128.6z M714.5,128.6c0-1-0.8-1.9-1.9-1.9c-1,0-1.9,0.8-1.9,1.9c0,1,0.8,1.9,1.9,1.9
				C713.7,130.5,714.5,129.6,714.5,128.6z M733.3,128.6c0-1-0.8-1.9-1.9-1.9c-1,0-1.9,0.8-1.9,1.9c0,1,0.8,1.9,1.9,1.9
				C732.4,130.5,733.3,129.6,733.3,128.6z M752,128.6c0-1-0.8-1.9-1.9-1.9c-1,0-1.9,0.8-1.9,1.9c0,1,0.8,1.9,1.9,1.9
				C751.2,130.5,752,129.6,752,128.6z M555.3,140.5c0-1-0.8-1.9-1.9-1.9c-1,0-1.9,0.8-1.9,1.9s0.8,1.9,1.9,1.9
				S555.3,141.5,555.3,140.5z M574.1,140.5c0-1-0.8-1.9-1.9-1.9c-1,0-1.9,0.8-1.9,1.9s0.8,1.9,1.9,1.9S574.1,141.5,574.1,140.5z
				 M592.8,140.5c0-1-0.8-1.9-1.9-1.9c-1,0-1.9,0.8-1.9,1.9s0.8,1.9,1.9,1.9C592,142.3,592.8,141.5,592.8,140.5z M611.5,140.5
				c0-1-0.8-1.9-1.9-1.9c-1,0-1.9,0.8-1.9,1.9s0.8,1.9,1.9,1.9C610.7,142.3,611.5,141.5,611.5,140.5z M630.3,140.5
				c0-1-0.8-1.9-1.9-1.9c-1,0-1.9,0.8-1.9,1.9s0.8,1.9,1.9,1.9S630.3,141.5,630.3,140.5z M649,140.5c0-1-0.8-1.9-1.9-1.9
				c-1,0-1.9,0.8-1.9,1.9s0.8,1.9,1.9,1.9C648.2,142.3,649,141.5,649,140.5z M667.7,140.5c0-1-0.8-1.9-1.9-1.9c-1,0-1.9,0.8-1.9,1.9
				s0.8,1.9,1.9,1.9C666.9,142.3,667.7,141.5,667.7,140.5z M686.5,140.5c0-1-0.8-1.9-1.9-1.9c-1,0-1.9,0.8-1.9,1.9s0.8,1.9,1.9,1.9
				S686.5,141.5,686.5,140.5z M705.2,140.5c0-1-0.8-1.9-1.9-1.9c-1,0-1.9,0.8-1.9,1.9s0.8,1.9,1.9,1.9
				C704.3,142.3,705.2,141.5,705.2,140.5z M723.9,140.5c0-1-0.8-1.9-1.9-1.9c-1,0-1.9,0.8-1.9,1.9s0.8,1.9,1.9,1.9
				C723.1,142.3,723.9,141.5,723.9,140.5z M742.6,140.5c0-1-0.8-1.9-1.9-1.9c-1,0-1.9,0.8-1.9,1.9s0.8,1.9,1.9,1.9
				C741.8,142.3,742.6,141.5,742.6,140.5z M564.7,152.4c0-1-0.8-1.9-1.9-1.9c-1,0-1.9,0.8-1.9,1.9s0.8,1.9,1.9,1.9
				C563.9,154.2,564.7,153.4,564.7,152.4z M583.4,152.4c0-1-0.8-1.9-1.9-1.9c-1,0-1.9,0.8-1.9,1.9s0.8,1.9,1.9,1.9
				C582.6,154.2,583.4,153.4,583.4,152.4z M602.2,152.4c0-1-0.8-1.9-1.9-1.9c-1,0-1.9,0.8-1.9,1.9s0.8,1.9,1.9,1.9
				C601.3,154.2,602.2,153.4,602.2,152.4z M620.9,152.4c0-1-0.8-1.9-1.9-1.9c-1,0-1.9,0.8-1.9,1.9s0.8,1.9,1.9,1.9
				S620.9,153.4,620.9,152.4z M639.6,152.4c0-1-0.8-1.9-1.9-1.9c-1,0-1.9,0.8-1.9,1.9s0.8,1.9,1.9,1.9
				C638.8,154.2,639.6,153.4,639.6,152.4z M658.3,152.4c0-1-0.8-1.9-1.9-1.9c-1,0-1.9,0.8-1.9,1.9s0.8,1.9,1.9,1.9
				C657.5,154.2,658.3,153.4,658.3,152.4z M677.1,152.4c0-1-0.8-1.9-1.9-1.9c-1,0-1.9,0.8-1.9,1.9s0.8,1.9,1.9,1.9
				C676.3,154.2,677.1,153.4,677.1,152.4z M695.8,152.4c0-1-0.8-1.9-1.9-1.9c-1,0-1.9,0.8-1.9,1.9s0.8,1.9,1.9,1.9
				C695,154.2,695.8,153.4,695.8,152.4z M714.5,152.4c0-1-0.8-1.9-1.9-1.9c-1,0-1.9,0.8-1.9,1.9s0.8,1.9,1.9,1.9
				C713.7,154.2,714.5,153.4,714.5,152.4z M733.3,152.4c0-1-0.8-1.9-1.9-1.9c-1,0-1.9,0.8-1.9,1.9s0.8,1.9,1.9,1.9
				C732.4,154.2,733.3,153.4,733.3,152.4z M574.1,164.2c0-1-0.8-1.9-1.9-1.9c-1,0-1.9,0.8-1.9,1.9s0.8,1.9,1.9,1.9
				C573.2,166.1,574.1,165.3,574.1,164.2z M592.8,164.2c0-1-0.8-1.9-1.9-1.9c-1,0-1.9,0.8-1.9,1.9s0.8,1.9,1.9,1.9
				C592,166.1,592.8,165.3,592.8,164.2z M611.5,164.2c0-1-0.8-1.9-1.9-1.9c-1,0-1.9,0.8-1.9,1.9s0.8,1.9,1.9,1.9
				C610.7,166.1,611.5,165.3,611.5,164.2z M630.3,164.2c0-1-0.8-1.9-1.9-1.9c-1,0-1.9,0.8-1.9,1.9s0.8,1.9,1.9,1.9
				C629.4,166.1,630.3,165.3,630.3,164.2z M649,164.2c0-1-0.8-1.9-1.9-1.9c-1,0-1.9,0.8-1.9,1.9s0.8,1.9,1.9,1.9
				C648.2,166.1,649,165.3,649,164.2z M667.7,164.2c0-1-0.8-1.9-1.9-1.9c-1,0-1.9,0.8-1.9,1.9s0.8,1.9,1.9,1.9
				C666.9,166.1,667.7,165.3,667.7,164.2z M686.5,164.2c0-1-0.8-1.9-1.9-1.9c-1,0-1.9,0.8-1.9,1.9s0.8,1.9,1.9,1.9
				C685.6,166.1,686.5,165.3,686.5,164.2z M705.2,164.2c0-1-0.8-1.9-1.9-1.9c-1,0-1.9,0.8-1.9,1.9s0.8,1.9,1.9,1.9
				C704.3,166.1,705.2,165.3,705.2,164.2z M723.9,164.2c0-1-0.8-1.9-1.9-1.9c-1,0-1.9,0.8-1.9,1.9s0.8,1.9,1.9,1.9
				C723.1,166.1,723.9,165.3,723.9,164.2z M583.4,176.1c0-1-0.8-1.9-1.9-1.9c-1,0-1.9,0.8-1.9,1.9s0.8,1.9,1.9,1.9
				C582.6,178,583.4,177.1,583.4,176.1z M602.2,176.1c0-1-0.8-1.9-1.9-1.9c-1,0-1.9,0.8-1.9,1.9s0.8,1.9,1.9,1.9
				C601.3,178,602.2,177.1,602.2,176.1z M620.9,176.1c0-1-0.8-1.9-1.9-1.9c-1,0-1.9,0.8-1.9,1.9s0.8,1.9,1.9,1.9
				C620.1,178,620.9,177.1,620.9,176.1z M639.6,176.1c0-1-0.8-1.9-1.9-1.9c-1,0-1.9,0.8-1.9,1.9s0.8,1.9,1.9,1.9
				C638.8,178,639.6,177.1,639.6,176.1z M658.3,176.1c0-1-0.8-1.9-1.9-1.9c-1,0-1.9,0.8-1.9,1.9s0.8,1.9,1.9,1.9
				C657.5,178,658.3,177.1,658.3,176.1z M677.1,176.1c0-1-0.8-1.9-1.9-1.9c-1,0-1.9,0.8-1.9,1.9s0.8,1.9,1.9,1.9
				C676.3,178,677.1,177.1,677.1,176.1z M695.8,176.1c0-1-0.8-1.9-1.9-1.9c-1,0-1.9,0.8-1.9,1.9s0.8,1.9,1.9,1.9
				C695,178,695.8,177.1,695.8,176.1z M714.5,176.1c0-1-0.8-1.9-1.9-1.9c-1,0-1.9,0.8-1.9,1.9s0.8,1.9,1.9,1.9
				C713.7,178,714.5,177.1,714.5,176.1z M611.5,188c0-1-0.8-1.9-1.9-1.9c-1,0-1.9,0.8-1.9,1.9s0.8,1.9,1.9,1.9
				C610.7,189.9,611.5,189,611.5,188z M630.3,188c0-1-0.8-1.9-1.9-1.9c-1,0-1.9,0.8-1.9,1.9s0.8,1.9,1.9,1.9S630.3,189,630.3,188z
				 M649,188c0-1-0.8-1.9-1.9-1.9c-1,0-1.9,0.8-1.9,1.9s0.8,1.9,1.9,1.9C648.2,189.9,649,189,649,188z M667.7,188
				c0-1-0.8-1.9-1.9-1.9c-1,0-1.9,0.8-1.9,1.9s0.8,1.9,1.9,1.9C666.9,189.9,667.7,189,667.7,188z M686.5,188c0-1-0.8-1.9-1.9-1.9
				c-1,0-1.9,0.8-1.9,1.9s0.8,1.9,1.9,1.9S686.5,189,686.5,188z"/>
		</g>
		<g class="st2">
			<defs>
				<rect id="SVGID_4_" y="0" class="st2" width="750" height="500"/>
			</defs>
			<clipPath id="SVGID_5_">
				<use xlink:href="#SVGID_4_"  style="overflow:visible;"/>
			</clipPath>
			
				<linearGradient id="SVGID_6_" gradientUnits="userSpaceOnUse" x1="318.9107" y1="278.6944" x2="318.9107" y2="-294.3286" gradientTransform="matrix(1.1678 1.1678 0.6975 -0.6975 -97.2309 20.558)">
				<stop  offset="0.5027" style="stop-color:#1D3780;stop-opacity:0"/>
				<stop  offset="0.9783" style="stop-color:#1D3780;stop-opacity:0.9563"/>
				<stop  offset="1" style="stop-color:#1D3780"/>
			</linearGradient>
			<polygon class="st4" points="395.9,917.2 -249,272.3 151.6,-128.4 796.5,516.5 			"/>
		</g>
		<g class="st5">
			<defs>
				<rect id="SVGID_7_" y="0" width="750" height="500"/>
			</defs>
			<clipPath id="SVGID_8_" class="st6">
				<use xlink:href="#SVGID_7_"  style="overflow:visible;"/>
			</clipPath>
			
				<linearGradient id="SVGID_9_" gradientUnits="userSpaceOnUse" x1="256.8239" y1="-63.8092" x2="256.8239" y2="-636.8319" gradientTransform="matrix(1.1678 -1.1678 -0.6975 -0.6975 135.5765 640.9843)">
				<stop  offset="0" style="stop-color:#1D3780"/>
				<stop  offset="2.170000e-02" style="stop-color:#1D3780;stop-opacity:0.9563"/>
				<stop  offset="0.4973" style="stop-color:#1D3780;stop-opacity:0"/>
			</linearGradient>
			<polygon class="st7" points="1198.6,459.3 553.7,1104.2 153.1,703.5 797.9,58.6 			"/>
		</g>
		<g class="st5">
			<defs>
				<rect id="SVGID_10_" y="0" width="750" height="500"/>
			</defs>
			<clipPath id="SVGID_11_" class="st6">
				<use xlink:href="#SVGID_10_"  style="overflow:visible;"/>
			</clipPath>
			
				<linearGradient id="SVGID_12_" gradientUnits="userSpaceOnUse" x1="449.1232" y1="-64.7553" x2="449.1232" y2="-637.7786" gradientTransform="matrix(-1.1678 1.1678 0.6975 0.6975 693.6482 -385.3788)">
				<stop  offset="0" style="stop-color:#1D3780"/>
				<stop  offset="2.170000e-02" style="stop-color:#1D3780;stop-opacity:0.9563"/>
				<stop  offset="0.4973" style="stop-color:#1D3780;stop-opacity:0"/>
			</linearGradient>
			<polygon class="st8" points="-594.6,20.2 50.3,-624.7 450.9,-224 -193.9,420.9 			"/>
		</g>
		<g class="st2">
			<defs>
				<rect id="SVGID_13_" y="0" class="st2" width="750" height="500"/>
			</defs>
			<clipPath id="SVGID_14_">
				<use xlink:href="#SVGID_13_"  style="overflow:visible;"/>
			</clipPath>
			
				<linearGradient id="SVGID_15_" gradientUnits="userSpaceOnUse" x1="318.4697" y1="642.3777" x2="550.7896" y2="874.6976" gradientTransform="matrix(-1 0 0 1 540.8535 -287.8234)">
				<stop  offset="0" style="stop-color:#638DFF;stop-opacity:0"/>
				<stop  offset="1" style="stop-color:#638DFF"/>
			</linearGradient>
			<path class="st9" d="M136.6,628.1c1.2,0,2.2,1,2.2,2.2s-1,2.2-2.2,2.2c-1.2,0-2.2-1-2.2-2.2C134.4,629.1,135.4,628.1,136.6,628.1
				z M112.3,630.3c0,1.2,1,2.2,2.2,2.2c1.2,0,2.2-1,2.2-2.2c0-1.2-1-2.2-2.2-2.2C113.3,628.1,112.3,629.1,112.3,630.3z M90.3,630.3
				c0,1.2,1,2.2,2.2,2.2c1.2,0,2.2-1,2.2-2.2c0-1.2-1-2.2-2.2-2.2C91.3,628.1,90.3,629.1,90.3,630.3z M68.2,630.3
				c0,1.2,1,2.2,2.2,2.2c1.2,0,2.2-1,2.2-2.2c0-1.2-1-2.2-2.2-2.2C69.2,628.1,68.2,629.1,68.2,630.3z M167.5,616.3
				c0,1.2,1,2.2,2.2,2.2c1.2,0,2.2-1,2.2-2.2c0-1.2-1-2.2-2.2-2.2S167.5,615.1,167.5,616.3z M145.4,616.3c0,1.2,1,2.2,2.2,2.2
				c1.2,0,2.2-1,2.2-2.2c0-1.2-1-2.2-2.2-2.2C146.4,614.1,145.4,615.1,145.4,616.3z M123.3,616.3c0,1.2,1,2.2,2.2,2.2
				c1.2,0,2.2-1,2.2-2.2c0-1.2-1-2.2-2.2-2.2S123.3,615.1,123.3,616.3z M101.3,616.3c0,1.2,1,2.2,2.2,2.2c1.2,0,2.2-1,2.2-2.2
				c0-1.2-1-2.2-2.2-2.2C102.3,614.1,101.3,615.1,101.3,616.3z M79.2,616.3c0,1.2,1,2.2,2.2,2.2s2.2-1,2.2-2.2c0-1.2-1-2.2-2.2-2.2
				S79.2,615.1,79.2,616.3z M57.2,616.3c0,1.2,1,2.2,2.2,2.2c1.2,0,2.2-1,2.2-2.2c0-1.2-1-2.2-2.2-2.2
				C58.2,614.1,57.2,615.1,57.2,616.3z M35.1,616.3c0,1.2,1,2.2,2.2,2.2s2.2-1,2.2-2.2c0-1.2-1-2.2-2.2-2.2S35.1,615.1,35.1,616.3z
				 M200.5,602.3c0,1.2,1,2.2,2.2,2.2c1.2,0,2.2-1,2.2-2.2c0-1.2-1-2.2-2.2-2.2C201.5,600.1,200.5,601.1,200.5,602.3z M178.5,602.3
				c0,1.2,1,2.2,2.2,2.2c1.2,0,2.2-1,2.2-2.2c0-1.2-1-2.2-2.2-2.2C179.5,600.1,178.5,601.1,178.5,602.3z M156.4,602.3
				c0,1.2,1,2.2,2.2,2.2c1.2,0,2.2-1,2.2-2.2c0-1.2-1-2.2-2.2-2.2C157.4,600.1,156.4,601.1,156.4,602.3z M134.4,602.3
				c0,1.2,1,2.2,2.2,2.2c1.2,0,2.2-1,2.2-2.2s-1-2.2-2.2-2.2C135.4,600.1,134.4,601.1,134.4,602.3z M112.3,602.3
				c0,1.2,1,2.2,2.2,2.2c1.2,0,2.2-1,2.2-2.2s-1-2.2-2.2-2.2C113.3,600.1,112.3,601.1,112.3,602.3z M90.3,602.3c0,1.2,1,2.2,2.2,2.2
				c1.2,0,2.2-1,2.2-2.2s-1-2.2-2.2-2.2S90.3,601.1,90.3,602.3z M68.2,602.3c0,1.2,1,2.2,2.2,2.2c1.2,0,2.2-1,2.2-2.2
				s-1-2.2-2.2-2.2S68.2,601.1,68.2,602.3z M46.2,602.3c0,1.2,1,2.2,2.2,2.2c1.2,0,2.2-1,2.2-2.2s-1-2.2-2.2-2.2
				C47.1,600.1,46.2,601.1,46.2,602.3z M24.1,602.3c0,1.2,1,2.2,2.2,2.2c1.2,0,2.2-1,2.2-2.2s-1-2.2-2.2-2.2
				C25.1,600.1,24.1,601.1,24.1,602.3z M2,602.3c0,1.2,1,2.2,2.2,2.2c1.2,0,2.2-1,2.2-2.2s-1-2.2-2.2-2.2C3,600.1,2,601.1,2,602.3z
				 M211.6,588.3c0,1.2,1,2.2,2.2,2.2c1.2,0,2.2-1,2.2-2.2s-1-2.2-2.2-2.2C212.6,586.1,211.6,587.1,211.6,588.3z M189.5,588.3
				c0,1.2,1,2.2,2.2,2.2c1.2,0,2.2-1,2.2-2.2s-1-2.2-2.2-2.2S189.5,587.1,189.5,588.3z M167.5,588.3c0,1.2,1,2.2,2.2,2.2
				c1.2,0,2.2-1,2.2-2.2s-1-2.2-2.2-2.2S167.5,587.1,167.5,588.3z M145.4,588.3c0,1.2,1,2.2,2.2,2.2c1.2,0,2.2-1,2.2-2.2
				s-1-2.2-2.2-2.2C146.4,586.1,145.4,587.1,145.4,588.3z M123.3,588.3c0,1.2,1,2.2,2.2,2.2c1.2,0,2.2-1,2.2-2.2
				c0-1.2-1-2.2-2.2-2.2S123.3,587.1,123.3,588.3z M101.3,588.3c0,1.2,1,2.2,2.2,2.2c1.2,0,2.2-1,2.2-2.2c0-1.2-1-2.2-2.2-2.2
				C102.3,586.1,101.3,587.1,101.3,588.3z M79.2,588.3c0,1.2,1,2.2,2.2,2.2s2.2-1,2.2-2.2c0-1.2-1-2.2-2.2-2.2
				S79.2,587.1,79.2,588.3z M57.2,588.3c0,1.2,1,2.2,2.2,2.2c1.2,0,2.2-1,2.2-2.2c0-1.2-1-2.2-2.2-2.2
				C58.2,586.1,57.2,587.1,57.2,588.3z M35.1,588.3c0,1.2,1,2.2,2.2,2.2s2.2-1,2.2-2.2c0-1.2-1-2.2-2.2-2.2S35.1,587.1,35.1,588.3z
				 M13.1,588.3c0,1.2,1,2.2,2.2,2.2s2.2-1,2.2-2.2c0-1.2-1-2.2-2.2-2.2S13.1,587.1,13.1,588.3z M-9,588.3c0,1.2,1,2.2,2.2,2.2
				c1.2,0,2.2-1,2.2-2.2c0-1.2-1-2.2-2.2-2.2C-8,586.1-9,587.1-9,588.3z M222.6,574.3c0,1.2,1,2.2,2.2,2.2s2.2-1,2.2-2.2
				c0-1.2-1-2.2-2.2-2.2C223.6,572.1,222.6,573.1,222.6,574.3z M200.5,574.3c0,1.2,1,2.2,2.2,2.2c1.2,0,2.2-1,2.2-2.2
				c0-1.2-1-2.2-2.2-2.2C201.5,572.1,200.5,573.1,200.5,574.3z M178.5,574.3c0,1.2,1,2.2,2.2,2.2c1.2,0,2.2-1,2.2-2.2
				c0-1.2-1-2.2-2.2-2.2C179.5,572.1,178.5,573.1,178.5,574.3z M156.4,574.3c0,1.2,1,2.2,2.2,2.2c1.2,0,2.2-1,2.2-2.2
				c0-1.2-1-2.2-2.2-2.2C157.4,572.1,156.4,573.1,156.4,574.3z M134.4,574.3c0,1.2,1,2.2,2.2,2.2c1.2,0,2.2-1,2.2-2.2
				c0-1.2-1-2.2-2.2-2.2C135.4,572.1,134.4,573.1,134.4,574.3z M112.3,574.3c0,1.2,1,2.2,2.2,2.2c1.2,0,2.2-1,2.2-2.2
				c0-1.2-1-2.2-2.2-2.2C113.3,572.1,112.3,573.1,112.3,574.3z M90.3,574.3c0,1.2,1,2.2,2.2,2.2c1.2,0,2.2-1,2.2-2.2
				c0-1.2-1-2.2-2.2-2.2C91.3,572.1,90.3,573.1,90.3,574.3z M68.2,574.3c0,1.2,1,2.2,2.2,2.2c1.2,0,2.2-1,2.2-2.2
				c0-1.2-1-2.2-2.2-2.2C69.2,572.1,68.2,573.1,68.2,574.3z M46.2,574.3c0,1.2,1,2.2,2.2,2.2c1.2,0,2.2-1,2.2-2.2
				c0-1.2-1-2.2-2.2-2.2C47.1,572.1,46.2,573.1,46.2,574.3z M24.1,574.3c0,1.2,1,2.2,2.2,2.2c1.2,0,2.2-1,2.2-2.2
				c0-1.2-1-2.2-2.2-2.2C25.1,572.1,24.1,573.1,24.1,574.3z M2,574.3c0,1.2,1,2.2,2.2,2.2c1.2,0,2.2-1,2.2-2.2c0-1.2-1-2.2-2.2-2.2
				C3,572.1,2,573.1,2,574.3z M-20,574.3c0,1.2,1,2.2,2.2,2.2c1.2,0,2.2-1,2.2-2.2c0-1.2-1-2.2-2.2-2.2C-19,572.1-20,573.1-20,574.3
				z M233.6,560.3c0,1.2,1,2.2,2.2,2.2s2.2-1,2.2-2.2c0-1.2-1-2.2-2.2-2.2C234.6,558.2,233.6,559.1,233.6,560.3z M211.6,560.3
				c0,1.2,1,2.2,2.2,2.2c1.2,0,2.2-1,2.2-2.2c0-1.2-1-2.2-2.2-2.2C212.6,558.2,211.6,559.1,211.6,560.3z M189.5,560.3
				c0,1.2,1,2.2,2.2,2.2c1.2,0,2.2-1,2.2-2.2c0-1.2-1-2.2-2.2-2.2C190.5,558.2,189.5,559.1,189.5,560.3z M167.5,560.3
				c0,1.2,1,2.2,2.2,2.2s2.2-1,2.2-2.2c0-1.2-1-2.2-2.2-2.2C168.4,558.2,167.5,559.1,167.5,560.3z M145.4,560.3c0,1.2,1,2.2,2.2,2.2
				c1.2,0,2.2-1,2.2-2.2c0-1.2-1-2.2-2.2-2.2C146.4,558.2,145.4,559.1,145.4,560.3z M123.3,560.3c0,1.2,1,2.2,2.2,2.2
				c1.2,0,2.2-1,2.2-2.2c0-1.2-1-2.2-2.2-2.2C124.3,558.2,123.3,559.1,123.3,560.3z M101.3,560.3c0,1.2,1,2.2,2.2,2.2
				c1.2,0,2.2-1,2.2-2.2c0-1.2-1-2.2-2.2-2.2C102.3,558.2,101.3,559.1,101.3,560.3z M79.2,560.3c0,1.2,1,2.2,2.2,2.2
				c1.2,0,2.2-1,2.2-2.2c0-1.2-1-2.2-2.2-2.2C80.2,558.2,79.2,559.1,79.2,560.3z M57.2,560.3c0,1.2,1,2.2,2.2,2.2
				c1.2,0,2.2-1,2.2-2.2c0-1.2-1-2.2-2.2-2.2C58.2,558.2,57.2,559.1,57.2,560.3z M35.1,560.3c0,1.2,1,2.2,2.2,2.2s2.2-1,2.2-2.2
				c0-1.2-1-2.2-2.2-2.2C36.1,558.2,35.1,559.1,35.1,560.3z M13.1,560.3c0,1.2,1,2.2,2.2,2.2s2.2-1,2.2-2.2c0-1.2-1-2.2-2.2-2.2
				C14.1,558.2,13.1,559.1,13.1,560.3z M-9,560.3c0,1.2,1,2.2,2.2,2.2c1.2,0,2.2-1,2.2-2.2c0-1.2-1-2.2-2.2-2.2
				C-8,558.2-9,559.1-9,560.3z M-31,560.3c0,1.2,1,2.2,2.2,2.2c1.2,0,2.2-1,2.2-2.2c0-1.2-1-2.2-2.2-2.2
				C-30,558.2-31,559.1-31,560.3z M244.6,546.4c0,1.2,1,2.2,2.2,2.2c1.2,0,2.2-1,2.2-2.2c0-1.2-1-2.2-2.2-2.2
				C245.6,544.2,244.6,545.1,244.6,546.4z M222.6,546.4c0,1.2,1,2.2,2.2,2.2c1.2,0,2.2-1,2.2-2.2c0-1.2-1-2.2-2.2-2.2
				C223.6,544.2,222.6,545.1,222.6,546.4z M200.5,546.4c0,1.2,1,2.2,2.2,2.2c1.2,0,2.2-1,2.2-2.2c0-1.2-1-2.2-2.2-2.2
				C201.5,544.2,200.5,545.1,200.5,546.4z M178.5,546.4c0,1.2,1,2.2,2.2,2.2c1.2,0,2.2-1,2.2-2.2c0-1.2-1-2.2-2.2-2.2
				C179.5,544.2,178.5,545.1,178.5,546.4z M156.4,546.4c0,1.2,1,2.2,2.2,2.2c1.2,0,2.2-1,2.2-2.2c0-1.2-1-2.2-2.2-2.2
				C157.4,544.2,156.4,545.1,156.4,546.4z M134.4,546.4c0,1.2,1,2.2,2.2,2.2c1.2,0,2.2-1,2.2-2.2c0-1.2-1-2.2-2.2-2.2
				C135.4,544.2,134.4,545.1,134.4,546.4z M112.3,546.4c0,1.2,1,2.2,2.2,2.2c1.2,0,2.2-1,2.2-2.2c0-1.2-1-2.2-2.2-2.2
				C113.3,544.2,112.3,545.1,112.3,546.4z M90.3,546.4c0,1.2,1,2.2,2.2,2.2c1.2,0,2.2-1,2.2-2.2c0-1.2-1-2.2-2.2-2.2
				S90.3,545.1,90.3,546.4z M68.2,546.4c0,1.2,1,2.2,2.2,2.2c1.2,0,2.2-1,2.2-2.2c0-1.2-1-2.2-2.2-2.2S68.2,545.1,68.2,546.4z
				 M46.2,546.4c0,1.2,1,2.2,2.2,2.2c1.2,0,2.2-1,2.2-2.2c0-1.2-1-2.2-2.2-2.2C47.1,544.2,46.2,545.1,46.2,546.4z M24.1,546.4
				c0,1.2,1,2.2,2.2,2.2c1.2,0,2.2-1,2.2-2.2c0-1.2-1-2.2-2.2-2.2C25.1,544.2,24.1,545.1,24.1,546.4z M2,546.4c0,1.2,1,2.2,2.2,2.2
				c1.2,0,2.2-1,2.2-2.2c0-1.2-1-2.2-2.2-2.2C3,544.2,2,545.1,2,546.4z M-20,546.4c0,1.2,1,2.2,2.2,2.2c1.2,0,2.2-1,2.2-2.2
				c0-1.2-1-2.2-2.2-2.2C-19,544.2-20,545.1-20,546.4z M-42.1,546.4c0,1.2,1,2.2,2.2,2.2c1.2,0,2.2-1,2.2-2.2c0-1.2-1-2.2-2.2-2.2
				C-41.1,544.2-42.1,545.1-42.1,546.4z M255.7,532.4c0,1.2,1,2.2,2.2,2.2c1.2,0,2.2-1,2.2-2.2c0-1.2-1-2.2-2.2-2.2
				C256.7,530.2,255.7,531.2,255.7,532.4z M233.6,532.4c0,1.2,1,2.2,2.2,2.2s2.2-1,2.2-2.2c0-1.2-1-2.2-2.2-2.2
				C234.6,530.2,233.6,531.2,233.6,532.4z M211.6,532.4c0,1.2,1,2.2,2.2,2.2c1.2,0,2.2-1,2.2-2.2c0-1.2-1-2.2-2.2-2.2
				S211.6,531.2,211.6,532.4z M189.5,532.4c0,1.2,1,2.2,2.2,2.2c1.2,0,2.2-1,2.2-2.2c0-1.2-1-2.2-2.2-2.2S189.5,531.2,189.5,532.4z
				 M167.5,532.4c0,1.2,1,2.2,2.2,2.2s2.2-1,2.2-2.2c0-1.2-1-2.2-2.2-2.2S167.5,531.2,167.5,532.4z M145.4,532.4
				c0,1.2,1,2.2,2.2,2.2c1.2,0,2.2-1,2.2-2.2c0-1.2-1-2.2-2.2-2.2C146.4,530.2,145.4,531.2,145.4,532.4z M123.3,532.4
				c0,1.2,1,2.2,2.2,2.2c1.2,0,2.2-1,2.2-2.2c0-1.2-1-2.2-2.2-2.2S123.3,531.2,123.3,532.4z M101.3,532.4c0,1.2,1,2.2,2.2,2.2
				c1.2,0,2.2-1,2.2-2.2c0-1.2-1-2.2-2.2-2.2C102.3,530.2,101.3,531.2,101.3,532.4z M79.2,532.4c0,1.2,1,2.2,2.2,2.2
				c1.2,0,2.2-1,2.2-2.2c0-1.2-1-2.2-2.2-2.2C80.2,530.2,79.2,531.2,79.2,532.4z M57.2,532.4c0,1.2,1,2.2,2.2,2.2
				c1.2,0,2.2-1,2.2-2.2c0-1.2-1-2.2-2.2-2.2C58.2,530.2,57.2,531.2,57.2,532.4z M35.1,532.4c0,1.2,1,2.2,2.2,2.2s2.2-1,2.2-2.2
				c0-1.2-1-2.2-2.2-2.2S35.1,531.2,35.1,532.4z M13.1,532.4c0,1.2,1,2.2,2.2,2.2s2.2-1,2.2-2.2c0-1.2-1-2.2-2.2-2.2
				S13.1,531.2,13.1,532.4z M-9,532.4c0,1.2,1,2.2,2.2,2.2c1.2,0,2.2-1,2.2-2.2c0-1.2-1-2.2-2.2-2.2C-8,530.2-9,531.2-9,532.4z
				 M-31,532.4c0,1.2,1,2.2,2.2,2.2c1.2,0,2.2-1,2.2-2.2c0-1.2-1-2.2-2.2-2.2C-30,530.2-31,531.2-31,532.4z M-53.1,532.4
				c0,1.2,1,2.2,2.2,2.2s2.2-1,2.2-2.2c0-1.2-1-2.2-2.2-2.2S-53.1,531.2-53.1,532.4z M244.6,518.4c0,1.2,1,2.2,2.2,2.2
				c1.2,0,2.2-1,2.2-2.2c0-1.2-1-2.2-2.2-2.2C245.6,516.2,244.6,517.2,244.6,518.4z M222.6,518.4c0,1.2,1,2.2,2.2,2.2
				c1.2,0,2.2-1,2.2-2.2c0-1.2-1-2.2-2.2-2.2C223.6,516.2,222.6,517.2,222.6,518.4z M200.5,518.4c0,1.2,1,2.2,2.2,2.2
				c1.2,0,2.2-1,2.2-2.2c0-1.2-1-2.2-2.2-2.2C201.5,516.2,200.5,517.2,200.5,518.4z M178.5,518.4c0,1.2,1,2.2,2.2,2.2
				c1.2,0,2.2-1,2.2-2.2c0-1.2-1-2.2-2.2-2.2C179.5,516.2,178.5,517.2,178.5,518.4z M156.4,518.4c0,1.2,1,2.2,2.2,2.2
				c1.2,0,2.2-1,2.2-2.2c0-1.2-1-2.2-2.2-2.2C157.4,516.2,156.4,517.2,156.4,518.4z M134.4,518.4c0,1.2,1,2.2,2.2,2.2
				c1.2,0,2.2-1,2.2-2.2c0-1.2-1-2.2-2.2-2.2C135.4,516.2,134.4,517.2,134.4,518.4z M112.3,518.4c0,1.2,1,2.2,2.2,2.2
				c1.2,0,2.2-1,2.2-2.2c0-1.2-1-2.2-2.2-2.2C113.3,516.2,112.3,517.2,112.3,518.4z M90.3,518.4c0,1.2,1,2.2,2.2,2.2
				c1.2,0,2.2-1,2.2-2.2c0-1.2-1-2.2-2.2-2.2S90.3,517.2,90.3,518.4z M68.2,518.4c0,1.2,1,2.2,2.2,2.2c1.2,0,2.2-1,2.2-2.2
				c0-1.2-1-2.2-2.2-2.2S68.2,517.2,68.2,518.4z M46.2,518.4c0,1.2,1,2.2,2.2,2.2c1.2,0,2.2-1,2.2-2.2c0-1.2-1-2.2-2.2-2.2
				C47.1,516.2,46.2,517.2,46.2,518.4z M24.1,518.4c0,1.2,1,2.2,2.2,2.2c1.2,0,2.2-1,2.2-2.2c0-1.2-1-2.2-2.2-2.2
				C25.1,516.2,24.1,517.2,24.1,518.4z M2,518.4c0,1.2,1,2.2,2.2,2.2c1.2,0,2.2-1,2.2-2.2c0-1.2-1-2.2-2.2-2.2
				C3,516.2,2,517.2,2,518.4z M-20,518.4c0,1.2,1,2.2,2.2,2.2c1.2,0,2.2-1,2.2-2.2c0-1.2-1-2.2-2.2-2.2C-19,516.2-20,517.2-20,518.4
				z M-42.1,518.4c0,1.2,1,2.2,2.2,2.2c1.2,0,2.2-1,2.2-2.2c0-1.2-1-2.2-2.2-2.2C-41.1,516.2-42.1,517.2-42.1,518.4z M255.7,504.4
				c0,1.2,1,2.2,2.2,2.2c1.2,0,2.2-1,2.2-2.2c0-1.2-1-2.2-2.2-2.2C256.7,502.2,255.7,503.2,255.7,504.4z M233.6,504.4
				c0,1.2,1,2.2,2.2,2.2s2.2-1,2.2-2.2c0-1.2-1-2.2-2.2-2.2C234.6,502.2,233.6,503.2,233.6,504.4z M211.6,504.4c0,1.2,1,2.2,2.2,2.2
				c1.2,0,2.2-1,2.2-2.2c0-1.2-1-2.2-2.2-2.2S211.6,503.2,211.6,504.4z M189.5,504.4c0,1.2,1,2.2,2.2,2.2c1.2,0,2.2-1,2.2-2.2
				c0-1.2-1-2.2-2.2-2.2S189.5,503.2,189.5,504.4z M167.5,504.4c0,1.2,1,2.2,2.2,2.2s2.2-1,2.2-2.2c0-1.2-1-2.2-2.2-2.2
				S167.5,503.2,167.5,504.4z M145.4,504.4c0,1.2,1,2.2,2.2,2.2c1.2,0,2.2-1,2.2-2.2c0-1.2-1-2.2-2.2-2.2
				C146.4,502.2,145.4,503.2,145.4,504.4z M123.3,504.4c0,1.2,1,2.2,2.2,2.2c1.2,0,2.2-1,2.2-2.2c0-1.2-1-2.2-2.2-2.2
				S123.3,503.2,123.3,504.4z M101.3,504.4c0,1.2,1,2.2,2.2,2.2c1.2,0,2.2-1,2.2-2.2c0-1.2-1-2.2-2.2-2.2
				C102.3,502.2,101.3,503.2,101.3,504.4z M79.2,504.4c0,1.2,1,2.2,2.2,2.2c1.2,0,2.2-1,2.2-2.2c0-1.2-1-2.2-2.2-2.2
				C80.2,502.2,79.2,503.2,79.2,504.4z M57.2,504.4c0,1.2,1,2.2,2.2,2.2c1.2,0,2.2-1,2.2-2.2c0-1.2-1-2.2-2.2-2.2
				C58.2,502.2,57.2,503.2,57.2,504.4z M35.1,504.4c0,1.2,1,2.2,2.2,2.2s2.2-1,2.2-2.2c0-1.2-1-2.2-2.2-2.2S35.1,503.2,35.1,504.4z
				 M13.1,504.4c0,1.2,1,2.2,2.2,2.2s2.2-1,2.2-2.2c0-1.2-1-2.2-2.2-2.2S13.1,503.2,13.1,504.4z M-9,504.4c0,1.2,1,2.2,2.2,2.2
				c1.2,0,2.2-1,2.2-2.2c0-1.2-1-2.2-2.2-2.2C-8,502.2-9,503.2-9,504.4z M-31,504.4c0,1.2,1,2.2,2.2,2.2c1.2,0,2.2-1,2.2-2.2
				c0-1.2-1-2.2-2.2-2.2C-30,502.2-31,503.2-31,504.4z M-53.1,504.4c0,1.2,1,2.2,2.2,2.2s2.2-1,2.2-2.2c0-1.2-1-2.2-2.2-2.2
				S-53.1,503.2-53.1,504.4z M266.7,490.4c0,1.2,1,2.2,2.2,2.2c1.2,0,2.2-1,2.2-2.2c0-1.2-1-2.2-2.2-2.2
				C267.7,488.2,266.7,489.2,266.7,490.4z M244.6,490.4c0,1.2,1,2.2,2.2,2.2c1.2,0,2.2-1,2.2-2.2c0-1.2-1-2.2-2.2-2.2
				C245.6,488.2,244.6,489.2,244.6,490.4z M222.6,490.4c0,1.2,1,2.2,2.2,2.2c1.2,0,2.2-1,2.2-2.2c0-1.2-1-2.2-2.2-2.2
				C223.6,488.2,222.6,489.2,222.6,490.4z M200.5,490.4c0,1.2,1,2.2,2.2,2.2c1.2,0,2.2-1,2.2-2.2c0-1.2-1-2.2-2.2-2.2
				C201.5,488.2,200.5,489.2,200.5,490.4z M178.5,490.4c0,1.2,1,2.2,2.2,2.2c1.2,0,2.2-1,2.2-2.2c0-1.2-1-2.2-2.2-2.2
				C179.5,488.2,178.5,489.2,178.5,490.4z M156.4,490.4c0,1.2,1,2.2,2.2,2.2c1.2,0,2.2-1,2.2-2.2c0-1.2-1-2.2-2.2-2.2
				C157.4,488.2,156.4,489.2,156.4,490.4z M134.4,490.4c0,1.2,1,2.2,2.2,2.2c1.2,0,2.2-1,2.2-2.2c0-1.2-1-2.2-2.2-2.2
				C135.4,488.2,134.4,489.2,134.4,490.4z M112.3,490.4c0,1.2,1,2.2,2.2,2.2c1.2,0,2.2-1,2.2-2.2c0-1.2-1-2.2-2.2-2.2
				C113.3,488.2,112.3,489.2,112.3,490.4z M90.3,490.4c0,1.2,1,2.2,2.2,2.2c1.2,0,2.2-1,2.2-2.2c0-1.2-1-2.2-2.2-2.2
				C91.3,488.2,90.3,489.2,90.3,490.4z M68.2,490.4c0,1.2,1,2.2,2.2,2.2c1.2,0,2.2-1,2.2-2.2c0-1.2-1-2.2-2.2-2.2
				C69.2,488.2,68.2,489.2,68.2,490.4z M46.2,490.4c0,1.2,1,2.2,2.2,2.2c1.2,0,2.2-1,2.2-2.2c0-1.2-1-2.2-2.2-2.2
				C47.1,488.2,46.2,489.2,46.2,490.4z M24.1,490.4c0,1.2,1,2.2,2.2,2.2c1.2,0,2.2-1,2.2-2.2c0-1.2-1-2.2-2.2-2.2
				C25.1,488.2,24.1,489.2,24.1,490.4z M2,490.4c0,1.2,1,2.2,2.2,2.2c1.2,0,2.2-1,2.2-2.2c0-1.2-1-2.2-2.2-2.2
				C3,488.2,2,489.2,2,490.4z M-20,490.4c0,1.2,1,2.2,2.2,2.2c1.2,0,2.2-1,2.2-2.2c0-1.2-1-2.2-2.2-2.2C-19,488.2-20,489.2-20,490.4
				z M-42.1,490.4c0,1.2,1,2.2,2.2,2.2c1.2,0,2.2-1,2.2-2.2c0-1.2-1-2.2-2.2-2.2C-41.1,488.2-42.1,489.2-42.1,490.4z M-64.1,490.4
				c0,1.2,1,2.2,2.2,2.2s2.2-1,2.2-2.2c0-1.2-1-2.2-2.2-2.2C-63.1,488.2-64.1,489.2-64.1,490.4z M255.7,476.4c0,1.2,1,2.2,2.2,2.2
				c1.2,0,2.2-1,2.2-2.2c0-1.2-1-2.2-2.2-2.2C256.7,474.2,255.7,475.2,255.7,476.4z M233.6,476.4c0,1.2,1,2.2,2.2,2.2s2.2-1,2.2-2.2
				c0-1.2-1-2.2-2.2-2.2C234.6,474.2,233.6,475.2,233.6,476.4z M211.6,476.4c0,1.2,1,2.2,2.2,2.2c1.2,0,2.2-1,2.2-2.2
				c0-1.2-1-2.2-2.2-2.2S211.6,475.2,211.6,476.4z M189.5,476.4c0,1.2,1,2.2,2.2,2.2c1.2,0,2.2-1,2.2-2.2c0-1.2-1-2.2-2.2-2.2
				S189.5,475.2,189.5,476.4z M167.5,476.4c0,1.2,1,2.2,2.2,2.2s2.2-1,2.2-2.2c0-1.2-1-2.2-2.2-2.2S167.5,475.2,167.5,476.4z
				 M145.4,476.4c0,1.2,1,2.2,2.2,2.2c1.2,0,2.2-1,2.2-2.2c0-1.2-1-2.2-2.2-2.2C146.4,474.2,145.4,475.2,145.4,476.4z M123.3,476.4
				c0,1.2,1,2.2,2.2,2.2c1.2,0,2.2-1,2.2-2.2c0-1.2-1-2.2-2.2-2.2S123.3,475.2,123.3,476.4z M101.3,476.4c0,1.2,1,2.2,2.2,2.2
				c1.2,0,2.2-1,2.2-2.2c0-1.2-1-2.2-2.2-2.2C102.3,474.2,101.3,475.2,101.3,476.4z M79.2,476.4c0,1.2,1,2.2,2.2,2.2
				c1.2,0,2.2-1,2.2-2.2c0-1.2-1-2.2-2.2-2.2C80.2,474.2,79.2,475.2,79.2,476.4z M57.2,476.4c0,1.2,1,2.2,2.2,2.2
				c1.2,0,2.2-1,2.2-2.2c0-1.2-1-2.2-2.2-2.2C58.2,474.2,57.2,475.2,57.2,476.4z M35.1,476.4c0,1.2,1,2.2,2.2,2.2s2.2-1,2.2-2.2
				c0-1.2-1-2.2-2.2-2.2S35.1,475.2,35.1,476.4z M13.1,476.4c0,1.2,1,2.2,2.2,2.2s2.2-1,2.2-2.2c0-1.2-1-2.2-2.2-2.2
				S13.1,475.2,13.1,476.4z M-9,476.4c0,1.2,1,2.2,2.2,2.2c1.2,0,2.2-1,2.2-2.2c0-1.2-1-2.2-2.2-2.2C-8,474.2-9,475.2-9,476.4z
				 M-31,476.4c0,1.2,1,2.2,2.2,2.2c1.2,0,2.2-1,2.2-2.2c0-1.2-1-2.2-2.2-2.2C-30,474.2-31,475.2-31,476.4z M-53.1,476.4
				c0,1.2,1,2.2,2.2,2.2s2.2-1,2.2-2.2c0-1.2-1-2.2-2.2-2.2S-53.1,475.2-53.1,476.4z M266.7,462.4c0,1.2,1,2.2,2.2,2.2
				c1.2,0,2.2-1,2.2-2.2c0-1.2-1-2.2-2.2-2.2C267.7,460.2,266.7,461.2,266.7,462.4z M244.6,462.4c0,1.2,1,2.2,2.2,2.2
				c1.2,0,2.2-1,2.2-2.2c0-1.2-1-2.2-2.2-2.2C245.6,460.2,244.6,461.2,244.6,462.4z M222.6,462.4c0,1.2,1,2.2,2.2,2.2
				c1.2,0,2.2-1,2.2-2.2c0-1.2-1-2.2-2.2-2.2C223.6,460.2,222.6,461.2,222.6,462.4z M200.5,462.4c0,1.2,1,2.2,2.2,2.2
				c1.2,0,2.2-1,2.2-2.2c0-1.2-1-2.2-2.2-2.2C201.5,460.2,200.5,461.2,200.5,462.4z M178.5,462.4c0,1.2,1,2.2,2.2,2.2
				c1.2,0,2.2-1,2.2-2.2c0-1.2-1-2.2-2.2-2.2C179.5,460.2,178.5,461.2,178.5,462.4z M156.4,462.4c0,1.2,1,2.2,2.2,2.2
				c1.2,0,2.2-1,2.2-2.2c0-1.2-1-2.2-2.2-2.2C157.4,460.2,156.4,461.2,156.4,462.4z M134.4,462.4c0,1.2,1,2.2,2.2,2.2
				c1.2,0,2.2-1,2.2-2.2c0-1.2-1-2.2-2.2-2.2C135.4,460.2,134.4,461.2,134.4,462.4z M112.3,462.4c0,1.2,1,2.2,2.2,2.2
				c1.2,0,2.2-1,2.2-2.2c0-1.2-1-2.2-2.2-2.2C113.3,460.2,112.3,461.2,112.3,462.4z M90.3,462.4c0,1.2,1,2.2,2.2,2.2
				c1.2,0,2.2-1,2.2-2.2c0-1.2-1-2.2-2.2-2.2S90.3,461.2,90.3,462.4z M68.2,462.4c0,1.2,1,2.2,2.2,2.2c1.2,0,2.2-1,2.2-2.2
				c0-1.2-1-2.2-2.2-2.2S68.2,461.2,68.2,462.4z M46.2,462.4c0,1.2,1,2.2,2.2,2.2c1.2,0,2.2-1,2.2-2.2c0-1.2-1-2.2-2.2-2.2
				C47.1,460.2,46.2,461.2,46.2,462.4z M24.1,462.4c0,1.2,1,2.2,2.2,2.2c1.2,0,2.2-1,2.2-2.2c0-1.2-1-2.2-2.2-2.2
				C25.1,460.2,24.1,461.2,24.1,462.4z M2,462.4c0,1.2,1,2.2,2.2,2.2c1.2,0,2.2-1,2.2-2.2c0-1.2-1-2.2-2.2-2.2
				C3,460.2,2,461.2,2,462.4z M-20,462.4c0,1.2,1,2.2,2.2,2.2c1.2,0,2.2-1,2.2-2.2c0-1.2-1-2.2-2.2-2.2C-19,460.2-20,461.2-20,462.4
				z M-42.1,462.4c0,1.2,1,2.2,2.2,2.2c1.2,0,2.2-1,2.2-2.2c0-1.2-1-2.2-2.2-2.2C-41.1,460.2-42.1,461.2-42.1,462.4z M-64.1,462.4
				c0,1.2,1,2.2,2.2,2.2s2.2-1,2.2-2.2c0-1.2-1-2.2-2.2-2.2C-63.1,460.2-64.1,461.2-64.1,462.4z M255.7,448.4c0,1.2,1,2.2,2.2,2.2
				c1.2,0,2.2-1,2.2-2.2c0-1.2-1-2.2-2.2-2.2C256.7,446.2,255.7,447.2,255.7,448.4z M233.6,448.4c0,1.2,1,2.2,2.2,2.2s2.2-1,2.2-2.2
				c0-1.2-1-2.2-2.2-2.2C234.6,446.2,233.6,447.2,233.6,448.4z M211.6,448.4c0,1.2,1,2.2,2.2,2.2c1.2,0,2.2-1,2.2-2.2
				c0-1.2-1-2.2-2.2-2.2C212.6,446.2,211.6,447.2,211.6,448.4z M189.5,448.4c0,1.2,1,2.2,2.2,2.2c1.2,0,2.2-1,2.2-2.2
				c0-1.2-1-2.2-2.2-2.2C190.5,446.2,189.5,447.2,189.5,448.4z M167.5,448.4c0,1.2,1,2.2,2.2,2.2s2.2-1,2.2-2.2c0-1.2-1-2.2-2.2-2.2
				C168.4,446.2,167.5,447.2,167.5,448.4z M145.4,448.4c0,1.2,1,2.2,2.2,2.2c1.2,0,2.2-1,2.2-2.2c0-1.2-1-2.2-2.2-2.2
				C146.4,446.2,145.4,447.2,145.4,448.4z M123.3,448.4c0,1.2,1,2.2,2.2,2.2c1.2,0,2.2-1,2.2-2.2c0-1.2-1-2.2-2.2-2.2
				C124.3,446.2,123.3,447.2,123.3,448.4z M101.3,448.4c0,1.2,1,2.2,2.2,2.2c1.2,0,2.2-1,2.2-2.2c0-1.2-1-2.2-2.2-2.2
				C102.3,446.2,101.3,447.2,101.3,448.4z M79.2,448.4c0,1.2,1,2.2,2.2,2.2c1.2,0,2.2-1,2.2-2.2c0-1.2-1-2.2-2.2-2.2
				C80.2,446.2,79.2,447.2,79.2,448.4z M57.2,448.4c0,1.2,1,2.2,2.2,2.2c1.2,0,2.2-1,2.2-2.2c0-1.2-1-2.2-2.2-2.2
				C58.2,446.2,57.2,447.2,57.2,448.4z M35.1,448.4c0,1.2,1,2.2,2.2,2.2s2.2-1,2.2-2.2c0-1.2-1-2.2-2.2-2.2
				C36.1,446.2,35.1,447.2,35.1,448.4z M13.1,448.4c0,1.2,1,2.2,2.2,2.2s2.2-1,2.2-2.2c0-1.2-1-2.2-2.2-2.2
				C14.1,446.2,13.1,447.2,13.1,448.4z M-9,448.4c0,1.2,1,2.2,2.2,2.2c1.2,0,2.2-1,2.2-2.2c0-1.2-1-2.2-2.2-2.2
				C-8,446.2-9,447.2-9,448.4z M-31,448.4c0,1.2,1,2.2,2.2,2.2c1.2,0,2.2-1,2.2-2.2c0-1.2-1-2.2-2.2-2.2
				C-30,446.2-31,447.2-31,448.4z M-53.1,448.4c0,1.2,1,2.2,2.2,2.2s2.2-1,2.2-2.2c0-1.2-1-2.2-2.2-2.2
				C-52.1,446.2-53.1,447.2-53.1,448.4z M244.6,434.4c0,1.2,1,2.2,2.2,2.2c1.2,0,2.2-1,2.2-2.2c0-1.2-1-2.2-2.2-2.2
				C245.6,432.2,244.6,433.2,244.6,434.4z M222.6,434.4c0,1.2,1,2.2,2.2,2.2c1.2,0,2.2-1,2.2-2.2c0-1.2-1-2.2-2.2-2.2
				C223.6,432.2,222.6,433.2,222.6,434.4z M200.5,434.4c0,1.2,1,2.2,2.2,2.2c1.2,0,2.2-1,2.2-2.2c0-1.2-1-2.2-2.2-2.2
				C201.5,432.2,200.5,433.2,200.5,434.4z M178.5,434.4c0,1.2,1,2.2,2.2,2.2c1.2,0,2.2-1,2.2-2.2c0-1.2-1-2.2-2.2-2.2
				C179.5,432.2,178.5,433.2,178.5,434.4z M156.4,434.4c0,1.2,1,2.2,2.2,2.2c1.2,0,2.2-1,2.2-2.2c0-1.2-1-2.2-2.2-2.2
				C157.4,432.2,156.4,433.2,156.4,434.4z M134.4,434.4c0,1.2,1,2.2,2.2,2.2c1.2,0,2.2-1,2.2-2.2c0-1.2-1-2.2-2.2-2.2
				C135.4,432.2,134.4,433.2,134.4,434.4z M112.3,434.4c0,1.2,1,2.2,2.2,2.2c1.2,0,2.2-1,2.2-2.2c0-1.2-1-2.2-2.2-2.2
				C113.3,432.2,112.3,433.2,112.3,434.4z M90.3,434.4c0,1.2,1,2.2,2.2,2.2c1.2,0,2.2-1,2.2-2.2c0-1.2-1-2.2-2.2-2.2
				S90.3,433.2,90.3,434.4z M68.2,434.4c0,1.2,1,2.2,2.2,2.2c1.2,0,2.2-1,2.2-2.2c0-1.2-1-2.2-2.2-2.2S68.2,433.2,68.2,434.4z
				 M46.2,434.4c0,1.2,1,2.2,2.2,2.2c1.2,0,2.2-1,2.2-2.2c0-1.2-1-2.2-2.2-2.2C47.1,432.2,46.2,433.2,46.2,434.4z M24.1,434.4
				c0,1.2,1,2.2,2.2,2.2c1.2,0,2.2-1,2.2-2.2c0-1.2-1-2.2-2.2-2.2C25.1,432.2,24.1,433.2,24.1,434.4z M2,434.4c0,1.2,1,2.2,2.2,2.2
				c1.2,0,2.2-1,2.2-2.2c0-1.2-1-2.2-2.2-2.2C3,432.2,2,433.2,2,434.4z M-20,434.4c0,1.2,1,2.2,2.2,2.2c1.2,0,2.2-1,2.2-2.2
				c0-1.2-1-2.2-2.2-2.2C-19,432.2-20,433.2-20,434.4z M-42.1,434.4c0,1.2,1,2.2,2.2,2.2c1.2,0,2.2-1,2.2-2.2c0-1.2-1-2.2-2.2-2.2
				C-41.1,432.2-42.1,433.2-42.1,434.4z M255.7,420.5c0,1.2,1,2.2,2.2,2.2c1.2,0,2.2-1,2.2-2.2s-1-2.2-2.2-2.2
				C256.7,418.3,255.7,419.2,255.7,420.5z M233.6,420.5c0,1.2,1,2.2,2.2,2.2s2.2-1,2.2-2.2s-1-2.2-2.2-2.2
				C234.6,418.3,233.6,419.2,233.6,420.5z M211.6,420.5c0,1.2,1,2.2,2.2,2.2c1.2,0,2.2-1,2.2-2.2s-1-2.2-2.2-2.2
				S211.6,419.2,211.6,420.5z M189.5,420.5c0,1.2,1,2.2,2.2,2.2c1.2,0,2.2-1,2.2-2.2s-1-2.2-2.2-2.2S189.5,419.2,189.5,420.5z
				 M167.5,420.5c0,1.2,1,2.2,2.2,2.2s2.2-1,2.2-2.2s-1-2.2-2.2-2.2S167.5,419.2,167.5,420.5z M145.4,420.5c0,1.2,1,2.2,2.2,2.2
				c1.2,0,2.2-1,2.2-2.2s-1-2.2-2.2-2.2C146.4,418.3,145.4,419.2,145.4,420.5z M123.3,420.5c0,1.2,1,2.2,2.2,2.2
				c1.2,0,2.2-1,2.2-2.2s-1-2.2-2.2-2.2S123.3,419.2,123.3,420.5z M101.3,420.5c0,1.2,1,2.2,2.2,2.2c1.2,0,2.2-1,2.2-2.2
				s-1-2.2-2.2-2.2C102.3,418.3,101.3,419.2,101.3,420.5z M79.2,420.5c0,1.2,1,2.2,2.2,2.2c1.2,0,2.2-1,2.2-2.2s-1-2.2-2.2-2.2
				C80.2,418.3,79.2,419.2,79.2,420.5z M57.2,420.5c0,1.2,1,2.2,2.2,2.2c1.2,0,2.2-1,2.2-2.2s-1-2.2-2.2-2.2
				C58.2,418.3,57.2,419.2,57.2,420.5z M35.1,420.5c0,1.2,1,2.2,2.2,2.2s2.2-1,2.2-2.2s-1-2.2-2.2-2.2S35.1,419.2,35.1,420.5z
				 M13.1,420.5c0,1.2,1,2.2,2.2,2.2s2.2-1,2.2-2.2s-1-2.2-2.2-2.2S13.1,419.2,13.1,420.5z M-9,420.5c0,1.2,1,2.2,2.2,2.2
				c1.2,0,2.2-1,2.2-2.2s-1-2.2-2.2-2.2C-8,418.3-9,419.2-9,420.5z M-31,420.5c0,1.2,1,2.2,2.2,2.2c1.2,0,2.2-1,2.2-2.2
				s-1-2.2-2.2-2.2C-30,418.3-31,419.2-31,420.5z M-53.1,420.5c0,1.2,1,2.2,2.2,2.2s2.2-1,2.2-2.2s-1-2.2-2.2-2.2
				S-53.1,419.2-53.1,420.5z M244.6,406.5c0,1.2,1,2.2,2.2,2.2c1.2,0,2.2-1,2.2-2.2c0-1.2-1-2.2-2.2-2.2
				C245.6,404.3,244.6,405.2,244.6,406.5z M222.6,406.5c0,1.2,1,2.2,2.2,2.2c1.2,0,2.2-1,2.2-2.2c0-1.2-1-2.2-2.2-2.2
				C223.6,404.3,222.6,405.2,222.6,406.5z M200.5,406.5c0,1.2,1,2.2,2.2,2.2c1.2,0,2.2-1,2.2-2.2c0-1.2-1-2.2-2.2-2.2
				C201.5,404.3,200.5,405.2,200.5,406.5z M178.5,406.5c0,1.2,1,2.2,2.2,2.2c1.2,0,2.2-1,2.2-2.2c0-1.2-1-2.2-2.2-2.2
				C179.5,404.3,178.5,405.2,178.5,406.5z M156.4,406.5c0,1.2,1,2.2,2.2,2.2c1.2,0,2.2-1,2.2-2.2c0-1.2-1-2.2-2.2-2.2
				C157.4,404.3,156.4,405.2,156.4,406.5z M134.4,406.5c0,1.2,1,2.2,2.2,2.2c1.2,0,2.2-1,2.2-2.2c0-1.2-1-2.2-2.2-2.2
				C135.4,404.3,134.4,405.2,134.4,406.5z M112.3,406.5c0,1.2,1,2.2,2.2,2.2c1.2,0,2.2-1,2.2-2.2c0-1.2-1-2.2-2.2-2.2
				C113.3,404.3,112.3,405.2,112.3,406.5z M90.3,406.5c0,1.2,1,2.2,2.2,2.2c1.2,0,2.2-1,2.2-2.2c0-1.2-1-2.2-2.2-2.2
				C91.3,404.3,90.3,405.2,90.3,406.5z M68.2,406.5c0,1.2,1,2.2,2.2,2.2c1.2,0,2.2-1,2.2-2.2c0-1.2-1-2.2-2.2-2.2
				C69.2,404.3,68.2,405.2,68.2,406.5z M46.2,406.5c0,1.2,1,2.2,2.2,2.2c1.2,0,2.2-1,2.2-2.2c0-1.2-1-2.2-2.2-2.2
				C47.1,404.3,46.2,405.2,46.2,406.5z M24.1,406.5c0,1.2,1,2.2,2.2,2.2c1.2,0,2.2-1,2.2-2.2c0-1.2-1-2.2-2.2-2.2
				C25.1,404.3,24.1,405.2,24.1,406.5z M2,406.5c0,1.2,1,2.2,2.2,2.2c1.2,0,2.2-1,2.2-2.2c0-1.2-1-2.2-2.2-2.2
				C3,404.3,2,405.2,2,406.5z M-20,406.5c0,1.2,1,2.2,2.2,2.2c1.2,0,2.2-1,2.2-2.2c0-1.2-1-2.2-2.2-2.2C-19,404.3-20,405.2-20,406.5
				z M-42.1,406.5c0,1.2,1,2.2,2.2,2.2c1.2,0,2.2-1,2.2-2.2c0-1.2-1-2.2-2.2-2.2C-41.1,404.3-42.1,405.2-42.1,406.5z M233.6,392.5
				c0,1.2,1,2.2,2.2,2.2s2.2-1,2.2-2.2c0-1.2-1-2.2-2.2-2.2C234.6,390.3,233.6,391.3,233.6,392.5z M211.6,392.5c0,1.2,1,2.2,2.2,2.2
				c1.2,0,2.2-1,2.2-2.2c0-1.2-1-2.2-2.2-2.2S211.6,391.3,211.6,392.5z M189.5,392.5c0,1.2,1,2.2,2.2,2.2c1.2,0,2.2-1,2.2-2.2
				c0-1.2-1-2.2-2.2-2.2S189.5,391.3,189.5,392.5z M167.5,392.5c0,1.2,1,2.2,2.2,2.2s2.2-1,2.2-2.2c0-1.2-1-2.2-2.2-2.2
				S167.5,391.3,167.5,392.5z M145.4,392.5c0,1.2,1,2.2,2.2,2.2c1.2,0,2.2-1,2.2-2.2c0-1.2-1-2.2-2.2-2.2
				C146.4,390.3,145.4,391.3,145.4,392.5z M123.3,392.5c0,1.2,1,2.2,2.2,2.2c1.2,0,2.2-1,2.2-2.2c0-1.2-1-2.2-2.2-2.2
				S123.3,391.3,123.3,392.5z M101.3,392.5c0,1.2,1,2.2,2.2,2.2c1.2,0,2.2-1,2.2-2.2c0-1.2-1-2.2-2.2-2.2
				C102.3,390.3,101.3,391.3,101.3,392.5z M79.2,392.5c0,1.2,1,2.2,2.2,2.2c1.2,0,2.2-1,2.2-2.2c0-1.2-1-2.2-2.2-2.2
				C80.2,390.3,79.2,391.3,79.2,392.5z M57.2,392.5c0,1.2,1,2.2,2.2,2.2c1.2,0,2.2-1,2.2-2.2c0-1.2-1-2.2-2.2-2.2
				C58.2,390.3,57.2,391.3,57.2,392.5z M35.1,392.5c0,1.2,1,2.2,2.2,2.2s2.2-1,2.2-2.2c0-1.2-1-2.2-2.2-2.2S35.1,391.3,35.1,392.5z
				 M13.1,392.5c0,1.2,1,2.2,2.2,2.2s2.2-1,2.2-2.2c0-1.2-1-2.2-2.2-2.2S13.1,391.3,13.1,392.5z M-9,392.5c0,1.2,1,2.2,2.2,2.2
				c1.2,0,2.2-1,2.2-2.2c0-1.2-1-2.2-2.2-2.2C-8,390.3-9,391.3-9,392.5z M-31,392.5c0,1.2,1,2.2,2.2,2.2c1.2,0,2.2-1,2.2-2.2
				c0-1.2-1-2.2-2.2-2.2C-30,390.3-31,391.3-31,392.5z M222.6,378.5c0,1.2,1,2.2,2.2,2.2c1.2,0,2.2-1,2.2-2.2s-1-2.2-2.2-2.2
				C223.6,376.3,222.6,377.3,222.6,378.5z M200.5,378.5c0,1.2,1,2.2,2.2,2.2c1.2,0,2.2-1,2.2-2.2s-1-2.2-2.2-2.2
				C201.5,376.3,200.5,377.3,200.5,378.5z M178.5,378.5c0,1.2,1,2.2,2.2,2.2c1.2,0,2.2-1,2.2-2.2s-1-2.2-2.2-2.2
				C179.5,376.3,178.5,377.3,178.5,378.5z M156.4,378.5c0,1.2,1,2.2,2.2,2.2c1.2,0,2.2-1,2.2-2.2s-1-2.2-2.2-2.2
				C157.4,376.3,156.4,377.3,156.4,378.5z M134.4,378.5c0,1.2,1,2.2,2.2,2.2c1.2,0,2.2-1,2.2-2.2s-1-2.2-2.2-2.2
				C135.4,376.3,134.4,377.3,134.4,378.5z M112.3,378.5c0,1.2,1,2.2,2.2,2.2c1.2,0,2.2-1,2.2-2.2s-1-2.2-2.2-2.2
				C113.3,376.3,112.3,377.3,112.3,378.5z M90.3,378.5c0,1.2,1,2.2,2.2,2.2c1.2,0,2.2-1,2.2-2.2s-1-2.2-2.2-2.2
				S90.3,377.3,90.3,378.5z M68.2,378.5c0,1.2,1,2.2,2.2,2.2c1.2,0,2.2-1,2.2-2.2s-1-2.2-2.2-2.2S68.2,377.3,68.2,378.5z
				 M46.2,378.5c0,1.2,1,2.2,2.2,2.2c1.2,0,2.2-1,2.2-2.2s-1-2.2-2.2-2.2C47.1,376.3,46.2,377.3,46.2,378.5z M24.1,378.5
				c0,1.2,1,2.2,2.2,2.2c1.2,0,2.2-1,2.2-2.2s-1-2.2-2.2-2.2C25.1,376.3,24.1,377.3,24.1,378.5z M2,378.5c0,1.2,1,2.2,2.2,2.2
				c1.2,0,2.2-1,2.2-2.2s-1-2.2-2.2-2.2C3,376.3,2,377.3,2,378.5z M-20,378.5c0,1.2,1,2.2,2.2,2.2c1.2,0,2.2-1,2.2-2.2
				s-1-2.2-2.2-2.2C-19,376.3-20,377.3-20,378.5z M211.6,364.5c0,1.2,1,2.2,2.2,2.2c1.2,0,2.2-1,2.2-2.2c0-1.2-1-2.2-2.2-2.2
				C212.6,362.3,211.6,363.3,211.6,364.5z M189.5,364.5c0,1.2,1,2.2,2.2,2.2c1.2,0,2.2-1,2.2-2.2c0-1.2-1-2.2-2.2-2.2
				C190.5,362.3,189.5,363.3,189.5,364.5z M167.5,364.5c0,1.2,1,2.2,2.2,2.2s2.2-1,2.2-2.2c0-1.2-1-2.2-2.2-2.2
				C168.4,362.3,167.5,363.3,167.5,364.5z M145.4,364.5c0,1.2,1,2.2,2.2,2.2c1.2,0,2.2-1,2.2-2.2c0-1.2-1-2.2-2.2-2.2
				C146.4,362.3,145.4,363.3,145.4,364.5z M123.3,364.5c0,1.2,1,2.2,2.2,2.2c1.2,0,2.2-1,2.2-2.2c0-1.2-1-2.2-2.2-2.2
				C124.3,362.3,123.3,363.3,123.3,364.5z M101.3,364.5c0,1.2,1,2.2,2.2,2.2c1.2,0,2.2-1,2.2-2.2c0-1.2-1-2.2-2.2-2.2
				C102.3,362.3,101.3,363.3,101.3,364.5z M79.2,364.5c0,1.2,1,2.2,2.2,2.2c1.2,0,2.2-1,2.2-2.2c0-1.2-1-2.2-2.2-2.2
				C80.2,362.3,79.2,363.3,79.2,364.5z M57.2,364.5c0,1.2,1,2.2,2.2,2.2c1.2,0,2.2-1,2.2-2.2c0-1.2-1-2.2-2.2-2.2
				C58.2,362.3,57.2,363.3,57.2,364.5z M35.1,364.5c0,1.2,1,2.2,2.2,2.2s2.2-1,2.2-2.2c0-1.2-1-2.2-2.2-2.2
				C36.1,362.3,35.1,363.3,35.1,364.5z M13.1,364.5c0,1.2,1,2.2,2.2,2.2s2.2-1,2.2-2.2c0-1.2-1-2.2-2.2-2.2
				C14.1,362.3,13.1,363.3,13.1,364.5z M-9,364.5c0,1.2,1,2.2,2.2,2.2c1.2,0,2.2-1,2.2-2.2c0-1.2-1-2.2-2.2-2.2
				C-8,362.3-9,363.3-9,364.5z M200.5,350.5c0,1.2,1,2.2,2.2,2.2c1.2,0,2.2-1,2.2-2.2c0-1.2-1-2.2-2.2-2.2
				C201.5,348.3,200.5,349.3,200.5,350.5z M178.5,350.5c0,1.2,1,2.2,2.2,2.2c1.2,0,2.2-1,2.2-2.2c0-1.2-1-2.2-2.2-2.2
				C179.5,348.3,178.5,349.3,178.5,350.5z M156.4,350.5c0,1.2,1,2.2,2.2,2.2c1.2,0,2.2-1,2.2-2.2c0-1.2-1-2.2-2.2-2.2
				C157.4,348.3,156.4,349.3,156.4,350.5z M134.4,350.5c0,1.2,1,2.2,2.2,2.2c1.2,0,2.2-1,2.2-2.2c0-1.2-1-2.2-2.2-2.2
				C135.4,348.3,134.4,349.3,134.4,350.5z M112.3,350.5c0,1.2,1,2.2,2.2,2.2c1.2,0,2.2-1,2.2-2.2c0-1.2-1-2.2-2.2-2.2
				C113.3,348.3,112.3,349.3,112.3,350.5z M90.3,350.5c0,1.2,1,2.2,2.2,2.2c1.2,0,2.2-1,2.2-2.2c0-1.2-1-2.2-2.2-2.2
				S90.3,349.3,90.3,350.5z M68.2,350.5c0,1.2,1,2.2,2.2,2.2c1.2,0,2.2-1,2.2-2.2c0-1.2-1-2.2-2.2-2.2S68.2,349.3,68.2,350.5z
				 M46.2,350.5c0,1.2,1,2.2,2.2,2.2c1.2,0,2.2-1,2.2-2.2c0-1.2-1-2.2-2.2-2.2C47.1,348.3,46.2,349.3,46.2,350.5z M24.1,350.5
				c0,1.2,1,2.2,2.2,2.2c1.2,0,2.2-1,2.2-2.2c0-1.2-1-2.2-2.2-2.2C25.1,348.3,24.1,349.3,24.1,350.5z M2,350.5c0,1.2,1,2.2,2.2,2.2
				c1.2,0,2.2-1,2.2-2.2c0-1.2-1-2.2-2.2-2.2C3,348.3,2,349.3,2,350.5z M189.5,336.5c0,1.2,1,2.2,2.2,2.2c1.2,0,2.2-1,2.2-2.2
				c0-1.2-1-2.2-2.2-2.2C190.5,334.3,189.5,335.3,189.5,336.5z M167.5,336.5c0,1.2,1,2.2,2.2,2.2s2.2-1,2.2-2.2c0-1.2-1-2.2-2.2-2.2
				C168.4,334.3,167.5,335.3,167.5,336.5z M145.4,336.5c0,1.2,1,2.2,2.2,2.2c1.2,0,2.2-1,2.2-2.2c0-1.2-1-2.2-2.2-2.2
				C146.4,334.3,145.4,335.3,145.4,336.5z M123.3,336.5c0,1.2,1,2.2,2.2,2.2c1.2,0,2.2-1,2.2-2.2c0-1.2-1-2.2-2.2-2.2
				C124.3,334.3,123.3,335.3,123.3,336.5z M101.3,336.5c0,1.2,1,2.2,2.2,2.2c1.2,0,2.2-1,2.2-2.2c0-1.2-1-2.2-2.2-2.2
				C102.3,334.3,101.3,335.3,101.3,336.5z M79.2,336.5c0,1.2,1,2.2,2.2,2.2c1.2,0,2.2-1,2.2-2.2c0-1.2-1-2.2-2.2-2.2
				C80.2,334.3,79.2,335.3,79.2,336.5z M57.2,336.5c0,1.2,1,2.2,2.2,2.2c1.2,0,2.2-1,2.2-2.2c0-1.2-1-2.2-2.2-2.2
				C58.2,334.3,57.2,335.3,57.2,336.5z M35.1,336.5c0,1.2,1,2.2,2.2,2.2s2.2-1,2.2-2.2c0-1.2-1-2.2-2.2-2.2
				C36.1,334.3,35.1,335.3,35.1,336.5z M13.1,336.5c0,1.2,1,2.2,2.2,2.2s2.2-1,2.2-2.2c0-1.2-1-2.2-2.2-2.2
				C14.1,334.3,13.1,335.3,13.1,336.5z M178.5,322.5c0,1.2,1,2.2,2.2,2.2c1.2,0,2.2-1,2.2-2.2c0-1.2-1-2.2-2.2-2.2
				C179.5,320.3,178.5,321.3,178.5,322.5z M156.4,322.5c0,1.2,1,2.2,2.2,2.2c1.2,0,2.2-1,2.2-2.2c0-1.2-1-2.2-2.2-2.2
				C157.4,320.3,156.4,321.3,156.4,322.5z M134.4,322.5c0,1.2,1,2.2,2.2,2.2c1.2,0,2.2-1,2.2-2.2c0-1.2-1-2.2-2.2-2.2
				C135.4,320.3,134.4,321.3,134.4,322.5z M112.3,322.5c0,1.2,1,2.2,2.2,2.2c1.2,0,2.2-1,2.2-2.2c0-1.2-1-2.2-2.2-2.2
				C113.3,320.3,112.3,321.3,112.3,322.5z M90.3,322.5c0,1.2,1,2.2,2.2,2.2c1.2,0,2.2-1,2.2-2.2c0-1.2-1-2.2-2.2-2.2
				C91.3,320.3,90.3,321.3,90.3,322.5z M68.2,322.5c0,1.2,1,2.2,2.2,2.2c1.2,0,2.2-1,2.2-2.2c0-1.2-1-2.2-2.2-2.2
				C69.2,320.3,68.2,321.3,68.2,322.5z M46.2,322.5c0,1.2,1,2.2,2.2,2.2c1.2,0,2.2-1,2.2-2.2c0-1.2-1-2.2-2.2-2.2
				C47.1,320.3,46.2,321.3,46.2,322.5z M24.1,322.5c0,1.2,1,2.2,2.2,2.2c1.2,0,2.2-1,2.2-2.2c0-1.2-1-2.2-2.2-2.2
				C25.1,320.3,24.1,321.3,24.1,322.5z M145.4,308.5c0,1.2,1,2.2,2.2,2.2c1.2,0,2.2-1,2.2-2.2s-1-2.2-2.2-2.2
				C146.4,306.3,145.4,307.3,145.4,308.5z M123.3,308.5c0,1.2,1,2.2,2.2,2.2c1.2,0,2.2-1,2.2-2.2s-1-2.2-2.2-2.2
				S123.3,307.3,123.3,308.5z M101.3,308.5c0,1.2,1,2.2,2.2,2.2c1.2,0,2.2-1,2.2-2.2s-1-2.2-2.2-2.2
				C102.3,306.3,101.3,307.3,101.3,308.5z M79.2,308.5c0,1.2,1,2.2,2.2,2.2c1.2,0,2.2-1,2.2-2.2s-1-2.2-2.2-2.2
				C80.2,306.3,79.2,307.3,79.2,308.5z M57.2,308.5c0,1.2,1,2.2,2.2,2.2c1.2,0,2.2-1,2.2-2.2s-1-2.2-2.2-2.2
				C58.2,306.3,57.2,307.3,57.2,308.5z"/>
		</g>
		<g class="st2">
			<defs>
				<rect id="SVGID_16_" y="0" class="st2" width="750" height="500"/>
			</defs>
			<clipPath id="SVGID_17_">
				<use xlink:href="#SVGID_16_"  style="overflow:visible;"/>
			</clipPath>
			<g class="st10">
				<g>
					<path class="st11" d="M115.6,51.4c0-34.6,28-62.7,62.7-62.7s62.7,28,62.7,62.7S212.8,114,178.2,114
						C143.6,114,115.6,86,115.6,51.4z"/>
					<path class="st12" d="M256.3,51.4c0,43.1-34.9,78.1-78.1,78.1s-78.1-35-78.1-78.1s35-78.1,78.1-78.1
						C221.3-26.7,256.3,8.2,256.3,51.4z"/>
					<path class="st13" d="M271.7,51.4c0,51.6-41.9,93.5-93.5,93.5S84.7,103,84.7,51.4s41.9-93.5,93.5-93.5
						C229.9-42.1,271.7-0.3,271.7,51.4z"/>
					<ellipse class="st14" cx="178.2" cy="51.4" rx="108.9" ry="108.9"/>
					<ellipse class="st15" cx="178.2" cy="51.4" rx="124.3" ry="124.3"/>
					<ellipse class="st16" cx="178.2" cy="51.4" rx="139.7" ry="139.7"/>
					<ellipse class="st17" cx="178.2" cy="51.4" rx="155.2" ry="155.2"/>
					<ellipse class="st18" cx="178.2" cy="51.4" rx="170.6" ry="170.6"/>
					<circle class="st19" cx="178.2" cy="51.4" r="186"/>
				</g>
			</g>
		</g>
		<g class="st5">
			<defs>
				<rect id="SVGID_18_" y="0" width="750" height="500"/>
			</defs>
			<clipPath id="SVGID_19_" class="st6">
				<use xlink:href="#SVGID_18_"  style="overflow:visible;"/>
			</clipPath>
			<g class="st20">
				<g>
					<path class="st21" d="M49.3,498.8c0-45.6,37-82.6,82.6-82.6s82.6,37,82.6,82.6s-37,82.6-82.6,82.6
						C86.3,581.4,49.3,544.4,49.3,498.8z"/>
					<path class="st22" d="M234.8,498.8c0,56.8-46.1,102.9-102.9,102.9C75.1,601.7,29,555.6,29,498.8S75,395.9,131.9,395.9
						C188.7,395.9,234.8,442,234.8,498.8z"/>
					<path class="st23" d="M255.1,498.8c0,68.1-55.2,123.2-123.2,123.2S8.7,566.9,8.7,498.8s55.2-123.2,123.2-123.2
						C199.9,375.6,255.1,430.8,255.1,498.8z"/>
					<ellipse class="st24" cx="131.9" cy="498.8" rx="143.5" ry="143.5"/>
					<circle class="st25" cx="131.9" cy="498.8" r="163.9"/>
					<ellipse class="st26" cx="131.9" cy="498.8" rx="184.2" ry="184.2"/>
					<ellipse class="st27" cx="131.9" cy="498.8" rx="204.5" ry="204.5"/>
					<circle class="st28" cx="131.9" cy="498.8" r="224.9"/>
					<ellipse class="st29" cx="131.9" cy="498.8" rx="245.2" ry="245.2"/>
				</g>
			</g>
		</g>
		<g class="st5">
			<defs>
				<rect id="SVGID_20_" y="0" width="750" height="500"/>
			</defs>
			<clipPath id="SVGID_21_" class="st6">
				<use xlink:href="#SVGID_20_"  style="overflow:visible;"/>
			</clipPath>
			<g class="st30">
				<g>
					<path class="st31" d="M631.1,298.8c0-24.7,20-44.8,44.8-44.8c24.7,0,44.8,20,44.8,44.8c0,24.7-20,44.8-44.8,44.8
						S631.1,323.5,631.1,298.8z"/>
					<path class="st32" d="M731.6,298.8c0,30.8-25,55.8-55.8,55.8c-30.8,0-55.8-25-55.8-55.8s25-55.8,55.8-55.8
						C706.6,243,731.6,268,731.6,298.8z"/>
					<path class="st33" d="M742.6,298.8c0,36.9-29.9,66.8-66.8,66.8S609,335.7,609,298.8s29.9-66.8,66.8-66.8
						C712.7,232,742.6,261.9,742.6,298.8z"/>
					<path class="st34" d="M753.6,298.8c0,43-34.8,77.8-77.8,77.8c-43,0-77.8-34.8-77.8-77.8c0-43,34.8-77.8,77.8-77.8
						C718.8,221,753.6,255.8,753.6,298.8z"/>
					<path class="st35" d="M764.6,298.8c0,49-39.8,88.8-88.8,88.8S587,347.8,587,298.8s39.8-88.8,88.8-88.8
						C724.9,210,764.6,249.8,764.6,298.8z"/>
					<path class="st36" d="M775.7,298.8c0,55.1-44.7,99.8-99.8,99.8S576,353.9,576,298.8c0-55.1,44.7-99.8,99.8-99.8
						C731,199,775.7,243.7,775.7,298.8z"/>
					<path class="st37" d="M786.7,298.8c0,61.2-49.6,110.8-110.8,110.8S565,360,565,298.8c0-61.2,49.6-110.8,110.8-110.8
						S786.7,237.6,786.7,298.8z"/>
					<path class="st38" d="M797.7,298.8c0,67.3-54.5,121.9-121.8,121.9S554,366.1,554,298.8s54.5-121.9,121.8-121.9
						S797.7,231.5,797.7,298.8z"/>
					<path class="st39" d="M543,298.8c0-73.4,59.5-132.9,132.9-132.9s132.9,59.5,132.9,132.9s-59.5,132.9-132.9,132.9
						S543,372.2,543,298.8z"/>
				</g>
			</g>
		</g>
		<g class="st2">
			<defs>
				<rect id="SVGID_22_" y="0" class="st2" width="750" height="500"/>
			</defs>
			<clipPath id="SVGID_23_">
				<use xlink:href="#SVGID_22_"  style="overflow:visible;"/>
			</clipPath>
			<g class="st40">
				<g>
					<line class="st41" x1="317.6" y1="352.7" x2="380.4" y2="352.7"/>
					<line class="st42" x1="326.5" y1="343.8" x2="389.3" y2="343.8"/>
					<line class="st43" x1="335.4" y1="334.9" x2="398.1" y2="334.9"/>
					<line class="st44" x1="344.3" y1="326" x2="407" y2="326"/>
					<line class="st45" x1="353.2" y1="317.1" x2="416" y2="317.1"/>
					<line class="st46" x1="362.1" y1="308.2" x2="424.9" y2="308.2"/>
					<line class="st47" x1="371" y1="299.3" x2="433.8" y2="299.3"/>
					<line class="st48" x1="379.9" y1="290.4" x2="442.6" y2="290.4"/>
					<line class="st49" x1="388.8" y1="281.5" x2="451.5" y2="281.5"/>
					<line class="st50" x1="397.7" y1="272.6" x2="460.5" y2="272.6"/>
					<line class="st51" x1="406.6" y1="263.7" x2="469.4" y2="263.7"/>
					<line class="st52" x1="415.5" y1="254.8" x2="478.3" y2="254.8"/>
					<line class="st53" x1="424.4" y1="245.9" x2="487.1" y2="245.9"/>
					<line class="st54" x1="433.3" y1="237" x2="496" y2="237"/>
					<line class="st55" x1="442.2" y1="228.1" x2="505" y2="228.1"/>
					<line class="st56" x1="451.1" y1="219.2" x2="513.8" y2="219.2"/>
					<line class="st57" x1="460" y1="210.3" x2="522.8" y2="210.3"/>
					<line class="st58" x1="468.9" y1="201.4" x2="531.7" y2="201.4"/>
					<line class="st59" x1="477.8" y1="192.5" x2="540.5" y2="192.5"/>
					<line class="st60" x1="486.7" y1="183.6" x2="549.5" y2="183.6"/>
					<line class="st61" x1="495.6" y1="174.7" x2="558.3" y2="174.7"/>
					<line class="st62" x1="504.5" y1="165.8" x2="567.3" y2="165.8"/>
					<line class="st63" x1="513.4" y1="156.9" x2="576.2" y2="156.9"/>
					<line class="st64" x1="522.3" y1="148" x2="585" y2="148"/>
					<line class="st65" x1="531.2" y1="139.1" x2="594" y2="139.1"/>
					<line class="st66" x1="540.1" y1="130.2" x2="602.8" y2="130.2"/>
					<line class="st67" x1="549" y1="121.3" x2="611.8" y2="121.3"/>
					<line class="st68" x1="557.9" y1="112.4" x2="620.7" y2="112.4"/>
					<line class="st69" x1="566.8" y1="103.5" x2="629.5" y2="103.5"/>
					<line class="st70" x1="575.7" y1="94.6" x2="638.5" y2="94.6"/>
					<line class="st71" x1="584.6" y1="85.7" x2="647.3" y2="85.7"/>
					<line class="st72" x1="593.5" y1="76.8" x2="656.3" y2="76.8"/>
					<line class="st73" x1="602.4" y1="67.9" x2="665.2" y2="67.9"/>
					<line class="st74" x1="611.3" y1="59" x2="674" y2="59"/>
					<line class="st75" x1="620.2" y1="50.1" x2="683" y2="50.1"/>
					<line class="st76" x1="629.1" y1="41.2" x2="691.8" y2="41.2"/>
					<line class="st77" x1="638" y1="32.2" x2="700.8" y2="32.2"/>
					<line class="st78" x1="646.9" y1="23.3" x2="709.7" y2="23.3"/>
					<line class="st79" x1="655.8" y1="14.4" x2="718.5" y2="14.4"/>
					<line class="st80" x1="664.7" y1="5.5" x2="727.5" y2="5.5"/>
					<line class="st81" x1="673.6" y1="-3.4" x2="736.3" y2="-3.4"/>
					<line class="st82" x1="682.5" y1="-12.3" x2="745.3" y2="-12.3"/>
					<line class="st83" x1="691.4" y1="-21.2" x2="754.2" y2="-21.2"/>
					<line class="st84" x1="700.3" y1="-30.1" x2="763.1" y2="-30.1"/>
					<line class="st85" x1="709.2" y1="-39" x2="772" y2="-39"/>
					<line class="st86" x1="718.1" y1="-47.9" x2="780.9" y2="-47.9"/>
					<line class="st87" x1="727" y1="-56.8" x2="789.8" y2="-56.8"/>
					<line class="st88" x1="735.9" y1="-65.7" x2="798.7" y2="-65.7"/>
					<line class="st89" x1="744.8" y1="-74.6" x2="807.6" y2="-74.6"/>
					<line class="st90" x1="753.7" y1="-83.5" x2="816.5" y2="-83.5"/>
					<line class="st91" x1="762.6" y1="-92.4" x2="825.4" y2="-92.4"/>
					<line class="st92" x1="771.5" y1="-101.3" x2="834.3" y2="-101.3"/>
				</g>
			</g>
		</g>
		<g class="st2">
			<defs>
				<rect id="SVGID_24_" y="0" class="st2" width="750" height="500"/>
			</defs>
			<clipPath id="SVGID_25_">
				<use xlink:href="#SVGID_24_"  style="overflow:visible;"/>
			</clipPath>
			<g class="st93">
				<g>
					<line class="st41" x1="242.3" y1="16.2" x2="179.5" y2="16.2"/>
					<line class="st42" x1="233.4" y1="25.1" x2="170.6" y2="25.1"/>
					<line class="st43" x1="224.5" y1="34" x2="161.7" y2="34"/>
					<line class="st44" x1="215.6" y1="42.9" x2="152.8" y2="42.9"/>
					<line class="st45" x1="206.7" y1="51.8" x2="143.9" y2="51.8"/>
					<line class="st46" x1="197.8" y1="60.7" x2="135" y2="60.7"/>
					<line class="st47" x1="188.9" y1="69.6" x2="126.1" y2="69.6"/>
					<line class="st48" x1="180" y1="78.5" x2="117.2" y2="78.5"/>
					<line class="st49" x1="171.1" y1="87.4" x2="108.3" y2="87.4"/>
					<line class="st50" x1="162.2" y1="96.3" x2="99.4" y2="96.3"/>
					<line class="st51" x1="153.3" y1="105.2" x2="90.5" y2="105.2"/>
					<line class="st52" x1="144.4" y1="114.1" x2="81.6" y2="114.1"/>
					<line class="st53" x1="135.4" y1="123" x2="72.7" y2="123"/>
					<line class="st54" x1="126.6" y1="131.9" x2="63.8" y2="131.9"/>
					<line class="st55" x1="117.7" y1="140.8" x2="54.9" y2="140.8"/>
					<line class="st56" x1="108.8" y1="149.7" x2="46" y2="149.7"/>
					<line class="st57" x1="99.8" y1="158.6" x2="37.1" y2="158.6"/>
					<line class="st58" x1="90.9" y1="167.5" x2="28.2" y2="167.5"/>
					<line class="st59" x1="82.1" y1="176.4" x2="19.3" y2="176.4"/>
					<line class="st60" x1="73.2" y1="185.3" x2="10.4" y2="185.3"/>
					<line class="st61" x1="64.3" y1="194.2" x2="1.5" y2="194.2"/>
					<line class="st62" x1="55.3" y1="203.1" x2="-7.4" y2="203.1"/>
					<line class="st63" x1="46.5" y1="212" x2="-16.3" y2="212"/>
					<line class="st64" x1="37.5" y1="220.9" x2="-25.2" y2="220.9"/>
					<line class="st65" x1="28.6" y1="229.8" x2="-34.1" y2="229.8"/>
					<line class="st66" x1="19.8" y1="238.7" x2="-43" y2="238.7"/>
					<line class="st67" x1="10.9" y1="247.6" x2="-51.9" y2="247.6"/>
					<line class="st68" x1="2" y1="256.5" x2="-60.8" y2="256.5"/>
					<line class="st69" x1="-6.9" y1="265.4" x2="-69.7" y2="265.4"/>
					<line class="st70" x1="-15.9" y1="274.3" x2="-78.6" y2="274.3"/>
					<line class="st71" x1="-24.8" y1="283.2" x2="-87.5" y2="283.2"/>
					<line class="st72" x1="-33.7" y1="292.1" x2="-96.4" y2="292.1"/>
					<line class="st73" x1="-42.5" y1="301" x2="-105.3" y2="301"/>
					<line class="st74" x1="-51.5" y1="309.9" x2="-114.2" y2="309.9"/>
					<line class="st75" x1="-60.3" y1="318.8" x2="-123.1" y2="318.8"/>
					<line class="st76" x1="-69.3" y1="327.7" x2="-132" y2="327.7"/>
					<line class="st77" x1="-78.2" y1="336.6" x2="-140.9" y2="336.6"/>
					<line class="st78" x1="-87.1" y1="345.5" x2="-149.8" y2="345.5"/>
					<line class="st79" x1="-95.9" y1="354.4" x2="-158.7" y2="354.4"/>
					<line class="st80" x1="-104.8" y1="363.3" x2="-167.6" y2="363.3"/>
					<line class="st81" x1="-113.8" y1="372.2" x2="-176.5" y2="372.2"/>
					<line class="st82" x1="-122.7" y1="381.1" x2="-185.4" y2="381.1"/>
					<line class="st83" x1="-131.6" y1="390" x2="-194.3" y2="390"/>
					<line class="st84" x1="-140.4" y1="398.9" x2="-203.2" y2="398.9"/>
					<line class="st85" x1="-149.4" y1="407.8" x2="-212.1" y2="407.8"/>
					<line class="st86" x1="-158.3" y1="416.7" x2="-221" y2="416.7"/>
					<line class="st87" x1="-167.1" y1="425.6" x2="-229.9" y2="425.6"/>
					<line class="st88" x1="-176.1" y1="434.5" x2="-238.8" y2="434.5"/>
					<line class="st89" x1="-184.9" y1="443.4" x2="-247.7" y2="443.4"/>
					<line class="st90" x1="-193.9" y1="452.3" x2="-256.6" y2="452.3"/>
					<line class="st91" x1="-202.8" y1="461.2" x2="-265.5" y2="461.2"/>
					<line class="st92" x1="-211.6" y1="470.1" x2="-274.4" y2="470.1"/>
				</g>
			</g>
		</g>
		<g class="st2">
			<defs>
				<rect id="SVGID_26_" y="0" class="st2" width="750" height="500"/>
			</defs>
			<clipPath id="SVGID_27_">
				<use xlink:href="#SVGID_26_"  style="overflow:visible;"/>
			</clipPath>
			
				<linearGradient id="SVGID_28_" gradientUnits="userSpaceOnUse" x1="1365.2183" y1="236.5918" x2="1365.2183" y2="64.3292" gradientTransform="matrix(8.700000e-02 8.700000e-02 1.4304 -1.4304 -145.1164 451.5834)">
				<stop  offset="0" style="stop-color:#638DFF"/>
				<stop  offset="1" style="stop-color:#638DFF;stop-opacity:0"/>
			</linearGradient>
			<polygon class="st94" points="68.5,476.9 67.2,475.5 314.2,228.5 315.5,229.8 			"/>
		</g>
		<g class="st2">
			<defs>
				<rect id="SVGID_29_" y="0" class="st2" width="750" height="500"/>
			</defs>
			<clipPath id="SVGID_30_">
				<use xlink:href="#SVGID_29_"  style="overflow:visible;"/>
			</clipPath>
			
				<linearGradient id="SVGID_31_" gradientUnits="userSpaceOnUse" x1="-142.4541" y1="244.5253" x2="-142.4541" y2="158.3938" gradientTransform="matrix(8.700000e-02 8.700000e-02 1.4304 -1.4304 -145.1164 451.5834)">
				<stop  offset="0" style="stop-color:#638DFF"/>
				<stop  offset="1" style="stop-color:#638DFF;stop-opacity:0"/>
			</linearGradient>
			<polygon class="st95" points="70.5,211.9 69.8,211.2 193.3,87.7 194,88.4 			"/>
		</g>
		<g class="st2">
			<defs>
				<rect id="SVGID_32_" y="0" class="st2" width="750" height="500"/>
			</defs>
			<clipPath id="SVGID_33_">
				<use xlink:href="#SVGID_32_"  style="overflow:visible;"/>
			</clipPath>
			
				<linearGradient id="SVGID_34_" gradientUnits="userSpaceOnUse" x1="3843.9253" y1="339.3971" x2="3843.9253" y2="253.2652" gradientTransform="matrix(8.700000e-02 8.700000e-02 1.4304 -1.4304 -145.1164 451.5834)">
				<stop  offset="0" style="stop-color:#638DFF"/>
				<stop  offset="1" style="stop-color:#638DFF;stop-opacity:0"/>
			</linearGradient>
			<polygon class="st96" points="553,423 552.3,422.3 675.8,298.8 676.5,299.5 			"/>
		</g>
		<g class="st2">
			<defs>
				<rect id="SVGID_35_" y="0" class="st2" width="750" height="500"/>
			</defs>
			<clipPath id="SVGID_36_">
				<use xlink:href="#SVGID_35_"  style="overflow:visible;"/>
			</clipPath>
			
				<linearGradient id="SVGID_37_" gradientUnits="userSpaceOnUse" x1="2721.8274" y1="297.5308" x2="2721.8274" y2="125.2681" gradientTransform="matrix(8.700000e-02 8.700000e-02 1.4304 -1.4304 -145.1164 451.5834)">
				<stop  offset="0" style="stop-color:#638DFF"/>
				<stop  offset="1" style="stop-color:#638DFF;stop-opacity:0"/>
			</linearGradient>
			<polygon class="st97" points="273.7,507.7 272.4,506.4 519.4,259.3 520.7,260.7 			"/>
		</g>
		<g class="st2">
			<defs>
				<rect id="SVGID_38_" y="0" class="st2" width="750" height="500"/>
			</defs>
			<clipPath id="SVGID_39_">
				<use xlink:href="#SVGID_38_"  style="overflow:visible;"/>
			</clipPath>
			
				<linearGradient id="SVGID_40_" gradientUnits="userSpaceOnUse" x1="1809.155" y1="313.2584" x2="1809.155" y2="231.0104" gradientTransform="matrix(8.700000e-02 8.700000e-02 1.4304 -1.4304 -145.1164 451.5834)">
				<stop  offset="0" style="stop-color:#638DFF"/>
				<stop  offset="1" style="stop-color:#638DFF;stop-opacity:0"/>
			</linearGradient>
			<polygon class="st98" points="344.1,277.8 343.4,277.2 461.4,159.2 462,159.9 			"/>
		</g>
		<g class="st2">
			<defs>
				<rect id="SVGID_41_" y="0" class="st2" width="750" height="500"/>
			</defs>
			<clipPath id="SVGID_42_">
				<use xlink:href="#SVGID_41_"  style="overflow:visible;"/>
			</clipPath>
			
				<linearGradient id="SVGID_43_" gradientUnits="userSpaceOnUse" x1="1100.2758" y1="333.6534" x2="1100.2758" y2="297.7806" gradientTransform="matrix(8.700000e-02 8.700000e-02 1.4304 -1.4304 -145.1164 451.5834)">
				<stop  offset="0" style="stop-color:#638DFF"/>
				<stop  offset="1" style="stop-color:#638DFF;stop-opacity:0"/>
			</linearGradient>
			<polygon class="st99" points="377.1,121 376.9,120.8 428.3,69.3 428.6,69.6 			"/>
		</g>
		<g class="st2">
			<defs>
				<rect id="SVGID_44_" y="0" class="st2" width="750" height="500"/>
			</defs>
			<clipPath id="SVGID_45_">
				<use xlink:href="#SVGID_44_"  style="overflow:visible;"/>
			</clipPath>
			
				<linearGradient id="SVGID_46_" gradientUnits="userSpaceOnUse" x1="-930.845" y1="210.1162" x2="-930.845" y2="174.2435" gradientTransform="matrix(8.700000e-02 8.700000e-02 1.4304 -1.4304 -145.1164 451.5834)">
				<stop  offset="0" style="stop-color:#638DFF"/>
				<stop  offset="1" style="stop-color:#638DFF;stop-opacity:0"/>
			</linearGradient>
			<polygon class="st100" points="23.7,121 23.5,120.8 74.9,69.3 75.2,69.6 			"/>
		</g>
		<g class="st2">
			<defs>
				<rect id="SVGID_47_" y="0" class="st2" width="750" height="500"/>
			</defs>
			<clipPath id="SVGID_48_">
				<use xlink:href="#SVGID_47_"  style="overflow:visible;"/>
			</clipPath>
			
				<linearGradient id="SVGID_49_" gradientUnits="userSpaceOnUse" x1="2073.1494" y1="208.0608" x2="2073.1494" y2="154.0074" gradientTransform="matrix(8.700000e-02 8.700000e-02 1.4304 -1.4304 -145.1164 451.5834)">
				<stop  offset="0" style="stop-color:#638DFF"/>
				<stop  offset="1" style="stop-color:#638DFF;stop-opacity:0"/>
			</linearGradient>
			<polygon class="st101" points="256.4,411.2 256,410.8 333.5,333.3 333.9,333.7 			"/>
		</g>
		<g class="st2">
			<defs>
				<rect id="SVGID_50_" y="0" class="st2" width="750" height="500"/>
			</defs>
			<clipPath id="SVGID_51_">
				<use xlink:href="#SVGID_50_"  style="overflow:visible;"/>
			</clipPath>
			
				<linearGradient id="SVGID_52_" gradientUnits="userSpaceOnUse" x1="3649.5862" y1="227.0854" x2="3649.5862" y2="191.2126" gradientTransform="matrix(8.700000e-02 8.700000e-02 1.4304 -1.4304 -145.1164 451.5834)">
				<stop  offset="0" style="stop-color:#638DFF"/>
				<stop  offset="1" style="stop-color:#638DFF;stop-opacity:0"/>
			</linearGradient>
			<polygon class="st102" points="446.5,495.3 446.2,495 497.7,443.5 497.9,443.8 			"/>
		</g>
		<g class="st5">
			<defs>
				<rect id="SVGID_53_" y="0" width="750" height="500"/>
			</defs>
			<clipPath id="SVGID_54_" class="st6">
				<use xlink:href="#SVGID_53_"  style="overflow:visible;"/>
			</clipPath>
			
				<linearGradient id="SVGID_55_" gradientUnits="userSpaceOnUse" x1="472.3528" y1="863.0247" x2="519.6444" y2="910.3163" gradientTransform="matrix(-1 0 0 1 1014.1582 -513.0402)">
				<stop  offset="0" style="stop-color:#1D3780;stop-opacity:0"/>
				<stop  offset="1" style="stop-color:#638DFF"/>
			</linearGradient>
			<circle class="st103" cx="517.6" cy="374.2" r="33.3"/>
		</g>
		<g class="st2">
			<defs>
				
					<rect id="SVGID_56_" x="99.6" y="-55.2" transform="matrix(2.270096e-02 -0.9997 0.9997 2.270096e-02 269.1166 664.8134)" class="st2" width="750" height="500"/>
			</defs>
			<clipPath id="SVGID_57_">
				<use xlink:href="#SVGID_56_"  style="overflow:visible;"/>
			</clipPath>
			<ellipse class="st104" cx="396.5" cy="171.4" rx="12.4" ry="12.4"/>
		</g>
		<g class="st2">
			<defs>
				<rect id="SVGID_58_" y="0" class="st2" width="750" height="500"/>
			</defs>
			<clipPath id="SVGID_59_">
				<use xlink:href="#SVGID_58_"  style="overflow:visible;"/>
			</clipPath>
			<path class="st105" d="M575.9,456.5c0-4.5,3.6-8.1,8.1-8.1c4.5,0,8.1,3.6,8.1,8.1s-3.6,8.1-8.1,8.1S575.9,461,575.9,456.5z"/>
		</g>
		<g class="st2">
			<defs>
				<rect id="SVGID_60_" y="0" class="st2" width="750" height="500"/>
			</defs>
			<clipPath id="SVGID_61_">
				<use xlink:href="#SVGID_60_"  style="overflow:visible;"/>
			</clipPath>
			<path class="st106" d="M55.2,247.4c0-6.6,5.3-12,12-12s12,5.4,12,12s-5.3,12-12,12C60.6,259.3,55.2,254,55.2,247.4z"/>
		</g>
		<g class="st2">
			<defs>
				<rect id="SVGID_62_" y="0" class="st2" width="750" height="500"/>
			</defs>
			<clipPath id="SVGID_63_">
				<use xlink:href="#SVGID_62_"  style="overflow:visible;"/>
			</clipPath>
			<g class="st107">
				<g>
					
						<linearGradient id="SVGID_64_" gradientUnits="userSpaceOnUse" x1="477.5729" y1="554.6949" x2="553.0829" y2="630.2049" gradientTransform="matrix(-1 0 0 1 1014.1582 -513.0402)">
						<stop  offset="0" style="stop-color:#1D3780;stop-opacity:0"/>
						<stop  offset="1" style="stop-color:#638DFF"/>
					</linearGradient>
					<path class="st108" d="M444.8,80.3c0-29.3,23.8-53.1,53.1-53.1c29.3,0,53.1,23.8,53.1,53.1s-23.8,53.1-53.1,53.1
						C468.6,133.4,444.8,109.6,444.8,80.3z"/>
				</g>
			</g>
		</g>
		<g class="st2">
			<defs>
				<rect id="SVGID_65_" y="0" class="st2" width="750" height="500"/>
			</defs>
			<clipPath id="SVGID_66_">
				<use xlink:href="#SVGID_65_"  style="overflow:visible;"/>
			</clipPath>
			<g class="st109">
				<g>
					
						<linearGradient id="SVGID_67_" gradientUnits="userSpaceOnUse" x1="830.4039" y1="678.8858" x2="933.3702" y2="781.8523" gradientTransform="matrix(-1 0 0 1 1014.1582 -513.0402)">
						<stop  offset="0" style="stop-color:#638DFF;stop-opacity:0"/>
						<stop  offset="1" style="stop-color:#A1B9FF"/>
					</linearGradient>
					<circle class="st110" cx="131.1" cy="218.5" r="72.5"/>
				</g>
			</g>
		</g>
		<g class="st2">
			<defs>
				<rect id="SVGID_68_" y="0" class="st2" width="750" height="500"/>
			</defs>
			<clipPath id="SVGID_69_">
				<use xlink:href="#SVGID_68_"  style="overflow:visible;"/>
			</clipPath>
			<g class="st111">
				<g>
					<line class="st41" x1="850.5" y1="317.7" x2="787.7" y2="317.7"/>
					<line class="st42" x1="841.5" y1="326.6" x2="778.8" y2="326.6"/>
					<line class="st43" x1="832.7" y1="335.5" x2="769.9" y2="335.5"/>
					<line class="st44" x1="823.8" y1="344.4" x2="761" y2="344.4"/>
					<line class="st45" x1="814.8" y1="353.3" x2="752.1" y2="353.3"/>
					<line class="st46" x1="806" y1="362.2" x2="743.2" y2="362.2"/>
					<line class="st47" x1="797" y1="371.1" x2="734.3" y2="371.1"/>
					<line class="st48" x1="788.2" y1="380" x2="725.4" y2="380"/>
					<line class="st49" x1="779.3" y1="388.9" x2="716.5" y2="388.9"/>
					<line class="st50" x1="770.3" y1="397.8" x2="707.6" y2="397.8"/>
					<line class="st51" x1="761.5" y1="406.7" x2="698.7" y2="406.7"/>
					<line class="st52" x1="752.5" y1="415.6" x2="689.8" y2="415.6"/>
					<line class="st53" x1="743.7" y1="424.5" x2="680.9" y2="424.5"/>
					<line class="st54" x1="734.8" y1="433.4" x2="672" y2="433.4"/>
					<line class="st55" x1="725.8" y1="442.3" x2="663.1" y2="442.3"/>
					<line class="st56" x1="717" y1="451.2" x2="654.2" y2="451.2"/>
					<line class="st57" x1="708" y1="460.1" x2="645.3" y2="460.1"/>
					<line class="st58" x1="699.2" y1="469" x2="636.4" y2="469"/>
					<line class="st59" x1="690.3" y1="477.9" x2="627.5" y2="477.9"/>
					<line class="st60" x1="681.3" y1="486.8" x2="618.6" y2="486.8"/>
					<line class="st61" x1="672.5" y1="495.7" x2="609.7" y2="495.7"/>
					<line class="st62" x1="663.5" y1="504.6" x2="600.8" y2="504.6"/>
					<line class="st63" x1="654.7" y1="513.5" x2="591.9" y2="513.5"/>
					<line class="st64" x1="645.8" y1="522.4" x2="583" y2="522.4"/>
					<line class="st65" x1="636.8" y1="531.3" x2="574.1" y2="531.3"/>
					<line class="st66" x1="628" y1="540.2" x2="565.2" y2="540.2"/>
					<line class="st67" x1="619" y1="549.1" x2="556.3" y2="549.1"/>
					<line class="st68" x1="610.2" y1="558" x2="547.4" y2="558"/>
					<line class="st69" x1="601.3" y1="566.9" x2="538.5" y2="566.9"/>
					<line class="st70" x1="592.3" y1="575.8" x2="529.6" y2="575.8"/>
					<line class="st71" x1="583.5" y1="584.7" x2="520.7" y2="584.7"/>
					<line class="st72" x1="574.5" y1="593.6" x2="511.8" y2="593.6"/>
					<line class="st73" x1="565.7" y1="602.5" x2="502.9" y2="602.5"/>
					<line class="st74" x1="556.8" y1="611.4" x2="494" y2="611.4"/>
					<line class="st75" x1="547.8" y1="620.3" x2="485.1" y2="620.3"/>
					<line class="st76" x1="539" y1="629.2" x2="476.2" y2="629.2"/>
					<line class="st77" x1="530" y1="638.1" x2="467.3" y2="638.1"/>
					<line class="st78" x1="521.2" y1="647" x2="458.4" y2="647"/>
					<line class="st79" x1="512.3" y1="655.9" x2="449.5" y2="655.9"/>
					<line class="st80" x1="503.4" y1="664.8" x2="440.6" y2="664.8"/>
					<line class="st81" x1="494.5" y1="673.7" x2="431.7" y2="673.7"/>
					<line class="st82" x1="485.5" y1="682.6" x2="422.8" y2="682.6"/>
					<line class="st83" x1="476.6" y1="691.5" x2="413.9" y2="691.5"/>
					<line class="st84" x1="467.8" y1="700.4" x2="405" y2="700.4"/>
					<line class="st85" x1="458.9" y1="709.3" x2="396.1" y2="709.3"/>
					<line class="st86" x1="450" y1="718.2" x2="387.2" y2="718.2"/>
					<line class="st87" x1="441" y1="727.1" x2="378.3" y2="727.1"/>
					<line class="st88" x1="432.1" y1="736" x2="369.4" y2="736"/>
					<line class="st89" x1="423.2" y1="744.9" x2="360.5" y2="744.9"/>
					<line class="st90" x1="414.3" y1="753.8" x2="351.6" y2="753.8"/>
					<line class="st91" x1="405.4" y1="762.7" x2="342.7" y2="762.7"/>
					<line class="st92" x1="396.5" y1="771.6" x2="333.8" y2="771.6"/>
				</g>
			</g>
		</g>
	</g>
</g>
</svg>
